G04 #@! TF.FileFunction,Copper,L2,Bot,Signal*
%FSLAX46Y46*%
G04 Gerber Fmt 4.6, Leading zero omitted, Abs format (unit mm)*
G04 Created by KiCad (PCBNEW 4.0.5+dfsg1-4) date Mon Nov 20 15:47:14 2017*
%MOMM*%
%LPD*%
G01*
G04 APERTURE LIST*
%ADD10C,0.100000*%
%ADD11R,1.524000X1.524000*%
%ADD12C,0.600000*%
%ADD13C,0.203200*%
G04 APERTURE END LIST*
D10*
D11*
X147828000Y-96012000D03*
X150368000Y-96012000D03*
X150368000Y-93472000D03*
X147828000Y-93472000D03*
X152908000Y-96012000D03*
X152908000Y-93472000D03*
D12*
X154486144Y-103124000D03*
X153416000Y-99725200D03*
X153924000Y-110236000D03*
X154432000Y-104648000D03*
X160274000Y-108966000D03*
X155586000Y-107117000D03*
X152838000Y-95879000D03*
X150368000Y-93568800D03*
X155191947Y-97078584D03*
X151638000Y-93568800D03*
X153924000Y-94742000D03*
D13*
X153416000Y-99725200D02*
X153416000Y-102053856D01*
X153416000Y-102053856D02*
X154486144Y-103124000D01*
X147828000Y-96977200D02*
X150576000Y-99725200D01*
X147828000Y-96012000D02*
X147828000Y-96977200D01*
X150576000Y-99725200D02*
X153416000Y-99725200D01*
X150368000Y-93472000D02*
X150368000Y-93568800D01*
X152908000Y-93472000D02*
X153873200Y-93472000D01*
X153873200Y-93472000D02*
X155191947Y-94790747D01*
X155191947Y-94790747D02*
X155191947Y-97078584D01*
X147828000Y-93472000D02*
X147828000Y-94437200D01*
X147929601Y-94538801D02*
X151373841Y-94538801D01*
X151373841Y-94538801D02*
X151638000Y-94274642D01*
X147828000Y-94437200D02*
X147929601Y-94538801D01*
X151638000Y-94274642D02*
X151638000Y-93568800D01*
X150368000Y-96012000D02*
X151434801Y-94945199D01*
X151434801Y-94945199D02*
X153720801Y-94945199D01*
X153720801Y-94945199D02*
X153924000Y-94742000D01*
G36*
X192938400Y-119278400D02*
X128776441Y-119278400D01*
X130013171Y-118792994D01*
X130043841Y-118777347D01*
X130074712Y-118762137D01*
X130079198Y-118759309D01*
X131469625Y-117869082D01*
X131496683Y-117847767D01*
X131524001Y-117826858D01*
X131527853Y-117823213D01*
X132718887Y-116679870D01*
X132741290Y-116653705D01*
X132764026Y-116627890D01*
X132767090Y-116623573D01*
X132767096Y-116623566D01*
X132767100Y-116623559D01*
X133713371Y-115270658D01*
X133730278Y-115240617D01*
X133747553Y-115210900D01*
X133749725Y-115206062D01*
X134415197Y-113695121D01*
X134425938Y-113662394D01*
X134437122Y-113629861D01*
X134438312Y-113624693D01*
X134797634Y-112013271D01*
X134801815Y-111979078D01*
X134806466Y-111944996D01*
X134806629Y-111939706D01*
X134806630Y-111939695D01*
X134806629Y-111939685D01*
X134846114Y-110289170D01*
X134843573Y-110254808D01*
X134841516Y-110220480D01*
X134840649Y-110215258D01*
X134840648Y-110215249D01*
X134840646Y-110215241D01*
X134558791Y-108588487D01*
X134549630Y-108555295D01*
X134540939Y-108521998D01*
X134539074Y-108517045D01*
X134539071Y-108517035D01*
X134539067Y-108517026D01*
X133946611Y-106976002D01*
X133931155Y-106945177D01*
X133916183Y-106914246D01*
X133913386Y-106909740D01*
X133032888Y-105513132D01*
X133011766Y-105485930D01*
X132991045Y-105458462D01*
X132987426Y-105454585D01*
X131852426Y-104255599D01*
X131826439Y-104233032D01*
X131800761Y-104210097D01*
X131796459Y-104206998D01*
X130450191Y-103251302D01*
X130420290Y-103234197D01*
X130390673Y-103216703D01*
X130385859Y-103214502D01*
X130385850Y-103214497D01*
X130385841Y-103214494D01*
X128879593Y-102538493D01*
X128846955Y-102527527D01*
X128814487Y-102516112D01*
X128809331Y-102514887D01*
X128809329Y-102514886D01*
X128809327Y-102514886D01*
X127200454Y-102144324D01*
X127166290Y-102139905D01*
X127132242Y-102135016D01*
X127126943Y-102134815D01*
X125476733Y-102083808D01*
X125442337Y-102086111D01*
X125408012Y-102087927D01*
X125402774Y-102088759D01*
X123774085Y-102359251D01*
X123740802Y-102368187D01*
X123707473Y-102376639D01*
X123702507Y-102378469D01*
X123702497Y-102378472D01*
X123702488Y-102378476D01*
X122157365Y-102960161D01*
X122126501Y-102975368D01*
X122095398Y-102990156D01*
X122090873Y-102992921D01*
X120688153Y-103863648D01*
X120660795Y-103884587D01*
X120633193Y-103905108D01*
X120629297Y-103908694D01*
X120629291Y-103908699D01*
X120629286Y-103908705D01*
X119422409Y-105035301D01*
X119399644Y-105061149D01*
X119376548Y-105086647D01*
X119373422Y-105090922D01*
X119373418Y-105090927D01*
X119373415Y-105090932D01*
X118408346Y-106430491D01*
X118391026Y-106460285D01*
X118373332Y-106489767D01*
X118371093Y-106494574D01*
X117786035Y-107774200D01*
X115530000Y-107774200D01*
X115529934Y-107774206D01*
X115528694Y-107774202D01*
X115525203Y-107774214D01*
X115508685Y-107775891D01*
X115492088Y-107775775D01*
X115486810Y-107776292D01*
X115389762Y-107786493D01*
X115356081Y-107793406D01*
X115322228Y-107799864D01*
X115317151Y-107801397D01*
X115223932Y-107830253D01*
X115192146Y-107843614D01*
X115160280Y-107856489D01*
X115155608Y-107858973D01*
X115155600Y-107858977D01*
X115155593Y-107858982D01*
X115069760Y-107905391D01*
X115041181Y-107924668D01*
X115012419Y-107943489D01*
X115008315Y-107946837D01*
X115008309Y-107946841D01*
X115008304Y-107946846D01*
X114933121Y-108009043D01*
X114908872Y-108033462D01*
X114884273Y-108057550D01*
X114880893Y-108061636D01*
X114819217Y-108137257D01*
X114800158Y-108165942D01*
X114780717Y-108194336D01*
X114778194Y-108199001D01*
X114732383Y-108285162D01*
X114719256Y-108317010D01*
X114705706Y-108348623D01*
X114704140Y-108353682D01*
X114704136Y-108353692D01*
X114704134Y-108353703D01*
X114675933Y-108447107D01*
X114669248Y-108480866D01*
X114662089Y-108514548D01*
X114661535Y-108519822D01*
X114652012Y-108616940D01*
X114652012Y-108632872D01*
X114650237Y-108648697D01*
X114650200Y-108654000D01*
X114650200Y-113154000D01*
X114650206Y-113154066D01*
X114650202Y-113155306D01*
X114650214Y-113158797D01*
X114651891Y-113175315D01*
X114651775Y-113191912D01*
X114652293Y-113197190D01*
X114662493Y-113294239D01*
X114669409Y-113327933D01*
X114675864Y-113361772D01*
X114677397Y-113366849D01*
X114706253Y-113460068D01*
X114719608Y-113491838D01*
X114732489Y-113523719D01*
X114734978Y-113528402D01*
X114781391Y-113614239D01*
X114800641Y-113642778D01*
X114819489Y-113671581D01*
X114822837Y-113675685D01*
X114822841Y-113675691D01*
X114822846Y-113675696D01*
X114885042Y-113750879D01*
X114909497Y-113775164D01*
X114933550Y-113799727D01*
X114937636Y-113803107D01*
X115013257Y-113864783D01*
X115041942Y-113883842D01*
X115070336Y-113903283D01*
X115074990Y-113905799D01*
X115074996Y-113905803D01*
X115075001Y-113905805D01*
X115161162Y-113951617D01*
X115193010Y-113964744D01*
X115224623Y-113978294D01*
X115229682Y-113979860D01*
X115229692Y-113979864D01*
X115229703Y-113979866D01*
X115323107Y-114008067D01*
X115356866Y-114014752D01*
X115390548Y-114021911D01*
X115395823Y-114022466D01*
X115492940Y-114031988D01*
X115508872Y-114031988D01*
X115524697Y-114033763D01*
X115530000Y-114033800D01*
X117779568Y-114033800D01*
X118172483Y-114950540D01*
X118186891Y-114976747D01*
X118200291Y-115003473D01*
X118203151Y-115007939D01*
X119103064Y-116392118D01*
X119124572Y-116419032D01*
X119145666Y-116446198D01*
X119149338Y-116450024D01*
X120300967Y-117633047D01*
X120327306Y-117655282D01*
X120353262Y-117677822D01*
X120357600Y-117680856D01*
X120357607Y-117680862D01*
X120357614Y-117680866D01*
X121717088Y-118617669D01*
X121747199Y-118634339D01*
X121777083Y-118651434D01*
X121781936Y-118653571D01*
X123227880Y-119278400D01*
X111861600Y-119278400D01*
X111861600Y-92710000D01*
X146759726Y-92710000D01*
X146759726Y-94234000D01*
X146763597Y-94282538D01*
X146789091Y-94364864D01*
X146836512Y-94436828D01*
X146902104Y-94492732D01*
X146980674Y-94528148D01*
X147066000Y-94540274D01*
X147436627Y-94540274D01*
X147440191Y-94552078D01*
X147450663Y-94588124D01*
X147451646Y-94590021D01*
X147452264Y-94592067D01*
X147469902Y-94625239D01*
X147487165Y-94658541D01*
X147488497Y-94660209D01*
X147489501Y-94662098D01*
X147513251Y-94691219D01*
X147536648Y-94720528D01*
X147539578Y-94723499D01*
X147539630Y-94723563D01*
X147539689Y-94723612D01*
X147540632Y-94724568D01*
X147642233Y-94826170D01*
X147671238Y-94849994D01*
X147699998Y-94874127D01*
X147701873Y-94875158D01*
X147703523Y-94876513D01*
X147736593Y-94894245D01*
X147769503Y-94912338D01*
X147771539Y-94912984D01*
X147773423Y-94913994D01*
X147809334Y-94924973D01*
X147845106Y-94936320D01*
X147847229Y-94936558D01*
X147849273Y-94937183D01*
X147886664Y-94940981D01*
X147911133Y-94943726D01*
X147066000Y-94943726D01*
X147017462Y-94947597D01*
X146935136Y-94973091D01*
X146863172Y-95020512D01*
X146807268Y-95086104D01*
X146771852Y-95164674D01*
X146759726Y-95250000D01*
X146759726Y-96774000D01*
X146763597Y-96822538D01*
X146789091Y-96904864D01*
X146836512Y-96976828D01*
X146902104Y-97032732D01*
X146980674Y-97068148D01*
X147066000Y-97080274D01*
X147436627Y-97080274D01*
X147440191Y-97092078D01*
X147450663Y-97128124D01*
X147451646Y-97130021D01*
X147452264Y-97132067D01*
X147469902Y-97165239D01*
X147487165Y-97198541D01*
X147488497Y-97200209D01*
X147489501Y-97202098D01*
X147513251Y-97231219D01*
X147536648Y-97260528D01*
X147539578Y-97263499D01*
X147539630Y-97263563D01*
X147539689Y-97263612D01*
X147540632Y-97264568D01*
X150288632Y-100012568D01*
X150317607Y-100036368D01*
X150346397Y-100060526D01*
X150348272Y-100061557D01*
X150349922Y-100062912D01*
X150382992Y-100080644D01*
X150415902Y-100098737D01*
X150417938Y-100099383D01*
X150419822Y-100100393D01*
X150455733Y-100111372D01*
X150491505Y-100122719D01*
X150493628Y-100122957D01*
X150495672Y-100123582D01*
X150533063Y-100127380D01*
X150570326Y-100131560D01*
X150574496Y-100131589D01*
X150574581Y-100131598D01*
X150574660Y-100131591D01*
X150576000Y-100131600D01*
X152967649Y-100131600D01*
X153009600Y-100175041D01*
X153009600Y-102053856D01*
X153013261Y-102091198D01*
X153016535Y-102128613D01*
X153017131Y-102130666D01*
X153017340Y-102132793D01*
X153028191Y-102168734D01*
X153038663Y-102204780D01*
X153039646Y-102206677D01*
X153040264Y-102208723D01*
X153057902Y-102241895D01*
X153075165Y-102275197D01*
X153076497Y-102276865D01*
X153077501Y-102278754D01*
X153101251Y-102307875D01*
X153124648Y-102337184D01*
X153127578Y-102340155D01*
X153127630Y-102340219D01*
X153127689Y-102340268D01*
X153128632Y-102341224D01*
X153881674Y-103094266D01*
X153880549Y-103174853D01*
X153901960Y-103291512D01*
X153945623Y-103401790D01*
X154009873Y-103501488D01*
X154092265Y-103586807D01*
X154189659Y-103654497D01*
X154298346Y-103701982D01*
X154414187Y-103727451D01*
X154532768Y-103729935D01*
X154649574Y-103709339D01*
X154760154Y-103666448D01*
X154860297Y-103602895D01*
X154946190Y-103521101D01*
X155014559Y-103424181D01*
X155062801Y-103315828D01*
X155089078Y-103200168D01*
X155090970Y-103064696D01*
X155067932Y-102948348D01*
X155022734Y-102838690D01*
X154957098Y-102739899D01*
X154873523Y-102655739D01*
X154775193Y-102589415D01*
X154665853Y-102543453D01*
X154549669Y-102519603D01*
X154455828Y-102518948D01*
X153822400Y-101885520D01*
X153822400Y-100173387D01*
X153876046Y-100122301D01*
X153944415Y-100025381D01*
X153992657Y-99917028D01*
X154018934Y-99801368D01*
X154020826Y-99665896D01*
X153997788Y-99549548D01*
X153952590Y-99439890D01*
X153886954Y-99341099D01*
X153803379Y-99256939D01*
X153705049Y-99190615D01*
X153595709Y-99144653D01*
X153479525Y-99120803D01*
X153360920Y-99119975D01*
X153244414Y-99142200D01*
X153134443Y-99186631D01*
X153035197Y-99251576D01*
X152966550Y-99318800D01*
X150744336Y-99318800D01*
X148505810Y-97080274D01*
X148590000Y-97080274D01*
X148638538Y-97076403D01*
X148720864Y-97050909D01*
X148792828Y-97003488D01*
X148848732Y-96937896D01*
X148884148Y-96859326D01*
X148896274Y-96774000D01*
X148896274Y-95250000D01*
X148892403Y-95201462D01*
X148866909Y-95119136D01*
X148819488Y-95047172D01*
X148753896Y-94991268D01*
X148675326Y-94955852D01*
X148600379Y-94945201D01*
X149587505Y-94945201D01*
X149557462Y-94947597D01*
X149475136Y-94973091D01*
X149403172Y-95020512D01*
X149347268Y-95086104D01*
X149311852Y-95164674D01*
X149299726Y-95250000D01*
X149299726Y-96774000D01*
X149303597Y-96822538D01*
X149329091Y-96904864D01*
X149376512Y-96976828D01*
X149442104Y-97032732D01*
X149520674Y-97068148D01*
X149606000Y-97080274D01*
X151130000Y-97080274D01*
X151178538Y-97076403D01*
X151260864Y-97050909D01*
X151332828Y-97003488D01*
X151388732Y-96937896D01*
X151424148Y-96859326D01*
X151436274Y-96774000D01*
X151436274Y-96240600D01*
X151841200Y-96240600D01*
X151841200Y-96804020D01*
X151852913Y-96862907D01*
X151875890Y-96918377D01*
X151909247Y-96968299D01*
X151951701Y-97010754D01*
X152001623Y-97044110D01*
X152057093Y-97067087D01*
X152115980Y-97078800D01*
X152679400Y-97078800D01*
X152755600Y-97002600D01*
X152755600Y-96164400D01*
X153060400Y-96164400D01*
X153060400Y-97002600D01*
X153136600Y-97078800D01*
X153700020Y-97078800D01*
X153758907Y-97067087D01*
X153814377Y-97044110D01*
X153864299Y-97010754D01*
X153906753Y-96968299D01*
X153940110Y-96918377D01*
X153963087Y-96862907D01*
X153974800Y-96804020D01*
X153974800Y-96240600D01*
X153898600Y-96164400D01*
X153060400Y-96164400D01*
X152755600Y-96164400D01*
X151917400Y-96164400D01*
X151841200Y-96240600D01*
X151436274Y-96240600D01*
X151436274Y-95518463D01*
X151603138Y-95351599D01*
X151841200Y-95351599D01*
X151841200Y-95783400D01*
X151917400Y-95859600D01*
X152755600Y-95859600D01*
X152755600Y-95839600D01*
X153060400Y-95839600D01*
X153060400Y-95859600D01*
X153898600Y-95859600D01*
X153974800Y-95783400D01*
X153974800Y-95347199D01*
X154087430Y-95327339D01*
X154198010Y-95284448D01*
X154298153Y-95220895D01*
X154384046Y-95139101D01*
X154452415Y-95042181D01*
X154500657Y-94933828D01*
X154526934Y-94818168D01*
X154528555Y-94702091D01*
X154785547Y-94959083D01*
X154785547Y-96630026D01*
X154726402Y-96687945D01*
X154659393Y-96785810D01*
X154612668Y-96894826D01*
X154588008Y-97010841D01*
X154586352Y-97129437D01*
X154607763Y-97246096D01*
X154651426Y-97356374D01*
X154715676Y-97456072D01*
X154798068Y-97541391D01*
X154895462Y-97609081D01*
X155004149Y-97656566D01*
X155119990Y-97682035D01*
X155238571Y-97684519D01*
X155355377Y-97663923D01*
X155465957Y-97621032D01*
X155566100Y-97557479D01*
X155651993Y-97475685D01*
X155720362Y-97378765D01*
X155768604Y-97270412D01*
X155794881Y-97154752D01*
X155796773Y-97019280D01*
X155773735Y-96902932D01*
X155728537Y-96793274D01*
X155662901Y-96694483D01*
X155598347Y-96629477D01*
X155598347Y-94790747D01*
X155594686Y-94753405D01*
X155591412Y-94715990D01*
X155590816Y-94713937D01*
X155590607Y-94711810D01*
X155579756Y-94675869D01*
X155569284Y-94639823D01*
X155568301Y-94637926D01*
X155567683Y-94635880D01*
X155550045Y-94602708D01*
X155532782Y-94569406D01*
X155531450Y-94567738D01*
X155530446Y-94565849D01*
X155506696Y-94536728D01*
X155483299Y-94507419D01*
X155480369Y-94504448D01*
X155480317Y-94504384D01*
X155480258Y-94504335D01*
X155479315Y-94503379D01*
X154160568Y-93184632D01*
X154131593Y-93160832D01*
X154102803Y-93136674D01*
X154100928Y-93135643D01*
X154099278Y-93134288D01*
X154066208Y-93116556D01*
X154033298Y-93098463D01*
X154031262Y-93097817D01*
X154029378Y-93096807D01*
X153993467Y-93085828D01*
X153976274Y-93080374D01*
X153976274Y-92710000D01*
X153972403Y-92661462D01*
X153946909Y-92579136D01*
X153899488Y-92507172D01*
X153833896Y-92451268D01*
X153755326Y-92415852D01*
X153670000Y-92403726D01*
X152146000Y-92403726D01*
X152097462Y-92407597D01*
X152015136Y-92433091D01*
X151943172Y-92480512D01*
X151887268Y-92546104D01*
X151851852Y-92624674D01*
X151839726Y-92710000D01*
X151839726Y-92997508D01*
X151817709Y-92988253D01*
X151701525Y-92964403D01*
X151582920Y-92963575D01*
X151466414Y-92985800D01*
X151436274Y-92997977D01*
X151436274Y-92710000D01*
X151432403Y-92661462D01*
X151406909Y-92579136D01*
X151359488Y-92507172D01*
X151293896Y-92451268D01*
X151215326Y-92415852D01*
X151130000Y-92403726D01*
X149606000Y-92403726D01*
X149557462Y-92407597D01*
X149475136Y-92433091D01*
X149403172Y-92480512D01*
X149347268Y-92546104D01*
X149311852Y-92624674D01*
X149299726Y-92710000D01*
X149299726Y-94132401D01*
X148896274Y-94132401D01*
X148896274Y-92710000D01*
X148892403Y-92661462D01*
X148866909Y-92579136D01*
X148819488Y-92507172D01*
X148753896Y-92451268D01*
X148675326Y-92415852D01*
X148590000Y-92403726D01*
X147066000Y-92403726D01*
X147017462Y-92407597D01*
X146935136Y-92433091D01*
X146863172Y-92480512D01*
X146807268Y-92546104D01*
X146771852Y-92624674D01*
X146759726Y-92710000D01*
X111861600Y-92710000D01*
X111861600Y-73761600D01*
X192938400Y-73761600D01*
X192938400Y-119278400D01*
X192938400Y-119278400D01*
G37*
X192938400Y-119278400D02*
X128776441Y-119278400D01*
X130013171Y-118792994D01*
X130043841Y-118777347D01*
X130074712Y-118762137D01*
X130079198Y-118759309D01*
X131469625Y-117869082D01*
X131496683Y-117847767D01*
X131524001Y-117826858D01*
X131527853Y-117823213D01*
X132718887Y-116679870D01*
X132741290Y-116653705D01*
X132764026Y-116627890D01*
X132767090Y-116623573D01*
X132767096Y-116623566D01*
X132767100Y-116623559D01*
X133713371Y-115270658D01*
X133730278Y-115240617D01*
X133747553Y-115210900D01*
X133749725Y-115206062D01*
X134415197Y-113695121D01*
X134425938Y-113662394D01*
X134437122Y-113629861D01*
X134438312Y-113624693D01*
X134797634Y-112013271D01*
X134801815Y-111979078D01*
X134806466Y-111944996D01*
X134806629Y-111939706D01*
X134806630Y-111939695D01*
X134806629Y-111939685D01*
X134846114Y-110289170D01*
X134843573Y-110254808D01*
X134841516Y-110220480D01*
X134840649Y-110215258D01*
X134840648Y-110215249D01*
X134840646Y-110215241D01*
X134558791Y-108588487D01*
X134549630Y-108555295D01*
X134540939Y-108521998D01*
X134539074Y-108517045D01*
X134539071Y-108517035D01*
X134539067Y-108517026D01*
X133946611Y-106976002D01*
X133931155Y-106945177D01*
X133916183Y-106914246D01*
X133913386Y-106909740D01*
X133032888Y-105513132D01*
X133011766Y-105485930D01*
X132991045Y-105458462D01*
X132987426Y-105454585D01*
X131852426Y-104255599D01*
X131826439Y-104233032D01*
X131800761Y-104210097D01*
X131796459Y-104206998D01*
X130450191Y-103251302D01*
X130420290Y-103234197D01*
X130390673Y-103216703D01*
X130385859Y-103214502D01*
X130385850Y-103214497D01*
X130385841Y-103214494D01*
X128879593Y-102538493D01*
X128846955Y-102527527D01*
X128814487Y-102516112D01*
X128809331Y-102514887D01*
X128809329Y-102514886D01*
X128809327Y-102514886D01*
X127200454Y-102144324D01*
X127166290Y-102139905D01*
X127132242Y-102135016D01*
X127126943Y-102134815D01*
X125476733Y-102083808D01*
X125442337Y-102086111D01*
X125408012Y-102087927D01*
X125402774Y-102088759D01*
X123774085Y-102359251D01*
X123740802Y-102368187D01*
X123707473Y-102376639D01*
X123702507Y-102378469D01*
X123702497Y-102378472D01*
X123702488Y-102378476D01*
X122157365Y-102960161D01*
X122126501Y-102975368D01*
X122095398Y-102990156D01*
X122090873Y-102992921D01*
X120688153Y-103863648D01*
X120660795Y-103884587D01*
X120633193Y-103905108D01*
X120629297Y-103908694D01*
X120629291Y-103908699D01*
X120629286Y-103908705D01*
X119422409Y-105035301D01*
X119399644Y-105061149D01*
X119376548Y-105086647D01*
X119373422Y-105090922D01*
X119373418Y-105090927D01*
X119373415Y-105090932D01*
X118408346Y-106430491D01*
X118391026Y-106460285D01*
X118373332Y-106489767D01*
X118371093Y-106494574D01*
X117786035Y-107774200D01*
X115530000Y-107774200D01*
X115529934Y-107774206D01*
X115528694Y-107774202D01*
X115525203Y-107774214D01*
X115508685Y-107775891D01*
X115492088Y-107775775D01*
X115486810Y-107776292D01*
X115389762Y-107786493D01*
X115356081Y-107793406D01*
X115322228Y-107799864D01*
X115317151Y-107801397D01*
X115223932Y-107830253D01*
X115192146Y-107843614D01*
X115160280Y-107856489D01*
X115155608Y-107858973D01*
X115155600Y-107858977D01*
X115155593Y-107858982D01*
X115069760Y-107905391D01*
X115041181Y-107924668D01*
X115012419Y-107943489D01*
X115008315Y-107946837D01*
X115008309Y-107946841D01*
X115008304Y-107946846D01*
X114933121Y-108009043D01*
X114908872Y-108033462D01*
X114884273Y-108057550D01*
X114880893Y-108061636D01*
X114819217Y-108137257D01*
X114800158Y-108165942D01*
X114780717Y-108194336D01*
X114778194Y-108199001D01*
X114732383Y-108285162D01*
X114719256Y-108317010D01*
X114705706Y-108348623D01*
X114704140Y-108353682D01*
X114704136Y-108353692D01*
X114704134Y-108353703D01*
X114675933Y-108447107D01*
X114669248Y-108480866D01*
X114662089Y-108514548D01*
X114661535Y-108519822D01*
X114652012Y-108616940D01*
X114652012Y-108632872D01*
X114650237Y-108648697D01*
X114650200Y-108654000D01*
X114650200Y-113154000D01*
X114650206Y-113154066D01*
X114650202Y-113155306D01*
X114650214Y-113158797D01*
X114651891Y-113175315D01*
X114651775Y-113191912D01*
X114652293Y-113197190D01*
X114662493Y-113294239D01*
X114669409Y-113327933D01*
X114675864Y-113361772D01*
X114677397Y-113366849D01*
X114706253Y-113460068D01*
X114719608Y-113491838D01*
X114732489Y-113523719D01*
X114734978Y-113528402D01*
X114781391Y-113614239D01*
X114800641Y-113642778D01*
X114819489Y-113671581D01*
X114822837Y-113675685D01*
X114822841Y-113675691D01*
X114822846Y-113675696D01*
X114885042Y-113750879D01*
X114909497Y-113775164D01*
X114933550Y-113799727D01*
X114937636Y-113803107D01*
X115013257Y-113864783D01*
X115041942Y-113883842D01*
X115070336Y-113903283D01*
X115074990Y-113905799D01*
X115074996Y-113905803D01*
X115075001Y-113905805D01*
X115161162Y-113951617D01*
X115193010Y-113964744D01*
X115224623Y-113978294D01*
X115229682Y-113979860D01*
X115229692Y-113979864D01*
X115229703Y-113979866D01*
X115323107Y-114008067D01*
X115356866Y-114014752D01*
X115390548Y-114021911D01*
X115395823Y-114022466D01*
X115492940Y-114031988D01*
X115508872Y-114031988D01*
X115524697Y-114033763D01*
X115530000Y-114033800D01*
X117779568Y-114033800D01*
X118172483Y-114950540D01*
X118186891Y-114976747D01*
X118200291Y-115003473D01*
X118203151Y-115007939D01*
X119103064Y-116392118D01*
X119124572Y-116419032D01*
X119145666Y-116446198D01*
X119149338Y-116450024D01*
X120300967Y-117633047D01*
X120327306Y-117655282D01*
X120353262Y-117677822D01*
X120357600Y-117680856D01*
X120357607Y-117680862D01*
X120357614Y-117680866D01*
X121717088Y-118617669D01*
X121747199Y-118634339D01*
X121777083Y-118651434D01*
X121781936Y-118653571D01*
X123227880Y-119278400D01*
X111861600Y-119278400D01*
X111861600Y-92710000D01*
X146759726Y-92710000D01*
X146759726Y-94234000D01*
X146763597Y-94282538D01*
X146789091Y-94364864D01*
X146836512Y-94436828D01*
X146902104Y-94492732D01*
X146980674Y-94528148D01*
X147066000Y-94540274D01*
X147436627Y-94540274D01*
X147440191Y-94552078D01*
X147450663Y-94588124D01*
X147451646Y-94590021D01*
X147452264Y-94592067D01*
X147469902Y-94625239D01*
X147487165Y-94658541D01*
X147488497Y-94660209D01*
X147489501Y-94662098D01*
X147513251Y-94691219D01*
X147536648Y-94720528D01*
X147539578Y-94723499D01*
X147539630Y-94723563D01*
X147539689Y-94723612D01*
X147540632Y-94724568D01*
X147642233Y-94826170D01*
X147671238Y-94849994D01*
X147699998Y-94874127D01*
X147701873Y-94875158D01*
X147703523Y-94876513D01*
X147736593Y-94894245D01*
X147769503Y-94912338D01*
X147771539Y-94912984D01*
X147773423Y-94913994D01*
X147809334Y-94924973D01*
X147845106Y-94936320D01*
X147847229Y-94936558D01*
X147849273Y-94937183D01*
X147886664Y-94940981D01*
X147911133Y-94943726D01*
X147066000Y-94943726D01*
X147017462Y-94947597D01*
X146935136Y-94973091D01*
X146863172Y-95020512D01*
X146807268Y-95086104D01*
X146771852Y-95164674D01*
X146759726Y-95250000D01*
X146759726Y-96774000D01*
X146763597Y-96822538D01*
X146789091Y-96904864D01*
X146836512Y-96976828D01*
X146902104Y-97032732D01*
X146980674Y-97068148D01*
X147066000Y-97080274D01*
X147436627Y-97080274D01*
X147440191Y-97092078D01*
X147450663Y-97128124D01*
X147451646Y-97130021D01*
X147452264Y-97132067D01*
X147469902Y-97165239D01*
X147487165Y-97198541D01*
X147488497Y-97200209D01*
X147489501Y-97202098D01*
X147513251Y-97231219D01*
X147536648Y-97260528D01*
X147539578Y-97263499D01*
X147539630Y-97263563D01*
X147539689Y-97263612D01*
X147540632Y-97264568D01*
X150288632Y-100012568D01*
X150317607Y-100036368D01*
X150346397Y-100060526D01*
X150348272Y-100061557D01*
X150349922Y-100062912D01*
X150382992Y-100080644D01*
X150415902Y-100098737D01*
X150417938Y-100099383D01*
X150419822Y-100100393D01*
X150455733Y-100111372D01*
X150491505Y-100122719D01*
X150493628Y-100122957D01*
X150495672Y-100123582D01*
X150533063Y-100127380D01*
X150570326Y-100131560D01*
X150574496Y-100131589D01*
X150574581Y-100131598D01*
X150574660Y-100131591D01*
X150576000Y-100131600D01*
X152967649Y-100131600D01*
X153009600Y-100175041D01*
X153009600Y-102053856D01*
X153013261Y-102091198D01*
X153016535Y-102128613D01*
X153017131Y-102130666D01*
X153017340Y-102132793D01*
X153028191Y-102168734D01*
X153038663Y-102204780D01*
X153039646Y-102206677D01*
X153040264Y-102208723D01*
X153057902Y-102241895D01*
X153075165Y-102275197D01*
X153076497Y-102276865D01*
X153077501Y-102278754D01*
X153101251Y-102307875D01*
X153124648Y-102337184D01*
X153127578Y-102340155D01*
X153127630Y-102340219D01*
X153127689Y-102340268D01*
X153128632Y-102341224D01*
X153881674Y-103094266D01*
X153880549Y-103174853D01*
X153901960Y-103291512D01*
X153945623Y-103401790D01*
X154009873Y-103501488D01*
X154092265Y-103586807D01*
X154189659Y-103654497D01*
X154298346Y-103701982D01*
X154414187Y-103727451D01*
X154532768Y-103729935D01*
X154649574Y-103709339D01*
X154760154Y-103666448D01*
X154860297Y-103602895D01*
X154946190Y-103521101D01*
X155014559Y-103424181D01*
X155062801Y-103315828D01*
X155089078Y-103200168D01*
X155090970Y-103064696D01*
X155067932Y-102948348D01*
X155022734Y-102838690D01*
X154957098Y-102739899D01*
X154873523Y-102655739D01*
X154775193Y-102589415D01*
X154665853Y-102543453D01*
X154549669Y-102519603D01*
X154455828Y-102518948D01*
X153822400Y-101885520D01*
X153822400Y-100173387D01*
X153876046Y-100122301D01*
X153944415Y-100025381D01*
X153992657Y-99917028D01*
X154018934Y-99801368D01*
X154020826Y-99665896D01*
X153997788Y-99549548D01*
X153952590Y-99439890D01*
X153886954Y-99341099D01*
X153803379Y-99256939D01*
X153705049Y-99190615D01*
X153595709Y-99144653D01*
X153479525Y-99120803D01*
X153360920Y-99119975D01*
X153244414Y-99142200D01*
X153134443Y-99186631D01*
X153035197Y-99251576D01*
X152966550Y-99318800D01*
X150744336Y-99318800D01*
X148505810Y-97080274D01*
X148590000Y-97080274D01*
X148638538Y-97076403D01*
X148720864Y-97050909D01*
X148792828Y-97003488D01*
X148848732Y-96937896D01*
X148884148Y-96859326D01*
X148896274Y-96774000D01*
X148896274Y-95250000D01*
X148892403Y-95201462D01*
X148866909Y-95119136D01*
X148819488Y-95047172D01*
X148753896Y-94991268D01*
X148675326Y-94955852D01*
X148600379Y-94945201D01*
X149587505Y-94945201D01*
X149557462Y-94947597D01*
X149475136Y-94973091D01*
X149403172Y-95020512D01*
X149347268Y-95086104D01*
X149311852Y-95164674D01*
X149299726Y-95250000D01*
X149299726Y-96774000D01*
X149303597Y-96822538D01*
X149329091Y-96904864D01*
X149376512Y-96976828D01*
X149442104Y-97032732D01*
X149520674Y-97068148D01*
X149606000Y-97080274D01*
X151130000Y-97080274D01*
X151178538Y-97076403D01*
X151260864Y-97050909D01*
X151332828Y-97003488D01*
X151388732Y-96937896D01*
X151424148Y-96859326D01*
X151436274Y-96774000D01*
X151436274Y-96240600D01*
X151841200Y-96240600D01*
X151841200Y-96804020D01*
X151852913Y-96862907D01*
X151875890Y-96918377D01*
X151909247Y-96968299D01*
X151951701Y-97010754D01*
X152001623Y-97044110D01*
X152057093Y-97067087D01*
X152115980Y-97078800D01*
X152679400Y-97078800D01*
X152755600Y-97002600D01*
X152755600Y-96164400D01*
X153060400Y-96164400D01*
X153060400Y-97002600D01*
X153136600Y-97078800D01*
X153700020Y-97078800D01*
X153758907Y-97067087D01*
X153814377Y-97044110D01*
X153864299Y-97010754D01*
X153906753Y-96968299D01*
X153940110Y-96918377D01*
X153963087Y-96862907D01*
X153974800Y-96804020D01*
X153974800Y-96240600D01*
X153898600Y-96164400D01*
X153060400Y-96164400D01*
X152755600Y-96164400D01*
X151917400Y-96164400D01*
X151841200Y-96240600D01*
X151436274Y-96240600D01*
X151436274Y-95518463D01*
X151603138Y-95351599D01*
X151841200Y-95351599D01*
X151841200Y-95783400D01*
X151917400Y-95859600D01*
X152755600Y-95859600D01*
X152755600Y-95839600D01*
X153060400Y-95839600D01*
X153060400Y-95859600D01*
X153898600Y-95859600D01*
X153974800Y-95783400D01*
X153974800Y-95347199D01*
X154087430Y-95327339D01*
X154198010Y-95284448D01*
X154298153Y-95220895D01*
X154384046Y-95139101D01*
X154452415Y-95042181D01*
X154500657Y-94933828D01*
X154526934Y-94818168D01*
X154528555Y-94702091D01*
X154785547Y-94959083D01*
X154785547Y-96630026D01*
X154726402Y-96687945D01*
X154659393Y-96785810D01*
X154612668Y-96894826D01*
X154588008Y-97010841D01*
X154586352Y-97129437D01*
X154607763Y-97246096D01*
X154651426Y-97356374D01*
X154715676Y-97456072D01*
X154798068Y-97541391D01*
X154895462Y-97609081D01*
X155004149Y-97656566D01*
X155119990Y-97682035D01*
X155238571Y-97684519D01*
X155355377Y-97663923D01*
X155465957Y-97621032D01*
X155566100Y-97557479D01*
X155651993Y-97475685D01*
X155720362Y-97378765D01*
X155768604Y-97270412D01*
X155794881Y-97154752D01*
X155796773Y-97019280D01*
X155773735Y-96902932D01*
X155728537Y-96793274D01*
X155662901Y-96694483D01*
X155598347Y-96629477D01*
X155598347Y-94790747D01*
X155594686Y-94753405D01*
X155591412Y-94715990D01*
X155590816Y-94713937D01*
X155590607Y-94711810D01*
X155579756Y-94675869D01*
X155569284Y-94639823D01*
X155568301Y-94637926D01*
X155567683Y-94635880D01*
X155550045Y-94602708D01*
X155532782Y-94569406D01*
X155531450Y-94567738D01*
X155530446Y-94565849D01*
X155506696Y-94536728D01*
X155483299Y-94507419D01*
X155480369Y-94504448D01*
X155480317Y-94504384D01*
X155480258Y-94504335D01*
X155479315Y-94503379D01*
X154160568Y-93184632D01*
X154131593Y-93160832D01*
X154102803Y-93136674D01*
X154100928Y-93135643D01*
X154099278Y-93134288D01*
X154066208Y-93116556D01*
X154033298Y-93098463D01*
X154031262Y-93097817D01*
X154029378Y-93096807D01*
X153993467Y-93085828D01*
X153976274Y-93080374D01*
X153976274Y-92710000D01*
X153972403Y-92661462D01*
X153946909Y-92579136D01*
X153899488Y-92507172D01*
X153833896Y-92451268D01*
X153755326Y-92415852D01*
X153670000Y-92403726D01*
X152146000Y-92403726D01*
X152097462Y-92407597D01*
X152015136Y-92433091D01*
X151943172Y-92480512D01*
X151887268Y-92546104D01*
X151851852Y-92624674D01*
X151839726Y-92710000D01*
X151839726Y-92997508D01*
X151817709Y-92988253D01*
X151701525Y-92964403D01*
X151582920Y-92963575D01*
X151466414Y-92985800D01*
X151436274Y-92997977D01*
X151436274Y-92710000D01*
X151432403Y-92661462D01*
X151406909Y-92579136D01*
X151359488Y-92507172D01*
X151293896Y-92451268D01*
X151215326Y-92415852D01*
X151130000Y-92403726D01*
X149606000Y-92403726D01*
X149557462Y-92407597D01*
X149475136Y-92433091D01*
X149403172Y-92480512D01*
X149347268Y-92546104D01*
X149311852Y-92624674D01*
X149299726Y-92710000D01*
X149299726Y-94132401D01*
X148896274Y-94132401D01*
X148896274Y-92710000D01*
X148892403Y-92661462D01*
X148866909Y-92579136D01*
X148819488Y-92507172D01*
X148753896Y-92451268D01*
X148675326Y-92415852D01*
X148590000Y-92403726D01*
X147066000Y-92403726D01*
X147017462Y-92407597D01*
X146935136Y-92433091D01*
X146863172Y-92480512D01*
X146807268Y-92546104D01*
X146771852Y-92624674D01*
X146759726Y-92710000D01*
X111861600Y-92710000D01*
X111861600Y-73761600D01*
X192938400Y-73761600D01*
X192938400Y-119278400D01*
G36*
X193399746Y-71843157D02*
X193745787Y-71947632D01*
X194064947Y-72117333D01*
X194345063Y-72345790D01*
X194575475Y-72624310D01*
X194747397Y-72942274D01*
X194854287Y-73287577D01*
X194895400Y-73678740D01*
X194895400Y-119346513D01*
X194856843Y-119739746D01*
X194752367Y-120085788D01*
X194582669Y-120404944D01*
X194354210Y-120685064D01*
X194075688Y-120915476D01*
X193757726Y-121087397D01*
X193412419Y-121194288D01*
X193021261Y-121235400D01*
X111793487Y-121235400D01*
X111400254Y-121196843D01*
X111054212Y-121092367D01*
X110735056Y-120922669D01*
X110454936Y-120694210D01*
X110224524Y-120415688D01*
X110052603Y-120097726D01*
X109945712Y-119752419D01*
X109904600Y-119361261D01*
X109904600Y-108654000D01*
X114345400Y-108654000D01*
X114345400Y-113154000D01*
X114345412Y-113154122D01*
X114345404Y-113156353D01*
X114345416Y-113159844D01*
X114348439Y-113189618D01*
X114348230Y-113219536D01*
X114349162Y-113229050D01*
X114359362Y-113326099D01*
X114371843Y-113386902D01*
X114383466Y-113447829D01*
X114386228Y-113456980D01*
X114415084Y-113550199D01*
X114439146Y-113607440D01*
X114462375Y-113664933D01*
X114466862Y-113673373D01*
X114513275Y-113759211D01*
X114547980Y-113810663D01*
X114581947Y-113862569D01*
X114587988Y-113869978D01*
X114650190Y-113945166D01*
X114694215Y-113988884D01*
X114737626Y-114033215D01*
X114744991Y-114039309D01*
X114820612Y-114100984D01*
X114872275Y-114135309D01*
X114923498Y-114170382D01*
X114931907Y-114174929D01*
X115018068Y-114220741D01*
X115075445Y-114244390D01*
X115132459Y-114268826D01*
X115141591Y-114271653D01*
X115235009Y-114299858D01*
X115295898Y-114311915D01*
X115356574Y-114324812D01*
X115366068Y-114325810D01*
X115366075Y-114325811D01*
X115366081Y-114325811D01*
X115463198Y-114335333D01*
X115491912Y-114335333D01*
X115520441Y-114338533D01*
X115530000Y-114338600D01*
X117578589Y-114338600D01*
X117892331Y-115070614D01*
X117918305Y-115117861D01*
X117942456Y-115166027D01*
X117947610Y-115174077D01*
X118847523Y-116558256D01*
X118886273Y-116606747D01*
X118924314Y-116655736D01*
X118930928Y-116662627D01*
X118930933Y-116662633D01*
X118930939Y-116662638D01*
X120082563Y-117845656D01*
X120129963Y-117885670D01*
X120176825Y-117926364D01*
X120184658Y-117931843D01*
X121544138Y-118868650D01*
X121598423Y-118898704D01*
X121652282Y-118929512D01*
X121661030Y-118933365D01*
X123176579Y-119588272D01*
X123235665Y-119607209D01*
X123294485Y-119626970D01*
X123303815Y-119629051D01*
X124917707Y-119977114D01*
X124979379Y-119984217D01*
X125040883Y-119992173D01*
X125050439Y-119992402D01*
X126701201Y-120020364D01*
X126763093Y-120015352D01*
X126824956Y-120011211D01*
X126834375Y-120009580D01*
X128459128Y-119716374D01*
X128518861Y-119699438D01*
X128578749Y-119683358D01*
X128587672Y-119679928D01*
X130124532Y-119076723D01*
X130179805Y-119048524D01*
X130235462Y-119021101D01*
X130243548Y-119016003D01*
X131633975Y-118125776D01*
X131682685Y-118087404D01*
X131731989Y-118049668D01*
X131738931Y-118043096D01*
X132929966Y-116899754D01*
X132970339Y-116852601D01*
X133011329Y-116806058D01*
X133016863Y-116798263D01*
X133963138Y-115445356D01*
X133993572Y-115391279D01*
X134024754Y-115337639D01*
X134028668Y-115328918D01*
X134694140Y-113817978D01*
X134713499Y-113758995D01*
X134733660Y-113700345D01*
X134735806Y-113691030D01*
X135095128Y-112079608D01*
X135102659Y-112018008D01*
X135111047Y-111956539D01*
X135111342Y-111946985D01*
X135150827Y-110296460D01*
X135146251Y-110234589D01*
X135142539Y-110172643D01*
X135140973Y-110163213D01*
X134859117Y-108536452D01*
X134842608Y-108476637D01*
X134826937Y-108416604D01*
X134823569Y-108407657D01*
X134231109Y-106866624D01*
X134203305Y-106811173D01*
X134176264Y-106755309D01*
X134171222Y-106747187D01*
X133290723Y-105350578D01*
X133252680Y-105301585D01*
X133215301Y-105252035D01*
X133208778Y-105245047D01*
X132073778Y-104046060D01*
X132026921Y-104005370D01*
X131980651Y-103964043D01*
X131972895Y-103958455D01*
X130626627Y-103002760D01*
X130572793Y-102971966D01*
X130519345Y-102940394D01*
X130510652Y-102936419D01*
X129004394Y-102260414D01*
X128945601Y-102240662D01*
X128887040Y-102220073D01*
X128877742Y-102217864D01*
X128877740Y-102217863D01*
X128877738Y-102217863D01*
X127268866Y-101847301D01*
X127207346Y-101839343D01*
X127145912Y-101830523D01*
X127136359Y-101830161D01*
X125486149Y-101779154D01*
X125424234Y-101783298D01*
X125362278Y-101786577D01*
X125352848Y-101788076D01*
X125352837Y-101788077D01*
X125352827Y-101788080D01*
X123724148Y-102058570D01*
X123664235Y-102074656D01*
X123604078Y-102089912D01*
X123595108Y-102093217D01*
X122049976Y-102674905D01*
X121994319Y-102702328D01*
X121938280Y-102728972D01*
X121930123Y-102733957D01*
X120527403Y-103604684D01*
X120478136Y-103642391D01*
X120428336Y-103679416D01*
X120421308Y-103685885D01*
X120421302Y-103685890D01*
X120421297Y-103685895D01*
X119214421Y-104812491D01*
X119173413Y-104859054D01*
X119131756Y-104905044D01*
X119126114Y-104912760D01*
X118161042Y-106252324D01*
X118129872Y-106305944D01*
X118097928Y-106359169D01*
X118093893Y-106367835D01*
X117590245Y-107469400D01*
X115530000Y-107469400D01*
X115529878Y-107469412D01*
X115527647Y-107469404D01*
X115524156Y-107469416D01*
X115494382Y-107472439D01*
X115464464Y-107472230D01*
X115454950Y-107473162D01*
X115357902Y-107483362D01*
X115297105Y-107495842D01*
X115236171Y-107507466D01*
X115227020Y-107510228D01*
X115133801Y-107539084D01*
X115076560Y-107563146D01*
X115019067Y-107586375D01*
X115010626Y-107590862D01*
X114924789Y-107637275D01*
X114873354Y-107671969D01*
X114821430Y-107705947D01*
X114814022Y-107711989D01*
X114738833Y-107774190D01*
X114695096Y-107818234D01*
X114650785Y-107861626D01*
X114644691Y-107868992D01*
X114583015Y-107944612D01*
X114548645Y-107996342D01*
X114513618Y-108047499D01*
X114509071Y-108055907D01*
X114463259Y-108142068D01*
X114439610Y-108199445D01*
X114415174Y-108256459D01*
X114412347Y-108265591D01*
X114384142Y-108359009D01*
X114372081Y-108419920D01*
X114359189Y-108480573D01*
X114358190Y-108490069D01*
X114358189Y-108490075D01*
X114358189Y-108490080D01*
X114348667Y-108587198D01*
X114348667Y-108615912D01*
X114345467Y-108644441D01*
X114345400Y-108654000D01*
X109904600Y-108654000D01*
X109904600Y-92710000D01*
X146453451Y-92710000D01*
X146453451Y-94234000D01*
X146461192Y-94331076D01*
X146512182Y-94495729D01*
X146607024Y-94639657D01*
X146730433Y-94744838D01*
X146660343Y-94791024D01*
X146548536Y-94922208D01*
X146477702Y-95079348D01*
X146453451Y-95250000D01*
X146453451Y-96774000D01*
X146461192Y-96871076D01*
X146512182Y-97035729D01*
X146607024Y-97179657D01*
X146738208Y-97291464D01*
X146895348Y-97362298D01*
X147066000Y-97386549D01*
X147248493Y-97386549D01*
X147277151Y-97421687D01*
X147318133Y-97473024D01*
X147323262Y-97478224D01*
X147323353Y-97478336D01*
X147323457Y-97478422D01*
X147325106Y-97480094D01*
X150073106Y-100228094D01*
X150123806Y-100269739D01*
X150174195Y-100312021D01*
X150177476Y-100313825D01*
X150180363Y-100316196D01*
X150238238Y-100347228D01*
X150295829Y-100378889D01*
X150299393Y-100380019D01*
X150302689Y-100381787D01*
X150365504Y-100400992D01*
X150428133Y-100420859D01*
X150431851Y-100421276D01*
X150435426Y-100422369D01*
X150500772Y-100429007D01*
X150566070Y-100436331D01*
X150573377Y-100436382D01*
X150573517Y-100436396D01*
X150573648Y-100436384D01*
X150576000Y-100436400D01*
X152704800Y-100436400D01*
X152704800Y-102053856D01*
X152711207Y-102119202D01*
X152716936Y-102184682D01*
X152717980Y-102188277D01*
X152718345Y-102191995D01*
X152737321Y-102254846D01*
X152755661Y-102317973D01*
X152757382Y-102321294D01*
X152758463Y-102324873D01*
X152789299Y-102382868D01*
X152819537Y-102441203D01*
X152821870Y-102444126D01*
X152823626Y-102447428D01*
X152865151Y-102498343D01*
X152906133Y-102549680D01*
X152911262Y-102554880D01*
X152911353Y-102554992D01*
X152911457Y-102555078D01*
X152913106Y-102556750D01*
X153579510Y-103223154D01*
X153607550Y-103375933D01*
X153673217Y-103541788D01*
X153769847Y-103691730D01*
X153893762Y-103820047D01*
X154040240Y-103921852D01*
X154203702Y-103993267D01*
X154377923Y-104031571D01*
X154556265Y-104035307D01*
X154731937Y-104004332D01*
X154898247Y-103939824D01*
X155048859Y-103844243D01*
X155178038Y-103721227D01*
X155280863Y-103575463D01*
X155353418Y-103412504D01*
X155392938Y-103238555D01*
X155395783Y-103034809D01*
X155361135Y-102859825D01*
X155293159Y-102694903D01*
X155194444Y-102546325D01*
X155068750Y-102419750D01*
X154920865Y-102320000D01*
X154756421Y-102250875D01*
X154583262Y-102215330D01*
X154127200Y-101759268D01*
X154127200Y-100295059D01*
X154210719Y-100176663D01*
X154283274Y-100013704D01*
X154322794Y-99839755D01*
X154325639Y-99636009D01*
X154290991Y-99461025D01*
X154223015Y-99296103D01*
X154124300Y-99147525D01*
X153998606Y-99020950D01*
X153850721Y-98921200D01*
X153686277Y-98852075D01*
X153511539Y-98816206D01*
X153333162Y-98814961D01*
X153157940Y-98848386D01*
X152992547Y-98915209D01*
X152843283Y-99012884D01*
X152842143Y-99014000D01*
X150870588Y-99014000D01*
X149038866Y-97182278D01*
X149100838Y-97109567D01*
X149147024Y-97179657D01*
X149278208Y-97291464D01*
X149435348Y-97362298D01*
X149606000Y-97386549D01*
X151130000Y-97386549D01*
X151227076Y-97378808D01*
X151391729Y-97327818D01*
X151535657Y-97232976D01*
X151647464Y-97101792D01*
X151718298Y-96944652D01*
X151742549Y-96774000D01*
X151742549Y-96240600D01*
X151841200Y-96240600D01*
X151841200Y-96804020D01*
X151852913Y-96862907D01*
X151875890Y-96918377D01*
X151909247Y-96968299D01*
X151951701Y-97010754D01*
X152001623Y-97044110D01*
X152057093Y-97067087D01*
X152115980Y-97078800D01*
X152679400Y-97078800D01*
X152755600Y-97002600D01*
X152755600Y-96164400D01*
X153060400Y-96164400D01*
X153060400Y-97002600D01*
X153136600Y-97078800D01*
X153700020Y-97078800D01*
X153758907Y-97067087D01*
X153814377Y-97044110D01*
X153864299Y-97010754D01*
X153906753Y-96968299D01*
X153940110Y-96918377D01*
X153963087Y-96862907D01*
X153974800Y-96804020D01*
X153974800Y-96240600D01*
X153898600Y-96164400D01*
X153060400Y-96164400D01*
X152755600Y-96164400D01*
X151917400Y-96164400D01*
X151841200Y-96240600D01*
X151742549Y-96240600D01*
X151742549Y-95656399D01*
X151841200Y-95656399D01*
X151841200Y-95783400D01*
X151917400Y-95859600D01*
X152755600Y-95859600D01*
X152755600Y-95839600D01*
X153060400Y-95839600D01*
X153060400Y-95859600D01*
X153898600Y-95859600D01*
X153974800Y-95783400D01*
X153974800Y-95652902D01*
X153994121Y-95653307D01*
X154169793Y-95622332D01*
X154336103Y-95557824D01*
X154480747Y-95466030D01*
X154480747Y-96507191D01*
X154391002Y-96638261D01*
X154320730Y-96802218D01*
X154283642Y-96976701D01*
X154281152Y-97155066D01*
X154313353Y-97330517D01*
X154379020Y-97496372D01*
X154475650Y-97646314D01*
X154599565Y-97774631D01*
X154746043Y-97876436D01*
X154909505Y-97947851D01*
X155083726Y-97986155D01*
X155262068Y-97989891D01*
X155437740Y-97958916D01*
X155604050Y-97894408D01*
X155754662Y-97798827D01*
X155883841Y-97675811D01*
X155986666Y-97530047D01*
X156059221Y-97367088D01*
X156098741Y-97193139D01*
X156101586Y-96989393D01*
X156066938Y-96814409D01*
X155998962Y-96649487D01*
X155903147Y-96505274D01*
X155903147Y-94790747D01*
X155896740Y-94725401D01*
X155891011Y-94659921D01*
X155889967Y-94656326D01*
X155889602Y-94652608D01*
X155870626Y-94589757D01*
X155852286Y-94526630D01*
X155850565Y-94523309D01*
X155849484Y-94519730D01*
X155818648Y-94461735D01*
X155788410Y-94403400D01*
X155786077Y-94400477D01*
X155784321Y-94397175D01*
X155742796Y-94346260D01*
X155701814Y-94294923D01*
X155696685Y-94289723D01*
X155696594Y-94289611D01*
X155696490Y-94289525D01*
X155694841Y-94287853D01*
X154376094Y-92969106D01*
X154325372Y-92927442D01*
X154282549Y-92891509D01*
X154282549Y-92710000D01*
X154274808Y-92612924D01*
X154223818Y-92448271D01*
X154128976Y-92304343D01*
X153997792Y-92192536D01*
X153840652Y-92121702D01*
X153670000Y-92097451D01*
X152146000Y-92097451D01*
X152048924Y-92105192D01*
X151884271Y-92156182D01*
X151740343Y-92251024D01*
X151635162Y-92374433D01*
X151588976Y-92304343D01*
X151457792Y-92192536D01*
X151300652Y-92121702D01*
X151130000Y-92097451D01*
X149606000Y-92097451D01*
X149508924Y-92105192D01*
X149344271Y-92156182D01*
X149200343Y-92251024D01*
X149095162Y-92374433D01*
X149048976Y-92304343D01*
X148917792Y-92192536D01*
X148760652Y-92121702D01*
X148590000Y-92097451D01*
X147066000Y-92097451D01*
X146968924Y-92105192D01*
X146804271Y-92156182D01*
X146660343Y-92251024D01*
X146548536Y-92382208D01*
X146477702Y-92539348D01*
X146453451Y-92710000D01*
X109904600Y-92710000D01*
X109904600Y-73693486D01*
X109943157Y-73300254D01*
X110047632Y-72954213D01*
X110217333Y-72635053D01*
X110445790Y-72354937D01*
X110724310Y-72124525D01*
X111042274Y-71952603D01*
X111387577Y-71845713D01*
X111778740Y-71804600D01*
X193006514Y-71804600D01*
X193399746Y-71843157D01*
X193399746Y-71843157D01*
G37*
X193399746Y-71843157D02*
X193745787Y-71947632D01*
X194064947Y-72117333D01*
X194345063Y-72345790D01*
X194575475Y-72624310D01*
X194747397Y-72942274D01*
X194854287Y-73287577D01*
X194895400Y-73678740D01*
X194895400Y-119346513D01*
X194856843Y-119739746D01*
X194752367Y-120085788D01*
X194582669Y-120404944D01*
X194354210Y-120685064D01*
X194075688Y-120915476D01*
X193757726Y-121087397D01*
X193412419Y-121194288D01*
X193021261Y-121235400D01*
X111793487Y-121235400D01*
X111400254Y-121196843D01*
X111054212Y-121092367D01*
X110735056Y-120922669D01*
X110454936Y-120694210D01*
X110224524Y-120415688D01*
X110052603Y-120097726D01*
X109945712Y-119752419D01*
X109904600Y-119361261D01*
X109904600Y-108654000D01*
X114345400Y-108654000D01*
X114345400Y-113154000D01*
X114345412Y-113154122D01*
X114345404Y-113156353D01*
X114345416Y-113159844D01*
X114348439Y-113189618D01*
X114348230Y-113219536D01*
X114349162Y-113229050D01*
X114359362Y-113326099D01*
X114371843Y-113386902D01*
X114383466Y-113447829D01*
X114386228Y-113456980D01*
X114415084Y-113550199D01*
X114439146Y-113607440D01*
X114462375Y-113664933D01*
X114466862Y-113673373D01*
X114513275Y-113759211D01*
X114547980Y-113810663D01*
X114581947Y-113862569D01*
X114587988Y-113869978D01*
X114650190Y-113945166D01*
X114694215Y-113988884D01*
X114737626Y-114033215D01*
X114744991Y-114039309D01*
X114820612Y-114100984D01*
X114872275Y-114135309D01*
X114923498Y-114170382D01*
X114931907Y-114174929D01*
X115018068Y-114220741D01*
X115075445Y-114244390D01*
X115132459Y-114268826D01*
X115141591Y-114271653D01*
X115235009Y-114299858D01*
X115295898Y-114311915D01*
X115356574Y-114324812D01*
X115366068Y-114325810D01*
X115366075Y-114325811D01*
X115366081Y-114325811D01*
X115463198Y-114335333D01*
X115491912Y-114335333D01*
X115520441Y-114338533D01*
X115530000Y-114338600D01*
X117578589Y-114338600D01*
X117892331Y-115070614D01*
X117918305Y-115117861D01*
X117942456Y-115166027D01*
X117947610Y-115174077D01*
X118847523Y-116558256D01*
X118886273Y-116606747D01*
X118924314Y-116655736D01*
X118930928Y-116662627D01*
X118930933Y-116662633D01*
X118930939Y-116662638D01*
X120082563Y-117845656D01*
X120129963Y-117885670D01*
X120176825Y-117926364D01*
X120184658Y-117931843D01*
X121544138Y-118868650D01*
X121598423Y-118898704D01*
X121652282Y-118929512D01*
X121661030Y-118933365D01*
X123176579Y-119588272D01*
X123235665Y-119607209D01*
X123294485Y-119626970D01*
X123303815Y-119629051D01*
X124917707Y-119977114D01*
X124979379Y-119984217D01*
X125040883Y-119992173D01*
X125050439Y-119992402D01*
X126701201Y-120020364D01*
X126763093Y-120015352D01*
X126824956Y-120011211D01*
X126834375Y-120009580D01*
X128459128Y-119716374D01*
X128518861Y-119699438D01*
X128578749Y-119683358D01*
X128587672Y-119679928D01*
X130124532Y-119076723D01*
X130179805Y-119048524D01*
X130235462Y-119021101D01*
X130243548Y-119016003D01*
X131633975Y-118125776D01*
X131682685Y-118087404D01*
X131731989Y-118049668D01*
X131738931Y-118043096D01*
X132929966Y-116899754D01*
X132970339Y-116852601D01*
X133011329Y-116806058D01*
X133016863Y-116798263D01*
X133963138Y-115445356D01*
X133993572Y-115391279D01*
X134024754Y-115337639D01*
X134028668Y-115328918D01*
X134694140Y-113817978D01*
X134713499Y-113758995D01*
X134733660Y-113700345D01*
X134735806Y-113691030D01*
X135095128Y-112079608D01*
X135102659Y-112018008D01*
X135111047Y-111956539D01*
X135111342Y-111946985D01*
X135150827Y-110296460D01*
X135146251Y-110234589D01*
X135142539Y-110172643D01*
X135140973Y-110163213D01*
X134859117Y-108536452D01*
X134842608Y-108476637D01*
X134826937Y-108416604D01*
X134823569Y-108407657D01*
X134231109Y-106866624D01*
X134203305Y-106811173D01*
X134176264Y-106755309D01*
X134171222Y-106747187D01*
X133290723Y-105350578D01*
X133252680Y-105301585D01*
X133215301Y-105252035D01*
X133208778Y-105245047D01*
X132073778Y-104046060D01*
X132026921Y-104005370D01*
X131980651Y-103964043D01*
X131972895Y-103958455D01*
X130626627Y-103002760D01*
X130572793Y-102971966D01*
X130519345Y-102940394D01*
X130510652Y-102936419D01*
X129004394Y-102260414D01*
X128945601Y-102240662D01*
X128887040Y-102220073D01*
X128877742Y-102217864D01*
X128877740Y-102217863D01*
X128877738Y-102217863D01*
X127268866Y-101847301D01*
X127207346Y-101839343D01*
X127145912Y-101830523D01*
X127136359Y-101830161D01*
X125486149Y-101779154D01*
X125424234Y-101783298D01*
X125362278Y-101786577D01*
X125352848Y-101788076D01*
X125352837Y-101788077D01*
X125352827Y-101788080D01*
X123724148Y-102058570D01*
X123664235Y-102074656D01*
X123604078Y-102089912D01*
X123595108Y-102093217D01*
X122049976Y-102674905D01*
X121994319Y-102702328D01*
X121938280Y-102728972D01*
X121930123Y-102733957D01*
X120527403Y-103604684D01*
X120478136Y-103642391D01*
X120428336Y-103679416D01*
X120421308Y-103685885D01*
X120421302Y-103685890D01*
X120421297Y-103685895D01*
X119214421Y-104812491D01*
X119173413Y-104859054D01*
X119131756Y-104905044D01*
X119126114Y-104912760D01*
X118161042Y-106252324D01*
X118129872Y-106305944D01*
X118097928Y-106359169D01*
X118093893Y-106367835D01*
X117590245Y-107469400D01*
X115530000Y-107469400D01*
X115529878Y-107469412D01*
X115527647Y-107469404D01*
X115524156Y-107469416D01*
X115494382Y-107472439D01*
X115464464Y-107472230D01*
X115454950Y-107473162D01*
X115357902Y-107483362D01*
X115297105Y-107495842D01*
X115236171Y-107507466D01*
X115227020Y-107510228D01*
X115133801Y-107539084D01*
X115076560Y-107563146D01*
X115019067Y-107586375D01*
X115010626Y-107590862D01*
X114924789Y-107637275D01*
X114873354Y-107671969D01*
X114821430Y-107705947D01*
X114814022Y-107711989D01*
X114738833Y-107774190D01*
X114695096Y-107818234D01*
X114650785Y-107861626D01*
X114644691Y-107868992D01*
X114583015Y-107944612D01*
X114548645Y-107996342D01*
X114513618Y-108047499D01*
X114509071Y-108055907D01*
X114463259Y-108142068D01*
X114439610Y-108199445D01*
X114415174Y-108256459D01*
X114412347Y-108265591D01*
X114384142Y-108359009D01*
X114372081Y-108419920D01*
X114359189Y-108480573D01*
X114358190Y-108490069D01*
X114358189Y-108490075D01*
X114358189Y-108490080D01*
X114348667Y-108587198D01*
X114348667Y-108615912D01*
X114345467Y-108644441D01*
X114345400Y-108654000D01*
X109904600Y-108654000D01*
X109904600Y-92710000D01*
X146453451Y-92710000D01*
X146453451Y-94234000D01*
X146461192Y-94331076D01*
X146512182Y-94495729D01*
X146607024Y-94639657D01*
X146730433Y-94744838D01*
X146660343Y-94791024D01*
X146548536Y-94922208D01*
X146477702Y-95079348D01*
X146453451Y-95250000D01*
X146453451Y-96774000D01*
X146461192Y-96871076D01*
X146512182Y-97035729D01*
X146607024Y-97179657D01*
X146738208Y-97291464D01*
X146895348Y-97362298D01*
X147066000Y-97386549D01*
X147248493Y-97386549D01*
X147277151Y-97421687D01*
X147318133Y-97473024D01*
X147323262Y-97478224D01*
X147323353Y-97478336D01*
X147323457Y-97478422D01*
X147325106Y-97480094D01*
X150073106Y-100228094D01*
X150123806Y-100269739D01*
X150174195Y-100312021D01*
X150177476Y-100313825D01*
X150180363Y-100316196D01*
X150238238Y-100347228D01*
X150295829Y-100378889D01*
X150299393Y-100380019D01*
X150302689Y-100381787D01*
X150365504Y-100400992D01*
X150428133Y-100420859D01*
X150431851Y-100421276D01*
X150435426Y-100422369D01*
X150500772Y-100429007D01*
X150566070Y-100436331D01*
X150573377Y-100436382D01*
X150573517Y-100436396D01*
X150573648Y-100436384D01*
X150576000Y-100436400D01*
X152704800Y-100436400D01*
X152704800Y-102053856D01*
X152711207Y-102119202D01*
X152716936Y-102184682D01*
X152717980Y-102188277D01*
X152718345Y-102191995D01*
X152737321Y-102254846D01*
X152755661Y-102317973D01*
X152757382Y-102321294D01*
X152758463Y-102324873D01*
X152789299Y-102382868D01*
X152819537Y-102441203D01*
X152821870Y-102444126D01*
X152823626Y-102447428D01*
X152865151Y-102498343D01*
X152906133Y-102549680D01*
X152911262Y-102554880D01*
X152911353Y-102554992D01*
X152911457Y-102555078D01*
X152913106Y-102556750D01*
X153579510Y-103223154D01*
X153607550Y-103375933D01*
X153673217Y-103541788D01*
X153769847Y-103691730D01*
X153893762Y-103820047D01*
X154040240Y-103921852D01*
X154203702Y-103993267D01*
X154377923Y-104031571D01*
X154556265Y-104035307D01*
X154731937Y-104004332D01*
X154898247Y-103939824D01*
X155048859Y-103844243D01*
X155178038Y-103721227D01*
X155280863Y-103575463D01*
X155353418Y-103412504D01*
X155392938Y-103238555D01*
X155395783Y-103034809D01*
X155361135Y-102859825D01*
X155293159Y-102694903D01*
X155194444Y-102546325D01*
X155068750Y-102419750D01*
X154920865Y-102320000D01*
X154756421Y-102250875D01*
X154583262Y-102215330D01*
X154127200Y-101759268D01*
X154127200Y-100295059D01*
X154210719Y-100176663D01*
X154283274Y-100013704D01*
X154322794Y-99839755D01*
X154325639Y-99636009D01*
X154290991Y-99461025D01*
X154223015Y-99296103D01*
X154124300Y-99147525D01*
X153998606Y-99020950D01*
X153850721Y-98921200D01*
X153686277Y-98852075D01*
X153511539Y-98816206D01*
X153333162Y-98814961D01*
X153157940Y-98848386D01*
X152992547Y-98915209D01*
X152843283Y-99012884D01*
X152842143Y-99014000D01*
X150870588Y-99014000D01*
X149038866Y-97182278D01*
X149100838Y-97109567D01*
X149147024Y-97179657D01*
X149278208Y-97291464D01*
X149435348Y-97362298D01*
X149606000Y-97386549D01*
X151130000Y-97386549D01*
X151227076Y-97378808D01*
X151391729Y-97327818D01*
X151535657Y-97232976D01*
X151647464Y-97101792D01*
X151718298Y-96944652D01*
X151742549Y-96774000D01*
X151742549Y-96240600D01*
X151841200Y-96240600D01*
X151841200Y-96804020D01*
X151852913Y-96862907D01*
X151875890Y-96918377D01*
X151909247Y-96968299D01*
X151951701Y-97010754D01*
X152001623Y-97044110D01*
X152057093Y-97067087D01*
X152115980Y-97078800D01*
X152679400Y-97078800D01*
X152755600Y-97002600D01*
X152755600Y-96164400D01*
X153060400Y-96164400D01*
X153060400Y-97002600D01*
X153136600Y-97078800D01*
X153700020Y-97078800D01*
X153758907Y-97067087D01*
X153814377Y-97044110D01*
X153864299Y-97010754D01*
X153906753Y-96968299D01*
X153940110Y-96918377D01*
X153963087Y-96862907D01*
X153974800Y-96804020D01*
X153974800Y-96240600D01*
X153898600Y-96164400D01*
X153060400Y-96164400D01*
X152755600Y-96164400D01*
X151917400Y-96164400D01*
X151841200Y-96240600D01*
X151742549Y-96240600D01*
X151742549Y-95656399D01*
X151841200Y-95656399D01*
X151841200Y-95783400D01*
X151917400Y-95859600D01*
X152755600Y-95859600D01*
X152755600Y-95839600D01*
X153060400Y-95839600D01*
X153060400Y-95859600D01*
X153898600Y-95859600D01*
X153974800Y-95783400D01*
X153974800Y-95652902D01*
X153994121Y-95653307D01*
X154169793Y-95622332D01*
X154336103Y-95557824D01*
X154480747Y-95466030D01*
X154480747Y-96507191D01*
X154391002Y-96638261D01*
X154320730Y-96802218D01*
X154283642Y-96976701D01*
X154281152Y-97155066D01*
X154313353Y-97330517D01*
X154379020Y-97496372D01*
X154475650Y-97646314D01*
X154599565Y-97774631D01*
X154746043Y-97876436D01*
X154909505Y-97947851D01*
X155083726Y-97986155D01*
X155262068Y-97989891D01*
X155437740Y-97958916D01*
X155604050Y-97894408D01*
X155754662Y-97798827D01*
X155883841Y-97675811D01*
X155986666Y-97530047D01*
X156059221Y-97367088D01*
X156098741Y-97193139D01*
X156101586Y-96989393D01*
X156066938Y-96814409D01*
X155998962Y-96649487D01*
X155903147Y-96505274D01*
X155903147Y-94790747D01*
X155896740Y-94725401D01*
X155891011Y-94659921D01*
X155889967Y-94656326D01*
X155889602Y-94652608D01*
X155870626Y-94589757D01*
X155852286Y-94526630D01*
X155850565Y-94523309D01*
X155849484Y-94519730D01*
X155818648Y-94461735D01*
X155788410Y-94403400D01*
X155786077Y-94400477D01*
X155784321Y-94397175D01*
X155742796Y-94346260D01*
X155701814Y-94294923D01*
X155696685Y-94289723D01*
X155696594Y-94289611D01*
X155696490Y-94289525D01*
X155694841Y-94287853D01*
X154376094Y-92969106D01*
X154325372Y-92927442D01*
X154282549Y-92891509D01*
X154282549Y-92710000D01*
X154274808Y-92612924D01*
X154223818Y-92448271D01*
X154128976Y-92304343D01*
X153997792Y-92192536D01*
X153840652Y-92121702D01*
X153670000Y-92097451D01*
X152146000Y-92097451D01*
X152048924Y-92105192D01*
X151884271Y-92156182D01*
X151740343Y-92251024D01*
X151635162Y-92374433D01*
X151588976Y-92304343D01*
X151457792Y-92192536D01*
X151300652Y-92121702D01*
X151130000Y-92097451D01*
X149606000Y-92097451D01*
X149508924Y-92105192D01*
X149344271Y-92156182D01*
X149200343Y-92251024D01*
X149095162Y-92374433D01*
X149048976Y-92304343D01*
X148917792Y-92192536D01*
X148760652Y-92121702D01*
X148590000Y-92097451D01*
X147066000Y-92097451D01*
X146968924Y-92105192D01*
X146804271Y-92156182D01*
X146660343Y-92251024D01*
X146548536Y-92382208D01*
X146477702Y-92539348D01*
X146453451Y-92710000D01*
X109904600Y-92710000D01*
X109904600Y-73693486D01*
X109943157Y-73300254D01*
X110047632Y-72954213D01*
X110217333Y-72635053D01*
X110445790Y-72354937D01*
X110724310Y-72124525D01*
X111042274Y-71952603D01*
X111387577Y-71845713D01*
X111778740Y-71804600D01*
X193006514Y-71804600D01*
X193399746Y-71843157D01*
M02*
