G04 #@! TF.FileFunction,Legend,Top*
%FSLAX46Y46*%
G04 Gerber Fmt 4.6, Leading zero omitted, Abs format (unit mm)*
G04 Created by KiCad (PCBNEW 4.0.5+dfsg1-4) date Mon Nov 20 15:47:14 2017*
%MOMM*%
%LPD*%
G01*
G04 APERTURE LIST*
%ADD10C,0.100000*%
%ADD11C,0.300000*%
%ADD12C,0.150000*%
%ADD13C,0.010000*%
G04 APERTURE END LIST*
D10*
D11*
X162967143Y-118394286D02*
X163995714Y-118394286D01*
X163256428Y-120194286D02*
X163481428Y-118394286D01*
X165142143Y-120194286D02*
X165260000Y-119251429D01*
X165195715Y-119080000D01*
X165035000Y-118994286D01*
X164692143Y-118994286D01*
X164510000Y-119080000D01*
X165152858Y-120108571D02*
X164970714Y-120194286D01*
X164542143Y-120194286D01*
X164381429Y-120108571D01*
X164317143Y-119937143D01*
X164338572Y-119765714D01*
X164445714Y-119594286D01*
X164627858Y-119508571D01*
X165056429Y-119508571D01*
X165238572Y-119422857D01*
X166149285Y-118994286D02*
X165924285Y-120794286D01*
X166138571Y-119080000D02*
X166320714Y-118994286D01*
X166663571Y-118994286D01*
X166824286Y-119080000D01*
X166899286Y-119165714D01*
X166963571Y-119337143D01*
X166899285Y-119851429D01*
X166792143Y-120022857D01*
X166695715Y-120108571D01*
X166513571Y-120194286D01*
X166170714Y-120194286D01*
X166010000Y-120108571D01*
X169567143Y-118394286D02*
X169910000Y-118394286D01*
X170070714Y-118480000D01*
X170220714Y-118651429D01*
X170263571Y-118994286D01*
X170188571Y-119594286D01*
X170060000Y-119937143D01*
X169867143Y-120108571D01*
X169685000Y-120194286D01*
X169342143Y-120194286D01*
X169181429Y-120108571D01*
X169031428Y-119937143D01*
X168988571Y-119594286D01*
X169063571Y-118994286D01*
X169192142Y-118651429D01*
X169385000Y-118480000D01*
X169567143Y-118394286D01*
X170884999Y-120194286D02*
X171034999Y-118994286D01*
X170992142Y-119337143D02*
X171099286Y-119165714D01*
X171195714Y-119080000D01*
X171377857Y-118994286D01*
X171549285Y-118994286D01*
X173295715Y-120108571D02*
X173542143Y-120194286D01*
X173970714Y-120194286D01*
X174152858Y-120108571D01*
X174249286Y-120022857D01*
X174356429Y-119851429D01*
X174377858Y-119680000D01*
X174313572Y-119508571D01*
X174238572Y-119422857D01*
X174077857Y-119337143D01*
X173745714Y-119251429D01*
X173585001Y-119165714D01*
X173510000Y-119080000D01*
X173445715Y-118908571D01*
X173467143Y-118737143D01*
X173574286Y-118565714D01*
X173670715Y-118480000D01*
X173852857Y-118394286D01*
X174281429Y-118394286D01*
X174527858Y-118480000D01*
X175867144Y-120108571D02*
X175685000Y-120194286D01*
X175342143Y-120194286D01*
X175181430Y-120108571D01*
X175106429Y-120022857D01*
X175042143Y-119851429D01*
X175106429Y-119337143D01*
X175213572Y-119165714D01*
X175310001Y-119080000D01*
X175492143Y-118994286D01*
X175835000Y-118994286D01*
X175995715Y-119080000D01*
X177399286Y-120194286D02*
X177517143Y-119251429D01*
X177452858Y-119080000D01*
X177292143Y-118994286D01*
X176949286Y-118994286D01*
X176767143Y-119080000D01*
X177410001Y-120108571D02*
X177227857Y-120194286D01*
X176799286Y-120194286D01*
X176638572Y-120108571D01*
X176574286Y-119937143D01*
X176595715Y-119765714D01*
X176702857Y-119594286D01*
X176885001Y-119508571D01*
X177313572Y-119508571D01*
X177495715Y-119422857D01*
X178406428Y-118994286D02*
X178256428Y-120194286D01*
X178385000Y-119165714D02*
X178481429Y-119080000D01*
X178663571Y-118994286D01*
X178920714Y-118994286D01*
X179081429Y-119080000D01*
X179145714Y-119251429D01*
X179027857Y-120194286D01*
X182435000Y-120365714D02*
X182274286Y-120280000D01*
X182124286Y-120108571D01*
X181899285Y-119851429D01*
X181738572Y-119765714D01*
X181567143Y-119765714D01*
X181599286Y-120194286D02*
X181438572Y-120108571D01*
X181288571Y-119937143D01*
X181245714Y-119594286D01*
X181320714Y-118994286D01*
X181449285Y-118651429D01*
X181642143Y-118480000D01*
X181824286Y-118394286D01*
X182167143Y-118394286D01*
X182327857Y-118480000D01*
X182477857Y-118651429D01*
X182520714Y-118994286D01*
X182445714Y-119594286D01*
X182317143Y-119937143D01*
X182124286Y-120108571D01*
X181942143Y-120194286D01*
X181599286Y-120194286D01*
X184170714Y-120194286D02*
X183677857Y-119337143D01*
X183142142Y-120194286D02*
X183367142Y-118394286D01*
X184052857Y-118394286D01*
X184213571Y-118480000D01*
X184288572Y-118565714D01*
X184352857Y-118737143D01*
X184320714Y-118994286D01*
X184213572Y-119165714D01*
X184117142Y-119251429D01*
X183935000Y-119337143D01*
X183249285Y-119337143D01*
X187363572Y-120022857D02*
X187267144Y-120108571D01*
X186999286Y-120194286D01*
X186827857Y-120194286D01*
X186581429Y-120108571D01*
X186431429Y-119937143D01*
X186367143Y-119765714D01*
X186324286Y-119422857D01*
X186356429Y-119165714D01*
X186485000Y-118822857D01*
X186592143Y-118651429D01*
X186785000Y-118480000D01*
X187052857Y-118394286D01*
X187224286Y-118394286D01*
X187470715Y-118480000D01*
X187545715Y-118565714D01*
X188370714Y-120194286D02*
X188210001Y-120108571D01*
X188135000Y-120022857D01*
X188070714Y-119851429D01*
X188135000Y-119337143D01*
X188242143Y-119165714D01*
X188338572Y-119080000D01*
X188520714Y-118994286D01*
X188777857Y-118994286D01*
X188938572Y-119080000D01*
X189013572Y-119165714D01*
X189077857Y-119337143D01*
X189013571Y-119851429D01*
X188906429Y-120022857D01*
X188810001Y-120108571D01*
X188627857Y-120194286D01*
X188370714Y-120194286D01*
X190513571Y-120194286D02*
X190738571Y-118394286D01*
X190524286Y-120108571D02*
X190342142Y-120194286D01*
X189999285Y-120194286D01*
X189838572Y-120108571D01*
X189763571Y-120022857D01*
X189699285Y-119851429D01*
X189763571Y-119337143D01*
X189870714Y-119165714D01*
X189967143Y-119080000D01*
X190149285Y-118994286D01*
X190492142Y-118994286D01*
X190652857Y-119080000D01*
X192067143Y-120108571D02*
X191884999Y-120194286D01*
X191542142Y-120194286D01*
X191381428Y-120108571D01*
X191317142Y-119937143D01*
X191402856Y-119251429D01*
X191509999Y-119080000D01*
X191692142Y-118994286D01*
X192034999Y-118994286D01*
X192195714Y-119080000D01*
X192259999Y-119251429D01*
X192238571Y-119422857D01*
X191359999Y-119594286D01*
X115789286Y-77422857D02*
X115692858Y-77508571D01*
X115425000Y-77594286D01*
X115253571Y-77594286D01*
X115007143Y-77508571D01*
X114857143Y-77337143D01*
X114792857Y-77165714D01*
X114750000Y-76822857D01*
X114782143Y-76565714D01*
X114910714Y-76222857D01*
X115017857Y-76051429D01*
X115210714Y-75880000D01*
X115478571Y-75794286D01*
X115650000Y-75794286D01*
X115896429Y-75880000D01*
X115971429Y-75965714D01*
X117310714Y-77594286D02*
X117428571Y-76651429D01*
X117364286Y-76480000D01*
X117203571Y-76394286D01*
X116860714Y-76394286D01*
X116678571Y-76480000D01*
X117321429Y-77508571D02*
X117139285Y-77594286D01*
X116710714Y-77594286D01*
X116550000Y-77508571D01*
X116485714Y-77337143D01*
X116507143Y-77165714D01*
X116614285Y-76994286D01*
X116796429Y-76908571D01*
X117225000Y-76908571D01*
X117407143Y-76822857D01*
X118167856Y-77594286D02*
X118317856Y-76394286D01*
X118296428Y-76565714D02*
X118392857Y-76480000D01*
X118574999Y-76394286D01*
X118832142Y-76394286D01*
X118992857Y-76480000D01*
X119057142Y-76651429D01*
X118939285Y-77594286D01*
X119057142Y-76651429D02*
X119164285Y-76480000D01*
X119346428Y-76394286D01*
X119603571Y-76394286D01*
X119764285Y-76480000D01*
X119828571Y-76651429D01*
X119710714Y-77594286D01*
X121264286Y-77508571D02*
X121082142Y-77594286D01*
X120739285Y-77594286D01*
X120578571Y-77508571D01*
X120514285Y-77337143D01*
X120599999Y-76651429D01*
X120707142Y-76480000D01*
X120889285Y-76394286D01*
X121232142Y-76394286D01*
X121392857Y-76480000D01*
X121457142Y-76651429D01*
X121435714Y-76822857D01*
X120557142Y-76994286D01*
X122110713Y-77594286D02*
X122260713Y-76394286D01*
X122217856Y-76737143D02*
X122325000Y-76565714D01*
X122421428Y-76480000D01*
X122603571Y-76394286D01*
X122774999Y-76394286D01*
X123482142Y-77594286D02*
X123321429Y-77508571D01*
X123246428Y-77422857D01*
X123182142Y-77251429D01*
X123246428Y-76737143D01*
X123353571Y-76565714D01*
X123450000Y-76480000D01*
X123632142Y-76394286D01*
X123889285Y-76394286D01*
X124050000Y-76480000D01*
X124125000Y-76565714D01*
X124189285Y-76737143D01*
X124124999Y-77251429D01*
X124017857Y-77422857D01*
X123921429Y-77508571D01*
X123739285Y-77594286D01*
X123482142Y-77594286D01*
X125003570Y-76394286D02*
X124853570Y-77594286D01*
X124982142Y-76565714D02*
X125078571Y-76480000D01*
X125260713Y-76394286D01*
X125517856Y-76394286D01*
X125678571Y-76480000D01*
X125742856Y-76651429D01*
X125624999Y-77594286D01*
X127853570Y-77594286D02*
X128078570Y-75794286D01*
X128517856Y-77080000D01*
X129278570Y-75794286D01*
X129053570Y-77594286D01*
X130692857Y-77508571D02*
X130510713Y-77594286D01*
X130167856Y-77594286D01*
X130007143Y-77508571D01*
X129932142Y-77422857D01*
X129867856Y-77251429D01*
X129932142Y-76737143D01*
X130039285Y-76565714D01*
X130135714Y-76480000D01*
X130317856Y-76394286D01*
X130660713Y-76394286D01*
X130821428Y-76480000D01*
X132503571Y-77422857D02*
X132407143Y-77508571D01*
X132139285Y-77594286D01*
X131967856Y-77594286D01*
X131721428Y-77508571D01*
X131571428Y-77337143D01*
X131507142Y-77165714D01*
X131464285Y-76822857D01*
X131496428Y-76565714D01*
X131624999Y-76222857D01*
X131732142Y-76051429D01*
X131924999Y-75880000D01*
X132192856Y-75794286D01*
X132364285Y-75794286D01*
X132610714Y-75880000D01*
X132685714Y-75965714D01*
X134024999Y-77594286D02*
X134142856Y-76651429D01*
X134078571Y-76480000D01*
X133917856Y-76394286D01*
X133574999Y-76394286D01*
X133392856Y-76480000D01*
X134035714Y-77508571D02*
X133853570Y-77594286D01*
X133424999Y-77594286D01*
X133264285Y-77508571D01*
X133199999Y-77337143D01*
X133221428Y-77165714D01*
X133328570Y-76994286D01*
X133510714Y-76908571D01*
X133939285Y-76908571D01*
X134121428Y-76822857D01*
X134807142Y-77508571D02*
X134967856Y-77594286D01*
X135310713Y-77594286D01*
X135492856Y-77508571D01*
X135599999Y-77337143D01*
X135610713Y-77251429D01*
X135546427Y-77080000D01*
X135385713Y-76994286D01*
X135128570Y-76994286D01*
X134967856Y-76908571D01*
X134903570Y-76737143D01*
X134914284Y-76651429D01*
X135021427Y-76480000D01*
X135203570Y-76394286D01*
X135460713Y-76394286D01*
X135621427Y-76480000D01*
X136339284Y-77594286D02*
X136564284Y-75794286D01*
X136596428Y-76908571D02*
X137024999Y-77594286D01*
X137174999Y-76394286D02*
X136403570Y-77080000D01*
X138492857Y-77508571D02*
X138310713Y-77594286D01*
X137967856Y-77594286D01*
X137807142Y-77508571D01*
X137742856Y-77337143D01*
X137828570Y-76651429D01*
X137935713Y-76480000D01*
X138117856Y-76394286D01*
X138460713Y-76394286D01*
X138621428Y-76480000D01*
X138685713Y-76651429D01*
X138664285Y-76822857D01*
X137785713Y-76994286D01*
X139317856Y-76394286D02*
X139596427Y-77594286D01*
X140174999Y-76394286D02*
X139596427Y-77594286D01*
X139371428Y-78022857D01*
X139274999Y-78108571D01*
X139092856Y-78194286D01*
X114964285Y-78794286D02*
X114782142Y-80251429D01*
X114846429Y-80422857D01*
X114921429Y-80508571D01*
X115082143Y-80594286D01*
X115425000Y-80594286D01*
X115607143Y-80508571D01*
X115703572Y-80422857D01*
X115810714Y-80251429D01*
X115992857Y-78794286D01*
X116774999Y-79394286D02*
X116624999Y-80594286D01*
X116753571Y-79565714D02*
X116850000Y-79480000D01*
X117032142Y-79394286D01*
X117289285Y-79394286D01*
X117450000Y-79480000D01*
X117514285Y-79651429D01*
X117396428Y-80594286D01*
X118253570Y-80594286D02*
X118403570Y-79394286D01*
X118478570Y-78794286D02*
X118382142Y-78880000D01*
X118457142Y-78965714D01*
X118553571Y-78880000D01*
X118478570Y-78794286D01*
X118457142Y-78965714D01*
X119089285Y-79394286D02*
X119367856Y-80594286D01*
X119946428Y-79394286D01*
X121178572Y-80508571D02*
X120996428Y-80594286D01*
X120653571Y-80594286D01*
X120492857Y-80508571D01*
X120428571Y-80337143D01*
X120514285Y-79651429D01*
X120621428Y-79480000D01*
X120803571Y-79394286D01*
X121146428Y-79394286D01*
X121307143Y-79480000D01*
X121371428Y-79651429D01*
X121350000Y-79822857D01*
X120471428Y-79994286D01*
X122024999Y-80594286D02*
X122174999Y-79394286D01*
X122132142Y-79737143D02*
X122239286Y-79565714D01*
X122335714Y-79480000D01*
X122517857Y-79394286D01*
X122689285Y-79394286D01*
X123064286Y-80508571D02*
X123225000Y-80594286D01*
X123567857Y-80594286D01*
X123750000Y-80508571D01*
X123857143Y-80337143D01*
X123867857Y-80251429D01*
X123803571Y-80080000D01*
X123642857Y-79994286D01*
X123385714Y-79994286D01*
X123225000Y-79908571D01*
X123160714Y-79737143D01*
X123171428Y-79651429D01*
X123278571Y-79480000D01*
X123460714Y-79394286D01*
X123717857Y-79394286D01*
X123878571Y-79480000D01*
X124596428Y-80594286D02*
X124746428Y-79394286D01*
X124821428Y-78794286D02*
X124725000Y-78880000D01*
X124800000Y-78965714D01*
X124896429Y-78880000D01*
X124821428Y-78794286D01*
X124800000Y-78965714D01*
X125346429Y-79394286D02*
X126032143Y-79394286D01*
X125678571Y-78794286D02*
X125485714Y-80337143D01*
X125550001Y-80508571D01*
X125710714Y-80594286D01*
X125882143Y-80594286D01*
X126460714Y-79394286D02*
X126739285Y-80594286D01*
X127317857Y-79394286D02*
X126739285Y-80594286D01*
X126514286Y-81022857D01*
X126417857Y-81108571D01*
X126235714Y-81194286D01*
X129482143Y-80594286D02*
X129321430Y-80508571D01*
X129246429Y-80422857D01*
X129182143Y-80251429D01*
X129246429Y-79737143D01*
X129353572Y-79565714D01*
X129450001Y-79480000D01*
X129632143Y-79394286D01*
X129889286Y-79394286D01*
X130050001Y-79480000D01*
X130125001Y-79565714D01*
X130189286Y-79737143D01*
X130125000Y-80251429D01*
X130017858Y-80422857D01*
X129921430Y-80508571D01*
X129739286Y-80594286D01*
X129482143Y-80594286D01*
X130746429Y-79394286D02*
X131432143Y-79394286D01*
X130853571Y-80594286D02*
X131046428Y-79051429D01*
X131153572Y-78880000D01*
X131335714Y-78794286D01*
X131507143Y-78794286D01*
X133221429Y-78794286D02*
X134250000Y-78794286D01*
X133510714Y-80594286D02*
X133735714Y-78794286D01*
X134882143Y-80594286D02*
X134721430Y-80508571D01*
X134646429Y-80422857D01*
X134582143Y-80251429D01*
X134646429Y-79737143D01*
X134753572Y-79565714D01*
X134850001Y-79480000D01*
X135032143Y-79394286D01*
X135289286Y-79394286D01*
X135450001Y-79480000D01*
X135525001Y-79565714D01*
X135589286Y-79737143D01*
X135525000Y-80251429D01*
X135417858Y-80422857D01*
X135321430Y-80508571D01*
X135139286Y-80594286D01*
X134882143Y-80594286D01*
X136510714Y-80594286D02*
X136350001Y-80508571D01*
X136285714Y-80337143D01*
X136478571Y-78794286D01*
X137892858Y-80508571D02*
X137710714Y-80594286D01*
X137367857Y-80594286D01*
X137207143Y-80508571D01*
X137142857Y-80337143D01*
X137228571Y-79651429D01*
X137335714Y-79480000D01*
X137517857Y-79394286D01*
X137860714Y-79394286D01*
X138021429Y-79480000D01*
X138085714Y-79651429D01*
X138064286Y-79822857D01*
X137185714Y-79994286D01*
X139510714Y-80594286D02*
X139735714Y-78794286D01*
X139521429Y-80508571D02*
X139339285Y-80594286D01*
X138996428Y-80594286D01*
X138835715Y-80508571D01*
X138760714Y-80422857D01*
X138696428Y-80251429D01*
X138760714Y-79737143D01*
X138867857Y-79565714D01*
X138964286Y-79480000D01*
X139146428Y-79394286D01*
X139489285Y-79394286D01*
X139650000Y-79480000D01*
X140624999Y-80594286D02*
X140464286Y-80508571D01*
X140389285Y-80422857D01*
X140324999Y-80251429D01*
X140389285Y-79737143D01*
X140496428Y-79565714D01*
X140592857Y-79480000D01*
X140774999Y-79394286D01*
X141032142Y-79394286D01*
X141192857Y-79480000D01*
X141267857Y-79565714D01*
X141332142Y-79737143D01*
X141267856Y-80251429D01*
X141160714Y-80422857D01*
X141064286Y-80508571D01*
X140882142Y-80594286D01*
X140624999Y-80594286D01*
X115457142Y-82651429D02*
X115703571Y-82737143D01*
X115778572Y-82822857D01*
X115842857Y-82994286D01*
X115810714Y-83251429D01*
X115703572Y-83422857D01*
X115607143Y-83508571D01*
X115425000Y-83594286D01*
X114739285Y-83594286D01*
X114964285Y-81794286D01*
X115564285Y-81794286D01*
X115725000Y-81880000D01*
X115800000Y-81965714D01*
X115864286Y-82137143D01*
X115842858Y-82308571D01*
X115735714Y-82480000D01*
X115639286Y-82565714D01*
X115457142Y-82651429D01*
X114857142Y-82651429D01*
X116560714Y-83422857D02*
X116635715Y-83508571D01*
X116539285Y-83594286D01*
X116464286Y-83508571D01*
X116560714Y-83422857D01*
X116539285Y-83594286D01*
X117321429Y-83508571D02*
X117567857Y-83594286D01*
X117996428Y-83594286D01*
X118178572Y-83508571D01*
X118275000Y-83422857D01*
X118382143Y-83251429D01*
X118403572Y-83080000D01*
X118339286Y-82908571D01*
X118264286Y-82822857D01*
X118103571Y-82737143D01*
X117771428Y-82651429D01*
X117610715Y-82565714D01*
X117535714Y-82480000D01*
X117471429Y-82308571D01*
X117492857Y-82137143D01*
X117600000Y-81965714D01*
X117696429Y-81880000D01*
X117878571Y-81794286D01*
X118307143Y-81794286D01*
X118553572Y-81880000D01*
X119132143Y-83422857D02*
X119207144Y-83508571D01*
X119110714Y-83594286D01*
X119035715Y-83508571D01*
X119132143Y-83422857D01*
X119110714Y-83594286D01*
X121457143Y-82651429D02*
X122057143Y-82651429D01*
X122196429Y-83594286D02*
X121339286Y-83594286D01*
X121564286Y-81794286D01*
X122421429Y-81794286D01*
X123225000Y-83594286D02*
X123064287Y-83508571D01*
X123000000Y-83337143D01*
X123192857Y-81794286D01*
X124607144Y-83508571D02*
X124425000Y-83594286D01*
X124082143Y-83594286D01*
X123921429Y-83508571D01*
X123857143Y-83337143D01*
X123942857Y-82651429D01*
X124050000Y-82480000D01*
X124232143Y-82394286D01*
X124575000Y-82394286D01*
X124735715Y-82480000D01*
X124800000Y-82651429D01*
X124778572Y-82822857D01*
X123900000Y-82994286D01*
X126235715Y-83508571D02*
X126053571Y-83594286D01*
X125710714Y-83594286D01*
X125550001Y-83508571D01*
X125475000Y-83422857D01*
X125410714Y-83251429D01*
X125475000Y-82737143D01*
X125582143Y-82565714D01*
X125678572Y-82480000D01*
X125860714Y-82394286D01*
X126203571Y-82394286D01*
X126364286Y-82480000D01*
X126889286Y-82394286D02*
X127575000Y-82394286D01*
X127221428Y-81794286D02*
X127028571Y-83337143D01*
X127092858Y-83508571D01*
X127253571Y-83594286D01*
X127425000Y-83594286D01*
X128024999Y-83594286D02*
X128174999Y-82394286D01*
X128132142Y-82737143D02*
X128239286Y-82565714D01*
X128335714Y-82480000D01*
X128517857Y-82394286D01*
X128689285Y-82394286D01*
X129139285Y-83594286D02*
X129289285Y-82394286D01*
X129364285Y-81794286D02*
X129267857Y-81880000D01*
X129342857Y-81965714D01*
X129439286Y-81880000D01*
X129364285Y-81794286D01*
X129342857Y-81965714D01*
X130778572Y-83508571D02*
X130596428Y-83594286D01*
X130253571Y-83594286D01*
X130092858Y-83508571D01*
X130017857Y-83422857D01*
X129953571Y-83251429D01*
X130017857Y-82737143D01*
X130125000Y-82565714D01*
X130221429Y-82480000D01*
X130403571Y-82394286D01*
X130746428Y-82394286D01*
X130907143Y-82480000D01*
X132310714Y-83594286D02*
X132428571Y-82651429D01*
X132364286Y-82480000D01*
X132203571Y-82394286D01*
X131860714Y-82394286D01*
X131678571Y-82480000D01*
X132321429Y-83508571D02*
X132139285Y-83594286D01*
X131710714Y-83594286D01*
X131550000Y-83508571D01*
X131485714Y-83337143D01*
X131507143Y-83165714D01*
X131614285Y-82994286D01*
X131796429Y-82908571D01*
X132225000Y-82908571D01*
X132407143Y-82822857D01*
X133424999Y-83594286D02*
X133264286Y-83508571D01*
X133199999Y-83337143D01*
X133392856Y-81794286D01*
X135599999Y-82651429D02*
X136199999Y-82651429D01*
X136339285Y-83594286D02*
X135482142Y-83594286D01*
X135707142Y-81794286D01*
X136564285Y-81794286D01*
X137260713Y-82394286D02*
X137110713Y-83594286D01*
X137239285Y-82565714D02*
X137335714Y-82480000D01*
X137517856Y-82394286D01*
X137774999Y-82394286D01*
X137935714Y-82480000D01*
X137999999Y-82651429D01*
X137882142Y-83594286D01*
X139660713Y-82394286D02*
X139478570Y-83851429D01*
X139371428Y-84022857D01*
X139274999Y-84108571D01*
X139092856Y-84194286D01*
X138835713Y-84194286D01*
X138674999Y-84108571D01*
X139521428Y-83508571D02*
X139339284Y-83594286D01*
X138996427Y-83594286D01*
X138835714Y-83508571D01*
X138760713Y-83422857D01*
X138696427Y-83251429D01*
X138760713Y-82737143D01*
X138867856Y-82565714D01*
X138964285Y-82480000D01*
X139146427Y-82394286D01*
X139489284Y-82394286D01*
X139649999Y-82480000D01*
X140367855Y-83594286D02*
X140517855Y-82394286D01*
X140592855Y-81794286D02*
X140496427Y-81880000D01*
X140571427Y-81965714D01*
X140667856Y-81880000D01*
X140592855Y-81794286D01*
X140571427Y-81965714D01*
X141374998Y-82394286D02*
X141224998Y-83594286D01*
X141353570Y-82565714D02*
X141449999Y-82480000D01*
X141632141Y-82394286D01*
X141889284Y-82394286D01*
X142049999Y-82480000D01*
X142114284Y-82651429D01*
X141996427Y-83594286D01*
X143549999Y-83508571D02*
X143367855Y-83594286D01*
X143024998Y-83594286D01*
X142864284Y-83508571D01*
X142799998Y-83337143D01*
X142885712Y-82651429D01*
X142992855Y-82480000D01*
X143174998Y-82394286D01*
X143517855Y-82394286D01*
X143678570Y-82480000D01*
X143742855Y-82651429D01*
X143721427Y-82822857D01*
X142842855Y-82994286D01*
X145092856Y-83508571D02*
X144910712Y-83594286D01*
X144567855Y-83594286D01*
X144407141Y-83508571D01*
X144342855Y-83337143D01*
X144428569Y-82651429D01*
X144535712Y-82480000D01*
X144717855Y-82394286D01*
X145060712Y-82394286D01*
X145221427Y-82480000D01*
X145285712Y-82651429D01*
X145264284Y-82822857D01*
X144385712Y-82994286D01*
X145939283Y-83594286D02*
X146089283Y-82394286D01*
X146046426Y-82737143D02*
X146153570Y-82565714D01*
X146249998Y-82480000D01*
X146432141Y-82394286D01*
X146603569Y-82394286D01*
X147053569Y-83594286D02*
X147203569Y-82394286D01*
X147278569Y-81794286D02*
X147182141Y-81880000D01*
X147257141Y-81965714D01*
X147353570Y-81880000D01*
X147278569Y-81794286D01*
X147257141Y-81965714D01*
X148060712Y-82394286D02*
X147910712Y-83594286D01*
X148039284Y-82565714D02*
X148135713Y-82480000D01*
X148317855Y-82394286D01*
X148574998Y-82394286D01*
X148735713Y-82480000D01*
X148799998Y-82651429D01*
X148682141Y-83594286D01*
X150460712Y-82394286D02*
X150278569Y-83851429D01*
X150171427Y-84022857D01*
X150074998Y-84108571D01*
X149892855Y-84194286D01*
X149635712Y-84194286D01*
X149474998Y-84108571D01*
X150321427Y-83508571D02*
X150139283Y-83594286D01*
X149796426Y-83594286D01*
X149635713Y-83508571D01*
X149560712Y-83422857D01*
X149496426Y-83251429D01*
X149560712Y-82737143D01*
X149667855Y-82565714D01*
X149764284Y-82480000D01*
X149946426Y-82394286D01*
X150289283Y-82394286D01*
X150449998Y-82480000D01*
X151264284Y-83508571D02*
X151253569Y-83594286D01*
X151146426Y-83765714D01*
X151049997Y-83851429D01*
X153514284Y-81965714D02*
X153610712Y-81880000D01*
X153792855Y-81794286D01*
X154221426Y-81794286D01*
X154382141Y-81880000D01*
X154457141Y-81965714D01*
X154521427Y-82137143D01*
X154499999Y-82308571D01*
X154382141Y-82565714D01*
X153224998Y-83594286D01*
X154339284Y-83594286D01*
X155678570Y-81794286D02*
X155849998Y-81794286D01*
X156010713Y-81880000D01*
X156085713Y-81965714D01*
X156149998Y-82137143D01*
X156192856Y-82480000D01*
X156139285Y-82908571D01*
X156010712Y-83251429D01*
X155903570Y-83422857D01*
X155807142Y-83508571D01*
X155624998Y-83594286D01*
X155453570Y-83594286D01*
X155292856Y-83508571D01*
X155217856Y-83422857D01*
X155153569Y-83251429D01*
X155110713Y-82908571D01*
X155164284Y-82480000D01*
X155292855Y-82137143D01*
X155399999Y-81965714D01*
X155496427Y-81880000D01*
X155678570Y-81794286D01*
X156942856Y-81965714D02*
X157039284Y-81880000D01*
X157221427Y-81794286D01*
X157649998Y-81794286D01*
X157810713Y-81880000D01*
X157885713Y-81965714D01*
X157949999Y-82137143D01*
X157928571Y-82308571D01*
X157810713Y-82565714D01*
X156653570Y-83594286D01*
X157767856Y-83594286D01*
X159107142Y-81794286D02*
X159278570Y-81794286D01*
X159439285Y-81880000D01*
X159514285Y-81965714D01*
X159578570Y-82137143D01*
X159621428Y-82480000D01*
X159567857Y-82908571D01*
X159439284Y-83251429D01*
X159332142Y-83422857D01*
X159235714Y-83508571D01*
X159053570Y-83594286D01*
X158882142Y-83594286D01*
X158721428Y-83508571D01*
X158646428Y-83422857D01*
X158582141Y-83251429D01*
X158539285Y-82908571D01*
X158592856Y-82480000D01*
X158721427Y-82137143D01*
X158828571Y-81965714D01*
X158924999Y-81880000D01*
X159107142Y-81794286D01*
X115660714Y-85394286D02*
X115510714Y-86594286D01*
X115317858Y-84708571D02*
X114728571Y-85994286D01*
X115842857Y-85994286D01*
X117396429Y-86594286D02*
X116367857Y-86594286D01*
X116882143Y-86594286D02*
X117107143Y-84794286D01*
X116903571Y-85051429D01*
X116710715Y-85222857D01*
X116528572Y-85308571D01*
X118253572Y-86594286D02*
X118596429Y-86594286D01*
X118778572Y-86508571D01*
X118875001Y-86422857D01*
X119078572Y-86165714D01*
X119207144Y-85822857D01*
X119292858Y-85137143D01*
X119228572Y-84965714D01*
X119153572Y-84880000D01*
X118992857Y-84794286D01*
X118650000Y-84794286D01*
X118467858Y-84880000D01*
X118371429Y-84965714D01*
X118264286Y-85137143D01*
X118210715Y-85565714D01*
X118275000Y-85737143D01*
X118350001Y-85822857D01*
X118510715Y-85908571D01*
X118853572Y-85908571D01*
X119035715Y-85822857D01*
X119132143Y-85737143D01*
X119239287Y-85565714D01*
X119967858Y-85908571D02*
X121339287Y-85908571D01*
X122228572Y-84965714D02*
X122325000Y-84880000D01*
X122507143Y-84794286D01*
X122935714Y-84794286D01*
X123096429Y-84880000D01*
X123171429Y-84965714D01*
X123235715Y-85137143D01*
X123214287Y-85308571D01*
X123096429Y-85565714D01*
X121939286Y-86594286D01*
X123053572Y-86594286D01*
X124210715Y-85565714D02*
X124050001Y-85480000D01*
X123975000Y-85394286D01*
X123910715Y-85222857D01*
X123921429Y-85137143D01*
X124028572Y-84965714D01*
X124125001Y-84880000D01*
X124307143Y-84794286D01*
X124650000Y-84794286D01*
X124810715Y-84880000D01*
X124885715Y-84965714D01*
X124950001Y-85137143D01*
X124939287Y-85222857D01*
X124832143Y-85394286D01*
X124735715Y-85480000D01*
X124553572Y-85565714D01*
X124210715Y-85565714D01*
X124028572Y-85651429D01*
X123932143Y-85737143D01*
X123825001Y-85908571D01*
X123782143Y-86251429D01*
X123846429Y-86422857D01*
X123921430Y-86508571D01*
X124082143Y-86594286D01*
X124425000Y-86594286D01*
X124607144Y-86508571D01*
X124703572Y-86422857D01*
X124810715Y-86251429D01*
X124853573Y-85908571D01*
X124789286Y-85737143D01*
X124714286Y-85651429D01*
X124553572Y-85565714D01*
X126107144Y-84794286D02*
X126278572Y-84794286D01*
X126439287Y-84880000D01*
X126514287Y-84965714D01*
X126578572Y-85137143D01*
X126621430Y-85480000D01*
X126567859Y-85908571D01*
X126439286Y-86251429D01*
X126332144Y-86422857D01*
X126235716Y-86508571D01*
X126053572Y-86594286D01*
X125882144Y-86594286D01*
X125721430Y-86508571D01*
X125646430Y-86422857D01*
X125582143Y-86251429D01*
X125539287Y-85908571D01*
X125592858Y-85480000D01*
X125721429Y-85137143D01*
X125828573Y-84965714D01*
X125925001Y-84880000D01*
X126107144Y-84794286D01*
X127339287Y-85908571D02*
X128710716Y-85908571D01*
X130050001Y-84794286D02*
X130221429Y-84794286D01*
X130382144Y-84880000D01*
X130457144Y-84965714D01*
X130521429Y-85137143D01*
X130564287Y-85480000D01*
X130510716Y-85908571D01*
X130382143Y-86251429D01*
X130275001Y-86422857D01*
X130178573Y-86508571D01*
X129996429Y-86594286D01*
X129825001Y-86594286D01*
X129664287Y-86508571D01*
X129589287Y-86422857D01*
X129525000Y-86251429D01*
X129482144Y-85908571D01*
X129535715Y-85480000D01*
X129664286Y-85137143D01*
X129771430Y-84965714D01*
X129867858Y-84880000D01*
X130050001Y-84794286D01*
X131582144Y-85565714D02*
X131421430Y-85480000D01*
X131346429Y-85394286D01*
X131282144Y-85222857D01*
X131292858Y-85137143D01*
X131400001Y-84965714D01*
X131496430Y-84880000D01*
X131678572Y-84794286D01*
X132021429Y-84794286D01*
X132182144Y-84880000D01*
X132257144Y-84965714D01*
X132321430Y-85137143D01*
X132310716Y-85222857D01*
X132203572Y-85394286D01*
X132107144Y-85480000D01*
X131925001Y-85565714D01*
X131582144Y-85565714D01*
X131400001Y-85651429D01*
X131303572Y-85737143D01*
X131196430Y-85908571D01*
X131153572Y-86251429D01*
X131217858Y-86422857D01*
X131292859Y-86508571D01*
X131453572Y-86594286D01*
X131796429Y-86594286D01*
X131978573Y-86508571D01*
X132075001Y-86422857D01*
X132182144Y-86251429D01*
X132225002Y-85908571D01*
X132160715Y-85737143D01*
X132085715Y-85651429D01*
X131925001Y-85565714D01*
X133907144Y-84794286D02*
X133564287Y-84794286D01*
X133382144Y-84880000D01*
X133285716Y-84965714D01*
X133082144Y-85222857D01*
X132953573Y-85565714D01*
X132867858Y-86251429D01*
X132932144Y-86422857D01*
X133007145Y-86508571D01*
X133167858Y-86594286D01*
X133510715Y-86594286D01*
X133692859Y-86508571D01*
X133789287Y-86422857D01*
X133896430Y-86251429D01*
X133950002Y-85822857D01*
X133885715Y-85651429D01*
X133810716Y-85565714D01*
X133650001Y-85480000D01*
X133307144Y-85480000D01*
X133125002Y-85565714D01*
X133028572Y-85651429D01*
X132921430Y-85822857D01*
X135010716Y-85565714D02*
X134850002Y-85480000D01*
X134775001Y-85394286D01*
X134710716Y-85222857D01*
X134721430Y-85137143D01*
X134828573Y-84965714D01*
X134925002Y-84880000D01*
X135107144Y-84794286D01*
X135450001Y-84794286D01*
X135610716Y-84880000D01*
X135685716Y-84965714D01*
X135750002Y-85137143D01*
X135739288Y-85222857D01*
X135632144Y-85394286D01*
X135535716Y-85480000D01*
X135353573Y-85565714D01*
X135010716Y-85565714D01*
X134828573Y-85651429D01*
X134732144Y-85737143D01*
X134625002Y-85908571D01*
X134582144Y-86251429D01*
X134646430Y-86422857D01*
X134721431Y-86508571D01*
X134882144Y-86594286D01*
X135225001Y-86594286D01*
X135407145Y-86508571D01*
X135503573Y-86422857D01*
X135610716Y-86251429D01*
X135653574Y-85908571D01*
X135589287Y-85737143D01*
X135514287Y-85651429D01*
X135353573Y-85565714D01*
D12*
X154363000Y-94354000D02*
X154363000Y-95129000D01*
X150063000Y-98654000D02*
X150063000Y-97879000D01*
X154363000Y-98654000D02*
X154363000Y-97879000D01*
X150063000Y-94354000D02*
X150838000Y-94354000D01*
X150063000Y-98654000D02*
X150838000Y-98654000D01*
X154363000Y-98654000D02*
X153588000Y-98654000D01*
X154363000Y-94354000D02*
X153588000Y-94354000D01*
X156364447Y-99635919D02*
X156859421Y-100130893D01*
X156010893Y-100979421D02*
X155515919Y-100484447D01*
X156422000Y-95420000D02*
X156422000Y-97320000D01*
X157522000Y-95420000D02*
X157522000Y-97320000D01*
X156972000Y-96320000D02*
X156972000Y-96770000D01*
X157222000Y-96270000D02*
X156722000Y-96270000D01*
X156972000Y-96270000D02*
X157222000Y-96520000D01*
X157222000Y-96520000D02*
X156722000Y-96520000D01*
X156722000Y-96520000D02*
X156972000Y-96270000D01*
X153500000Y-100542000D02*
X151600000Y-100542000D01*
X153500000Y-101642000D02*
X151600000Y-101642000D01*
X152600000Y-101092000D02*
X152150000Y-101092000D01*
X152650000Y-101342000D02*
X152650000Y-100842000D01*
X152650000Y-101092000D02*
X152400000Y-101342000D01*
X152400000Y-101342000D02*
X152400000Y-100842000D01*
X152400000Y-100842000D02*
X152650000Y-101092000D01*
X148124000Y-97620000D02*
X148124000Y-95720000D01*
X147024000Y-97620000D02*
X147024000Y-95720000D01*
X147574000Y-96720000D02*
X147574000Y-96270000D01*
X147324000Y-96770000D02*
X147824000Y-96770000D01*
X147574000Y-96770000D02*
X147324000Y-96520000D01*
X147324000Y-96520000D02*
X147824000Y-96520000D01*
X147824000Y-96520000D02*
X147574000Y-96770000D01*
X151046000Y-92498000D02*
X152946000Y-92498000D01*
X151046000Y-91398000D02*
X152946000Y-91398000D01*
X151946000Y-91948000D02*
X152396000Y-91948000D01*
X151896000Y-91698000D02*
X151896000Y-92198000D01*
X151896000Y-91948000D02*
X152146000Y-91698000D01*
X152146000Y-91698000D02*
X152146000Y-92198000D01*
X152146000Y-92198000D02*
X151896000Y-91948000D01*
X155225000Y-109763000D02*
X155925000Y-109763000D01*
X155925000Y-110963000D02*
X155225000Y-110963000D01*
X159100000Y-107407000D02*
X158400000Y-107407000D01*
X158400000Y-106207000D02*
X159100000Y-106207000D01*
X162148000Y-109439000D02*
X161448000Y-109439000D01*
X161448000Y-108239000D02*
X162148000Y-108239000D01*
X161298000Y-106132000D02*
X162298000Y-106132000D01*
X162298000Y-107482000D02*
X161298000Y-107482000D01*
X154936000Y-108707000D02*
X156236000Y-108707000D01*
X154361000Y-106407000D02*
X156236000Y-106407000D01*
D13*
G36*
X190500000Y-116840000D02*
X165100000Y-116840000D01*
X165100000Y-110236000D01*
X166014400Y-110236000D01*
X166014400Y-115925600D01*
X171704000Y-115925600D01*
X171704000Y-114300000D01*
X172516800Y-114300000D01*
X172516800Y-115925600D01*
X173329600Y-115925600D01*
X173329600Y-114300000D01*
X172516800Y-114300000D01*
X171704000Y-114300000D01*
X171704000Y-110236000D01*
X166014400Y-110236000D01*
X165100000Y-110236000D01*
X165100000Y-108610400D01*
X166014400Y-108610400D01*
X166014400Y-109423200D01*
X169265600Y-109423200D01*
X169265600Y-108610400D01*
X170891200Y-108610400D01*
X170891200Y-109423200D01*
X171704000Y-109423200D01*
X171704000Y-108610400D01*
X172516800Y-108610400D01*
X172516800Y-105359200D01*
X170891200Y-105359200D01*
X170891200Y-104546400D01*
X171704000Y-104546400D01*
X172516800Y-104546400D01*
X172516800Y-105359200D01*
X173329600Y-105359200D01*
X173329600Y-106172000D01*
X174142400Y-106172000D01*
X174142400Y-105359200D01*
X173329600Y-105359200D01*
X173329600Y-104546400D01*
X172516800Y-104546400D01*
X171704000Y-104546400D01*
X171704000Y-103733600D01*
X170891200Y-103733600D01*
X170891200Y-102920800D01*
X169265600Y-102920800D01*
X169265600Y-102108000D01*
X170891200Y-102108000D01*
X170891200Y-102920800D01*
X172516800Y-102920800D01*
X172516800Y-103733600D01*
X173329600Y-103733600D01*
X173329600Y-102108000D01*
X170891200Y-102108000D01*
X169265600Y-102108000D01*
X168452800Y-102108000D01*
X168452800Y-103733600D01*
X167640000Y-103733600D01*
X167640000Y-102920800D01*
X166827200Y-102920800D01*
X166827200Y-103733600D01*
X166014400Y-103733600D01*
X166014400Y-104546400D01*
X166827200Y-104546400D01*
X166827200Y-105359200D01*
X168452800Y-105359200D01*
X168452800Y-106172000D01*
X167640000Y-106172000D01*
X167640000Y-106984800D01*
X168452800Y-106984800D01*
X168452800Y-108610400D01*
X166014400Y-108610400D01*
X165100000Y-108610400D01*
X165100000Y-105359200D01*
X166014400Y-105359200D01*
X166014400Y-106984800D01*
X166827200Y-106984800D01*
X166827200Y-105359200D01*
X166014400Y-105359200D01*
X165100000Y-105359200D01*
X165100000Y-101295200D01*
X166014400Y-101295200D01*
X166014400Y-102108000D01*
X167640000Y-102108000D01*
X167640000Y-101295200D01*
X173329600Y-101295200D01*
X173329600Y-102108000D01*
X174142400Y-102108000D01*
X174142400Y-101295200D01*
X174955200Y-101295200D01*
X174955200Y-100482400D01*
X173329600Y-100482400D01*
X173329600Y-99669600D01*
X171704000Y-99669600D01*
X171704000Y-98856800D01*
X169265600Y-98856800D01*
X169265600Y-99669600D01*
X168452800Y-99669600D01*
X168452800Y-100482400D01*
X166827200Y-100482400D01*
X166827200Y-101295200D01*
X166014400Y-101295200D01*
X165100000Y-101295200D01*
X165100000Y-98856800D01*
X166014400Y-98856800D01*
X166014400Y-99669600D01*
X167640000Y-99669600D01*
X167640000Y-98856800D01*
X166014400Y-98856800D01*
X165100000Y-98856800D01*
X165100000Y-92354400D01*
X166014400Y-92354400D01*
X166014400Y-98044000D01*
X171704000Y-98044000D01*
X171704000Y-92354400D01*
X172516800Y-92354400D01*
X172516800Y-95605600D01*
X173329600Y-95605600D01*
X173329600Y-96418400D01*
X172516800Y-96418400D01*
X172516800Y-98044000D01*
X173329600Y-98044000D01*
X173329600Y-97231200D01*
X174142400Y-97231200D01*
X174142400Y-99669600D01*
X174955200Y-99669600D01*
X174955200Y-98856800D01*
X175768000Y-98856800D01*
X175768000Y-99669600D01*
X176580800Y-99669600D01*
X176580800Y-100482400D01*
X178206400Y-100482400D01*
X178206400Y-101295200D01*
X177393600Y-101295200D01*
X177393600Y-102108000D01*
X176580800Y-102108000D01*
X176580800Y-101295200D01*
X175768000Y-101295200D01*
X175768000Y-102108000D01*
X174955200Y-102108000D01*
X174955200Y-102920800D01*
X174142400Y-102920800D01*
X174142400Y-103733600D01*
X174955200Y-103733600D01*
X174955200Y-104546400D01*
X174142400Y-104546400D01*
X174142400Y-105359200D01*
X175768000Y-105359200D01*
X175768000Y-106172000D01*
X176580800Y-106172000D01*
X176580800Y-106984800D01*
X178206400Y-106984800D01*
X178206400Y-107797600D01*
X177393600Y-107797600D01*
X177393600Y-108610400D01*
X176580800Y-108610400D01*
X176580800Y-107797600D01*
X175768000Y-107797600D01*
X175768000Y-108610400D01*
X174955200Y-108610400D01*
X174955200Y-107797600D01*
X173329600Y-107797600D01*
X173329600Y-109423200D01*
X172516800Y-109423200D01*
X172516800Y-110236000D01*
X173329600Y-110236000D01*
X173329600Y-111048800D01*
X172516800Y-111048800D01*
X172516800Y-112674400D01*
X173329600Y-112674400D01*
X173329600Y-114300000D01*
X174142400Y-114300000D01*
X174142400Y-115112800D01*
X174955200Y-115112800D01*
X174955200Y-115925600D01*
X175768000Y-115925600D01*
X175768000Y-115112800D01*
X176580800Y-115112800D01*
X176580800Y-115925600D01*
X179019200Y-115925600D01*
X179019200Y-113487200D01*
X179832000Y-113487200D01*
X179832000Y-112674400D01*
X180644800Y-112674400D01*
X180644800Y-113487200D01*
X181457600Y-113487200D01*
X181457600Y-114300000D01*
X179832000Y-114300000D01*
X179832000Y-115925600D01*
X180644800Y-115925600D01*
X180644800Y-115112800D01*
X182270400Y-115112800D01*
X182270400Y-115925600D01*
X183896000Y-115925600D01*
X183896000Y-115112800D01*
X183083200Y-115112800D01*
X183083200Y-114300000D01*
X183896000Y-114300000D01*
X183896000Y-115112800D01*
X184708800Y-115112800D01*
X184708800Y-115925600D01*
X186334400Y-115925600D01*
X186334400Y-115112800D01*
X187147200Y-115112800D01*
X187147200Y-114300000D01*
X187960000Y-114300000D01*
X187960000Y-115925600D01*
X188772800Y-115925600D01*
X188772800Y-115112800D01*
X189585600Y-115112800D01*
X189585600Y-112674400D01*
X188772800Y-112674400D01*
X188772800Y-111861600D01*
X187960000Y-111861600D01*
X187960000Y-112674400D01*
X187147200Y-112674400D01*
X187147200Y-113487200D01*
X186334400Y-113487200D01*
X186334400Y-114300000D01*
X185521600Y-114300000D01*
X185521600Y-115112800D01*
X184708800Y-115112800D01*
X184708800Y-114300000D01*
X183896000Y-114300000D01*
X183083200Y-114300000D01*
X182270400Y-114300000D01*
X182270400Y-113487200D01*
X183896000Y-113487200D01*
X183896000Y-112674400D01*
X184708800Y-112674400D01*
X184708800Y-113487200D01*
X185521600Y-113487200D01*
X185521600Y-112674400D01*
X186334400Y-112674400D01*
X186334400Y-111861600D01*
X187147200Y-111861600D01*
X187147200Y-111048800D01*
X187960000Y-111048800D01*
X187960000Y-110236000D01*
X186334400Y-110236000D01*
X186334400Y-109423200D01*
X187147200Y-109423200D01*
X187147200Y-108610400D01*
X183896000Y-108610400D01*
X183896000Y-107797600D01*
X183083200Y-107797600D01*
X183083200Y-106984800D01*
X182270400Y-106984800D01*
X182270400Y-107797600D01*
X181457600Y-107797600D01*
X181457600Y-104546400D01*
X182270400Y-104546400D01*
X182270400Y-106172000D01*
X183083200Y-106172000D01*
X183896000Y-106172000D01*
X183896000Y-106984800D01*
X184708800Y-106984800D01*
X184708800Y-106172000D01*
X183896000Y-106172000D01*
X183083200Y-106172000D01*
X183083200Y-104546400D01*
X182270400Y-104546400D01*
X181457600Y-104546400D01*
X181457600Y-103733600D01*
X179832000Y-103733600D01*
X179832000Y-102920800D01*
X180644800Y-102920800D01*
X180644800Y-102108000D01*
X181457600Y-102108000D01*
X181457600Y-102920800D01*
X183896000Y-102920800D01*
X183896000Y-101295200D01*
X183083200Y-101295200D01*
X183083200Y-100482400D01*
X182270400Y-100482400D01*
X182270400Y-102108000D01*
X181457600Y-102108000D01*
X180644800Y-102108000D01*
X180644800Y-101295200D01*
X181457600Y-101295200D01*
X181457600Y-99669600D01*
X183083200Y-99669600D01*
X183896000Y-99669600D01*
X183896000Y-100482400D01*
X188772800Y-100482400D01*
X188772800Y-101295200D01*
X187960000Y-101295200D01*
X187960000Y-103733600D01*
X187147200Y-103733600D01*
X187147200Y-102920800D01*
X183896000Y-102920800D01*
X183896000Y-104546400D01*
X185521600Y-104546400D01*
X185521600Y-105359200D01*
X186334400Y-105359200D01*
X186334400Y-106172000D01*
X185521600Y-106172000D01*
X185521600Y-107797600D01*
X187960000Y-107797600D01*
X187960000Y-108610400D01*
X188772800Y-108610400D01*
X188772800Y-111861600D01*
X189585600Y-111861600D01*
X189585600Y-106172000D01*
X188772800Y-106172000D01*
X188772800Y-105359200D01*
X189585600Y-105359200D01*
X189585600Y-102920800D01*
X188772800Y-102920800D01*
X188772800Y-102108000D01*
X189585600Y-102108000D01*
X189585600Y-98856800D01*
X186334400Y-98856800D01*
X186334400Y-99669600D01*
X185521600Y-99669600D01*
X185521600Y-98856800D01*
X184708800Y-98856800D01*
X184708800Y-99669600D01*
X183896000Y-99669600D01*
X183083200Y-99669600D01*
X183083200Y-96418400D01*
X181457600Y-96418400D01*
X181457600Y-95605600D01*
X182270400Y-95605600D01*
X182270400Y-94792800D01*
X183083200Y-94792800D01*
X183083200Y-93980000D01*
X182270400Y-93980000D01*
X182270400Y-93167200D01*
X181457600Y-93167200D01*
X181457600Y-92354400D01*
X182270400Y-92354400D01*
X182270400Y-93167200D01*
X183083200Y-93167200D01*
X183083200Y-92354400D01*
X183896000Y-92354400D01*
X183896000Y-98044000D01*
X189585600Y-98044000D01*
X189585600Y-92354400D01*
X183896000Y-92354400D01*
X183083200Y-92354400D01*
X182270400Y-92354400D01*
X181457600Y-92354400D01*
X179832000Y-92354400D01*
X179832000Y-93167200D01*
X179019200Y-93167200D01*
X179019200Y-93980000D01*
X177393600Y-93980000D01*
X177393600Y-94792800D01*
X178206400Y-94792800D01*
X178206400Y-95605600D01*
X177393600Y-95605600D01*
X177393600Y-96418400D01*
X179019200Y-96418400D01*
X179019200Y-98856800D01*
X178206400Y-98856800D01*
X178206400Y-99669600D01*
X177393600Y-99669600D01*
X177393600Y-98044000D01*
X176580800Y-98044000D01*
X176580800Y-97231200D01*
X177393600Y-97231200D01*
X177393600Y-98044000D01*
X178206400Y-98044000D01*
X178206400Y-97231200D01*
X177393600Y-97231200D01*
X176580800Y-97231200D01*
X175768000Y-97231200D01*
X175768000Y-98044000D01*
X174955200Y-98044000D01*
X174955200Y-94792800D01*
X174142400Y-94792800D01*
X174142400Y-93980000D01*
X173329600Y-93980000D01*
X173329600Y-93167200D01*
X174955200Y-93167200D01*
X174955200Y-93980000D01*
X175768000Y-93980000D01*
X175768000Y-96418400D01*
X176580800Y-96418400D01*
X176580800Y-93167200D01*
X174955200Y-93167200D01*
X173329600Y-93167200D01*
X173329600Y-92354400D01*
X177393600Y-92354400D01*
X177393600Y-93167200D01*
X179019200Y-93167200D01*
X179019200Y-92354400D01*
X177393600Y-92354400D01*
X173329600Y-92354400D01*
X172516800Y-92354400D01*
X171704000Y-92354400D01*
X166014400Y-92354400D01*
X165100000Y-92354400D01*
X165100000Y-91440000D01*
X190500000Y-91440000D01*
X190500000Y-116840000D01*
X190500000Y-116840000D01*
G37*
X190500000Y-116840000D02*
X165100000Y-116840000D01*
X165100000Y-110236000D01*
X166014400Y-110236000D01*
X166014400Y-115925600D01*
X171704000Y-115925600D01*
X171704000Y-114300000D01*
X172516800Y-114300000D01*
X172516800Y-115925600D01*
X173329600Y-115925600D01*
X173329600Y-114300000D01*
X172516800Y-114300000D01*
X171704000Y-114300000D01*
X171704000Y-110236000D01*
X166014400Y-110236000D01*
X165100000Y-110236000D01*
X165100000Y-108610400D01*
X166014400Y-108610400D01*
X166014400Y-109423200D01*
X169265600Y-109423200D01*
X169265600Y-108610400D01*
X170891200Y-108610400D01*
X170891200Y-109423200D01*
X171704000Y-109423200D01*
X171704000Y-108610400D01*
X172516800Y-108610400D01*
X172516800Y-105359200D01*
X170891200Y-105359200D01*
X170891200Y-104546400D01*
X171704000Y-104546400D01*
X172516800Y-104546400D01*
X172516800Y-105359200D01*
X173329600Y-105359200D01*
X173329600Y-106172000D01*
X174142400Y-106172000D01*
X174142400Y-105359200D01*
X173329600Y-105359200D01*
X173329600Y-104546400D01*
X172516800Y-104546400D01*
X171704000Y-104546400D01*
X171704000Y-103733600D01*
X170891200Y-103733600D01*
X170891200Y-102920800D01*
X169265600Y-102920800D01*
X169265600Y-102108000D01*
X170891200Y-102108000D01*
X170891200Y-102920800D01*
X172516800Y-102920800D01*
X172516800Y-103733600D01*
X173329600Y-103733600D01*
X173329600Y-102108000D01*
X170891200Y-102108000D01*
X169265600Y-102108000D01*
X168452800Y-102108000D01*
X168452800Y-103733600D01*
X167640000Y-103733600D01*
X167640000Y-102920800D01*
X166827200Y-102920800D01*
X166827200Y-103733600D01*
X166014400Y-103733600D01*
X166014400Y-104546400D01*
X166827200Y-104546400D01*
X166827200Y-105359200D01*
X168452800Y-105359200D01*
X168452800Y-106172000D01*
X167640000Y-106172000D01*
X167640000Y-106984800D01*
X168452800Y-106984800D01*
X168452800Y-108610400D01*
X166014400Y-108610400D01*
X165100000Y-108610400D01*
X165100000Y-105359200D01*
X166014400Y-105359200D01*
X166014400Y-106984800D01*
X166827200Y-106984800D01*
X166827200Y-105359200D01*
X166014400Y-105359200D01*
X165100000Y-105359200D01*
X165100000Y-101295200D01*
X166014400Y-101295200D01*
X166014400Y-102108000D01*
X167640000Y-102108000D01*
X167640000Y-101295200D01*
X173329600Y-101295200D01*
X173329600Y-102108000D01*
X174142400Y-102108000D01*
X174142400Y-101295200D01*
X174955200Y-101295200D01*
X174955200Y-100482400D01*
X173329600Y-100482400D01*
X173329600Y-99669600D01*
X171704000Y-99669600D01*
X171704000Y-98856800D01*
X169265600Y-98856800D01*
X169265600Y-99669600D01*
X168452800Y-99669600D01*
X168452800Y-100482400D01*
X166827200Y-100482400D01*
X166827200Y-101295200D01*
X166014400Y-101295200D01*
X165100000Y-101295200D01*
X165100000Y-98856800D01*
X166014400Y-98856800D01*
X166014400Y-99669600D01*
X167640000Y-99669600D01*
X167640000Y-98856800D01*
X166014400Y-98856800D01*
X165100000Y-98856800D01*
X165100000Y-92354400D01*
X166014400Y-92354400D01*
X166014400Y-98044000D01*
X171704000Y-98044000D01*
X171704000Y-92354400D01*
X172516800Y-92354400D01*
X172516800Y-95605600D01*
X173329600Y-95605600D01*
X173329600Y-96418400D01*
X172516800Y-96418400D01*
X172516800Y-98044000D01*
X173329600Y-98044000D01*
X173329600Y-97231200D01*
X174142400Y-97231200D01*
X174142400Y-99669600D01*
X174955200Y-99669600D01*
X174955200Y-98856800D01*
X175768000Y-98856800D01*
X175768000Y-99669600D01*
X176580800Y-99669600D01*
X176580800Y-100482400D01*
X178206400Y-100482400D01*
X178206400Y-101295200D01*
X177393600Y-101295200D01*
X177393600Y-102108000D01*
X176580800Y-102108000D01*
X176580800Y-101295200D01*
X175768000Y-101295200D01*
X175768000Y-102108000D01*
X174955200Y-102108000D01*
X174955200Y-102920800D01*
X174142400Y-102920800D01*
X174142400Y-103733600D01*
X174955200Y-103733600D01*
X174955200Y-104546400D01*
X174142400Y-104546400D01*
X174142400Y-105359200D01*
X175768000Y-105359200D01*
X175768000Y-106172000D01*
X176580800Y-106172000D01*
X176580800Y-106984800D01*
X178206400Y-106984800D01*
X178206400Y-107797600D01*
X177393600Y-107797600D01*
X177393600Y-108610400D01*
X176580800Y-108610400D01*
X176580800Y-107797600D01*
X175768000Y-107797600D01*
X175768000Y-108610400D01*
X174955200Y-108610400D01*
X174955200Y-107797600D01*
X173329600Y-107797600D01*
X173329600Y-109423200D01*
X172516800Y-109423200D01*
X172516800Y-110236000D01*
X173329600Y-110236000D01*
X173329600Y-111048800D01*
X172516800Y-111048800D01*
X172516800Y-112674400D01*
X173329600Y-112674400D01*
X173329600Y-114300000D01*
X174142400Y-114300000D01*
X174142400Y-115112800D01*
X174955200Y-115112800D01*
X174955200Y-115925600D01*
X175768000Y-115925600D01*
X175768000Y-115112800D01*
X176580800Y-115112800D01*
X176580800Y-115925600D01*
X179019200Y-115925600D01*
X179019200Y-113487200D01*
X179832000Y-113487200D01*
X179832000Y-112674400D01*
X180644800Y-112674400D01*
X180644800Y-113487200D01*
X181457600Y-113487200D01*
X181457600Y-114300000D01*
X179832000Y-114300000D01*
X179832000Y-115925600D01*
X180644800Y-115925600D01*
X180644800Y-115112800D01*
X182270400Y-115112800D01*
X182270400Y-115925600D01*
X183896000Y-115925600D01*
X183896000Y-115112800D01*
X183083200Y-115112800D01*
X183083200Y-114300000D01*
X183896000Y-114300000D01*
X183896000Y-115112800D01*
X184708800Y-115112800D01*
X184708800Y-115925600D01*
X186334400Y-115925600D01*
X186334400Y-115112800D01*
X187147200Y-115112800D01*
X187147200Y-114300000D01*
X187960000Y-114300000D01*
X187960000Y-115925600D01*
X188772800Y-115925600D01*
X188772800Y-115112800D01*
X189585600Y-115112800D01*
X189585600Y-112674400D01*
X188772800Y-112674400D01*
X188772800Y-111861600D01*
X187960000Y-111861600D01*
X187960000Y-112674400D01*
X187147200Y-112674400D01*
X187147200Y-113487200D01*
X186334400Y-113487200D01*
X186334400Y-114300000D01*
X185521600Y-114300000D01*
X185521600Y-115112800D01*
X184708800Y-115112800D01*
X184708800Y-114300000D01*
X183896000Y-114300000D01*
X183083200Y-114300000D01*
X182270400Y-114300000D01*
X182270400Y-113487200D01*
X183896000Y-113487200D01*
X183896000Y-112674400D01*
X184708800Y-112674400D01*
X184708800Y-113487200D01*
X185521600Y-113487200D01*
X185521600Y-112674400D01*
X186334400Y-112674400D01*
X186334400Y-111861600D01*
X187147200Y-111861600D01*
X187147200Y-111048800D01*
X187960000Y-111048800D01*
X187960000Y-110236000D01*
X186334400Y-110236000D01*
X186334400Y-109423200D01*
X187147200Y-109423200D01*
X187147200Y-108610400D01*
X183896000Y-108610400D01*
X183896000Y-107797600D01*
X183083200Y-107797600D01*
X183083200Y-106984800D01*
X182270400Y-106984800D01*
X182270400Y-107797600D01*
X181457600Y-107797600D01*
X181457600Y-104546400D01*
X182270400Y-104546400D01*
X182270400Y-106172000D01*
X183083200Y-106172000D01*
X183896000Y-106172000D01*
X183896000Y-106984800D01*
X184708800Y-106984800D01*
X184708800Y-106172000D01*
X183896000Y-106172000D01*
X183083200Y-106172000D01*
X183083200Y-104546400D01*
X182270400Y-104546400D01*
X181457600Y-104546400D01*
X181457600Y-103733600D01*
X179832000Y-103733600D01*
X179832000Y-102920800D01*
X180644800Y-102920800D01*
X180644800Y-102108000D01*
X181457600Y-102108000D01*
X181457600Y-102920800D01*
X183896000Y-102920800D01*
X183896000Y-101295200D01*
X183083200Y-101295200D01*
X183083200Y-100482400D01*
X182270400Y-100482400D01*
X182270400Y-102108000D01*
X181457600Y-102108000D01*
X180644800Y-102108000D01*
X180644800Y-101295200D01*
X181457600Y-101295200D01*
X181457600Y-99669600D01*
X183083200Y-99669600D01*
X183896000Y-99669600D01*
X183896000Y-100482400D01*
X188772800Y-100482400D01*
X188772800Y-101295200D01*
X187960000Y-101295200D01*
X187960000Y-103733600D01*
X187147200Y-103733600D01*
X187147200Y-102920800D01*
X183896000Y-102920800D01*
X183896000Y-104546400D01*
X185521600Y-104546400D01*
X185521600Y-105359200D01*
X186334400Y-105359200D01*
X186334400Y-106172000D01*
X185521600Y-106172000D01*
X185521600Y-107797600D01*
X187960000Y-107797600D01*
X187960000Y-108610400D01*
X188772800Y-108610400D01*
X188772800Y-111861600D01*
X189585600Y-111861600D01*
X189585600Y-106172000D01*
X188772800Y-106172000D01*
X188772800Y-105359200D01*
X189585600Y-105359200D01*
X189585600Y-102920800D01*
X188772800Y-102920800D01*
X188772800Y-102108000D01*
X189585600Y-102108000D01*
X189585600Y-98856800D01*
X186334400Y-98856800D01*
X186334400Y-99669600D01*
X185521600Y-99669600D01*
X185521600Y-98856800D01*
X184708800Y-98856800D01*
X184708800Y-99669600D01*
X183896000Y-99669600D01*
X183083200Y-99669600D01*
X183083200Y-96418400D01*
X181457600Y-96418400D01*
X181457600Y-95605600D01*
X182270400Y-95605600D01*
X182270400Y-94792800D01*
X183083200Y-94792800D01*
X183083200Y-93980000D01*
X182270400Y-93980000D01*
X182270400Y-93167200D01*
X181457600Y-93167200D01*
X181457600Y-92354400D01*
X182270400Y-92354400D01*
X182270400Y-93167200D01*
X183083200Y-93167200D01*
X183083200Y-92354400D01*
X183896000Y-92354400D01*
X183896000Y-98044000D01*
X189585600Y-98044000D01*
X189585600Y-92354400D01*
X183896000Y-92354400D01*
X183083200Y-92354400D01*
X182270400Y-92354400D01*
X181457600Y-92354400D01*
X179832000Y-92354400D01*
X179832000Y-93167200D01*
X179019200Y-93167200D01*
X179019200Y-93980000D01*
X177393600Y-93980000D01*
X177393600Y-94792800D01*
X178206400Y-94792800D01*
X178206400Y-95605600D01*
X177393600Y-95605600D01*
X177393600Y-96418400D01*
X179019200Y-96418400D01*
X179019200Y-98856800D01*
X178206400Y-98856800D01*
X178206400Y-99669600D01*
X177393600Y-99669600D01*
X177393600Y-98044000D01*
X176580800Y-98044000D01*
X176580800Y-97231200D01*
X177393600Y-97231200D01*
X177393600Y-98044000D01*
X178206400Y-98044000D01*
X178206400Y-97231200D01*
X177393600Y-97231200D01*
X176580800Y-97231200D01*
X175768000Y-97231200D01*
X175768000Y-98044000D01*
X174955200Y-98044000D01*
X174955200Y-94792800D01*
X174142400Y-94792800D01*
X174142400Y-93980000D01*
X173329600Y-93980000D01*
X173329600Y-93167200D01*
X174955200Y-93167200D01*
X174955200Y-93980000D01*
X175768000Y-93980000D01*
X175768000Y-96418400D01*
X176580800Y-96418400D01*
X176580800Y-93167200D01*
X174955200Y-93167200D01*
X173329600Y-93167200D01*
X173329600Y-92354400D01*
X177393600Y-92354400D01*
X177393600Y-93167200D01*
X179019200Y-93167200D01*
X179019200Y-92354400D01*
X177393600Y-92354400D01*
X173329600Y-92354400D01*
X172516800Y-92354400D01*
X171704000Y-92354400D01*
X166014400Y-92354400D01*
X165100000Y-92354400D01*
X165100000Y-91440000D01*
X190500000Y-91440000D01*
X190500000Y-116840000D01*
G36*
X170891200Y-115112800D02*
X166827200Y-115112800D01*
X166827200Y-111861600D01*
X167640000Y-111861600D01*
X167640000Y-114300000D01*
X170078400Y-114300000D01*
X170078400Y-111861600D01*
X167640000Y-111861600D01*
X166827200Y-111861600D01*
X166827200Y-111048800D01*
X170891200Y-111048800D01*
X170891200Y-115112800D01*
X170891200Y-115112800D01*
G37*
X170891200Y-115112800D02*
X166827200Y-115112800D01*
X166827200Y-111861600D01*
X167640000Y-111861600D01*
X167640000Y-114300000D01*
X170078400Y-114300000D01*
X170078400Y-111861600D01*
X167640000Y-111861600D01*
X166827200Y-111861600D01*
X166827200Y-111048800D01*
X170891200Y-111048800D01*
X170891200Y-115112800D01*
G36*
X174955200Y-111861600D02*
X175768000Y-111861600D01*
X175768000Y-112674400D01*
X176580800Y-112674400D01*
X176580800Y-113487200D01*
X178206400Y-113487200D01*
X178206400Y-114300000D01*
X177393600Y-114300000D01*
X177393600Y-115112800D01*
X176580800Y-115112800D01*
X176580800Y-114300000D01*
X175768000Y-114300000D01*
X175768000Y-115112800D01*
X174955200Y-115112800D01*
X174955200Y-113487200D01*
X174142400Y-113487200D01*
X174142400Y-112674400D01*
X173329600Y-112674400D01*
X173329600Y-111048800D01*
X174955200Y-111048800D01*
X174955200Y-111861600D01*
X174955200Y-111861600D01*
G37*
X174955200Y-111861600D02*
X175768000Y-111861600D01*
X175768000Y-112674400D01*
X176580800Y-112674400D01*
X176580800Y-113487200D01*
X178206400Y-113487200D01*
X178206400Y-114300000D01*
X177393600Y-114300000D01*
X177393600Y-115112800D01*
X176580800Y-115112800D01*
X176580800Y-114300000D01*
X175768000Y-114300000D01*
X175768000Y-115112800D01*
X174955200Y-115112800D01*
X174955200Y-113487200D01*
X174142400Y-113487200D01*
X174142400Y-112674400D01*
X173329600Y-112674400D01*
X173329600Y-111048800D01*
X174955200Y-111048800D01*
X174955200Y-111861600D01*
G36*
X176580800Y-111861600D02*
X175768000Y-111861600D01*
X175768000Y-111048800D01*
X176580800Y-111048800D01*
X176580800Y-111861600D01*
X176580800Y-111861600D01*
G37*
X176580800Y-111861600D02*
X175768000Y-111861600D01*
X175768000Y-111048800D01*
X176580800Y-111048800D01*
X176580800Y-111861600D01*
G36*
X188772800Y-113487200D02*
X187960000Y-113487200D01*
X187960000Y-112674400D01*
X188772800Y-112674400D01*
X188772800Y-113487200D01*
X188772800Y-113487200D01*
G37*
X188772800Y-113487200D02*
X187960000Y-113487200D01*
X187960000Y-112674400D01*
X188772800Y-112674400D01*
X188772800Y-113487200D01*
G36*
X181457600Y-112674400D02*
X180644800Y-112674400D01*
X180644800Y-111048800D01*
X181457600Y-111048800D01*
X181457600Y-112674400D01*
X181457600Y-112674400D01*
G37*
X181457600Y-112674400D02*
X180644800Y-112674400D01*
X180644800Y-111048800D01*
X181457600Y-111048800D01*
X181457600Y-112674400D01*
G36*
X179019200Y-111861600D02*
X179832000Y-111861600D01*
X179832000Y-112674400D01*
X177393600Y-112674400D01*
X177393600Y-111048800D01*
X179019200Y-111048800D01*
X179019200Y-111861600D01*
X179019200Y-111861600D01*
G37*
X179019200Y-111861600D02*
X179832000Y-111861600D01*
X179832000Y-112674400D01*
X177393600Y-112674400D01*
X177393600Y-111048800D01*
X179019200Y-111048800D01*
X179019200Y-111861600D01*
G36*
X180644800Y-111048800D02*
X179019200Y-111048800D01*
X179019200Y-110236000D01*
X180644800Y-110236000D01*
X180644800Y-111048800D01*
X180644800Y-111048800D01*
G37*
X180644800Y-111048800D02*
X179019200Y-111048800D01*
X179019200Y-110236000D01*
X180644800Y-110236000D01*
X180644800Y-111048800D01*
G36*
X182270400Y-109423200D02*
X181457600Y-109423200D01*
X181457600Y-110236000D01*
X180644800Y-110236000D01*
X180644800Y-108610400D01*
X182270400Y-108610400D01*
X182270400Y-109423200D01*
X182270400Y-109423200D01*
G37*
X182270400Y-109423200D02*
X181457600Y-109423200D01*
X181457600Y-110236000D01*
X180644800Y-110236000D01*
X180644800Y-108610400D01*
X182270400Y-108610400D01*
X182270400Y-109423200D01*
G36*
X185521600Y-111861600D02*
X183083200Y-111861600D01*
X183083200Y-110236000D01*
X183896000Y-110236000D01*
X183896000Y-111048800D01*
X184708800Y-111048800D01*
X184708800Y-110236000D01*
X183896000Y-110236000D01*
X183083200Y-110236000D01*
X183083200Y-109423200D01*
X185521600Y-109423200D01*
X185521600Y-111861600D01*
X185521600Y-111861600D01*
G37*
X185521600Y-111861600D02*
X183083200Y-111861600D01*
X183083200Y-110236000D01*
X183896000Y-110236000D01*
X183896000Y-111048800D01*
X184708800Y-111048800D01*
X184708800Y-110236000D01*
X183896000Y-110236000D01*
X183083200Y-110236000D01*
X183083200Y-109423200D01*
X185521600Y-109423200D01*
X185521600Y-111861600D01*
G36*
X178206400Y-110236000D02*
X176580800Y-110236000D01*
X176580800Y-109423200D01*
X178206400Y-109423200D01*
X178206400Y-110236000D01*
X178206400Y-110236000D01*
G37*
X178206400Y-110236000D02*
X176580800Y-110236000D01*
X176580800Y-109423200D01*
X178206400Y-109423200D01*
X178206400Y-110236000D01*
G36*
X175768000Y-110236000D02*
X174955200Y-110236000D01*
X174955200Y-109423200D01*
X175768000Y-109423200D01*
X175768000Y-110236000D01*
X175768000Y-110236000D01*
G37*
X175768000Y-110236000D02*
X174955200Y-110236000D01*
X174955200Y-109423200D01*
X175768000Y-109423200D01*
X175768000Y-110236000D01*
G36*
X174955200Y-109423200D02*
X174142400Y-109423200D01*
X174142400Y-108610400D01*
X174955200Y-108610400D01*
X174955200Y-109423200D01*
X174955200Y-109423200D01*
G37*
X174955200Y-109423200D02*
X174142400Y-109423200D01*
X174142400Y-108610400D01*
X174955200Y-108610400D01*
X174955200Y-109423200D01*
G36*
X179019200Y-108610400D02*
X179832000Y-108610400D01*
X179832000Y-109423200D01*
X178206400Y-109423200D01*
X178206400Y-107797600D01*
X179019200Y-107797600D01*
X179019200Y-108610400D01*
X179019200Y-108610400D01*
G37*
X179019200Y-108610400D02*
X179832000Y-108610400D01*
X179832000Y-109423200D01*
X178206400Y-109423200D01*
X178206400Y-107797600D01*
X179019200Y-107797600D01*
X179019200Y-108610400D01*
G36*
X176580800Y-109423200D02*
X175768000Y-109423200D01*
X175768000Y-108610400D01*
X176580800Y-108610400D01*
X176580800Y-109423200D01*
X176580800Y-109423200D01*
G37*
X176580800Y-109423200D02*
X175768000Y-109423200D01*
X175768000Y-108610400D01*
X176580800Y-108610400D01*
X176580800Y-109423200D01*
G36*
X180644800Y-107797600D02*
X179019200Y-107797600D01*
X179019200Y-106984800D01*
X180644800Y-106984800D01*
X180644800Y-107797600D01*
X180644800Y-107797600D01*
G37*
X180644800Y-107797600D02*
X179019200Y-107797600D01*
X179019200Y-106984800D01*
X180644800Y-106984800D01*
X180644800Y-107797600D01*
G36*
X171704000Y-108610400D02*
X170891200Y-108610400D01*
X170891200Y-107797600D01*
X171704000Y-107797600D01*
X171704000Y-108610400D01*
X171704000Y-108610400D01*
G37*
X171704000Y-108610400D02*
X170891200Y-108610400D01*
X170891200Y-107797600D01*
X171704000Y-107797600D01*
X171704000Y-108610400D01*
G36*
X188772800Y-107797600D02*
X187960000Y-107797600D01*
X187960000Y-106984800D01*
X188772800Y-106984800D01*
X188772800Y-107797600D01*
X188772800Y-107797600D01*
G37*
X188772800Y-107797600D02*
X187960000Y-107797600D01*
X187960000Y-106984800D01*
X188772800Y-106984800D01*
X188772800Y-107797600D01*
G36*
X187147200Y-104546400D02*
X187960000Y-104546400D01*
X187960000Y-106984800D01*
X186334400Y-106984800D01*
X186334400Y-106172000D01*
X187147200Y-106172000D01*
X187147200Y-105359200D01*
X186334400Y-105359200D01*
X186334400Y-103733600D01*
X187147200Y-103733600D01*
X187147200Y-104546400D01*
X187147200Y-104546400D01*
G37*
X187147200Y-104546400D02*
X187960000Y-104546400D01*
X187960000Y-106984800D01*
X186334400Y-106984800D01*
X186334400Y-106172000D01*
X187147200Y-106172000D01*
X187147200Y-105359200D01*
X186334400Y-105359200D01*
X186334400Y-103733600D01*
X187147200Y-103733600D01*
X187147200Y-104546400D01*
G36*
X188772800Y-104546400D02*
X187960000Y-104546400D01*
X187960000Y-103733600D01*
X188772800Y-103733600D01*
X188772800Y-104546400D01*
X188772800Y-104546400D01*
G37*
X188772800Y-104546400D02*
X187960000Y-104546400D01*
X187960000Y-103733600D01*
X188772800Y-103733600D01*
X188772800Y-104546400D01*
G36*
X169265600Y-104546400D02*
X170078400Y-104546400D01*
X170078400Y-106172000D01*
X171704000Y-106172000D01*
X171704000Y-106984800D01*
X169265600Y-106984800D01*
X169265600Y-105359200D01*
X168452800Y-105359200D01*
X168452800Y-103733600D01*
X169265600Y-103733600D01*
X169265600Y-104546400D01*
X169265600Y-104546400D01*
G37*
X169265600Y-104546400D02*
X170078400Y-104546400D01*
X170078400Y-106172000D01*
X171704000Y-106172000D01*
X171704000Y-106984800D01*
X169265600Y-106984800D01*
X169265600Y-105359200D01*
X168452800Y-105359200D01*
X168452800Y-103733600D01*
X169265600Y-103733600D01*
X169265600Y-104546400D01*
G36*
X170891200Y-104546400D02*
X170078400Y-104546400D01*
X170078400Y-103733600D01*
X170891200Y-103733600D01*
X170891200Y-104546400D01*
X170891200Y-104546400D01*
G37*
X170891200Y-104546400D02*
X170078400Y-104546400D01*
X170078400Y-103733600D01*
X170891200Y-103733600D01*
X170891200Y-104546400D01*
G36*
X178206400Y-105359200D02*
X179832000Y-105359200D01*
X179832000Y-106172000D01*
X177393600Y-106172000D01*
X177393600Y-104546400D01*
X178206400Y-104546400D01*
X178206400Y-105359200D01*
X178206400Y-105359200D01*
G37*
X178206400Y-105359200D02*
X179832000Y-105359200D01*
X179832000Y-106172000D01*
X177393600Y-106172000D01*
X177393600Y-104546400D01*
X178206400Y-104546400D01*
X178206400Y-105359200D01*
G36*
X176580800Y-105359200D02*
X175768000Y-105359200D01*
X175768000Y-104546400D01*
X176580800Y-104546400D01*
X176580800Y-105359200D01*
X176580800Y-105359200D01*
G37*
X176580800Y-105359200D02*
X175768000Y-105359200D01*
X175768000Y-104546400D01*
X176580800Y-104546400D01*
X176580800Y-105359200D01*
G36*
X179832000Y-104546400D02*
X179019200Y-104546400D01*
X179019200Y-103733600D01*
X179832000Y-103733600D01*
X179832000Y-104546400D01*
X179832000Y-104546400D01*
G37*
X179832000Y-104546400D02*
X179019200Y-104546400D01*
X179019200Y-103733600D01*
X179832000Y-103733600D01*
X179832000Y-104546400D01*
G36*
X175768000Y-103733600D02*
X174955200Y-103733600D01*
X174955200Y-102920800D01*
X175768000Y-102920800D01*
X175768000Y-103733600D01*
X175768000Y-103733600D01*
G37*
X175768000Y-103733600D02*
X174955200Y-103733600D01*
X174955200Y-102920800D01*
X175768000Y-102920800D01*
X175768000Y-103733600D01*
G36*
X178206400Y-103733600D02*
X176580800Y-103733600D01*
X176580800Y-102920800D01*
X178206400Y-102920800D01*
X178206400Y-103733600D01*
X178206400Y-103733600D01*
G37*
X178206400Y-103733600D02*
X176580800Y-103733600D01*
X176580800Y-102920800D01*
X178206400Y-102920800D01*
X178206400Y-103733600D01*
G36*
X179019200Y-102920800D02*
X178206400Y-102920800D01*
X178206400Y-101295200D01*
X179019200Y-101295200D01*
X179019200Y-102920800D01*
X179019200Y-102920800D01*
G37*
X179019200Y-102920800D02*
X178206400Y-102920800D01*
X178206400Y-101295200D01*
X179019200Y-101295200D01*
X179019200Y-102920800D01*
G36*
X176580800Y-102920800D02*
X175768000Y-102920800D01*
X175768000Y-102108000D01*
X176580800Y-102108000D01*
X176580800Y-102920800D01*
X176580800Y-102920800D01*
G37*
X176580800Y-102920800D02*
X175768000Y-102920800D01*
X175768000Y-102108000D01*
X176580800Y-102108000D01*
X176580800Y-102920800D01*
G36*
X179832000Y-101295200D02*
X179019200Y-101295200D01*
X179019200Y-100482400D01*
X179832000Y-100482400D01*
X179832000Y-101295200D01*
X179832000Y-101295200D01*
G37*
X179832000Y-101295200D02*
X179019200Y-101295200D01*
X179019200Y-100482400D01*
X179832000Y-100482400D01*
X179832000Y-101295200D01*
G36*
X180644800Y-100482400D02*
X179832000Y-100482400D01*
X179832000Y-99669600D01*
X180644800Y-99669600D01*
X180644800Y-100482400D01*
X180644800Y-100482400D01*
G37*
X180644800Y-100482400D02*
X179832000Y-100482400D01*
X179832000Y-99669600D01*
X180644800Y-99669600D01*
X180644800Y-100482400D01*
G36*
X179832000Y-99669600D02*
X179019200Y-99669600D01*
X179019200Y-98856800D01*
X179832000Y-98856800D01*
X179832000Y-99669600D01*
X179832000Y-99669600D01*
G37*
X179832000Y-99669600D02*
X179019200Y-99669600D01*
X179019200Y-98856800D01*
X179832000Y-98856800D01*
X179832000Y-99669600D01*
G36*
X181457600Y-99669600D02*
X180644800Y-99669600D01*
X180644800Y-98856800D01*
X181457600Y-98856800D01*
X181457600Y-99669600D01*
X181457600Y-99669600D01*
G37*
X181457600Y-99669600D02*
X180644800Y-99669600D01*
X180644800Y-98856800D01*
X181457600Y-98856800D01*
X181457600Y-99669600D01*
G36*
X182270400Y-98856800D02*
X181457600Y-98856800D01*
X181457600Y-97231200D01*
X182270400Y-97231200D01*
X182270400Y-98856800D01*
X182270400Y-98856800D01*
G37*
X182270400Y-98856800D02*
X181457600Y-98856800D01*
X181457600Y-97231200D01*
X182270400Y-97231200D01*
X182270400Y-98856800D01*
G36*
X180644800Y-96418400D02*
X181457600Y-96418400D01*
X181457600Y-97231200D01*
X180644800Y-97231200D01*
X180644800Y-98044000D01*
X179832000Y-98044000D01*
X179832000Y-94792800D01*
X180644800Y-94792800D01*
X180644800Y-96418400D01*
X180644800Y-96418400D01*
G37*
X180644800Y-96418400D02*
X181457600Y-96418400D01*
X181457600Y-97231200D01*
X180644800Y-97231200D01*
X180644800Y-98044000D01*
X179832000Y-98044000D01*
X179832000Y-94792800D01*
X180644800Y-94792800D01*
X180644800Y-96418400D01*
G36*
X179832000Y-94792800D02*
X179019200Y-94792800D01*
X179019200Y-93980000D01*
X179832000Y-93980000D01*
X179832000Y-94792800D01*
X179832000Y-94792800D01*
G37*
X179832000Y-94792800D02*
X179019200Y-94792800D01*
X179019200Y-93980000D01*
X179832000Y-93980000D01*
X179832000Y-94792800D01*
G36*
X181457600Y-94792800D02*
X180644800Y-94792800D01*
X180644800Y-93167200D01*
X181457600Y-93167200D01*
X181457600Y-94792800D01*
X181457600Y-94792800D01*
G37*
X181457600Y-94792800D02*
X180644800Y-94792800D01*
X180644800Y-93167200D01*
X181457600Y-93167200D01*
X181457600Y-94792800D01*
G36*
X170078400Y-100482400D02*
X169265600Y-100482400D01*
X169265600Y-99669600D01*
X170078400Y-99669600D01*
X170078400Y-100482400D01*
X170078400Y-100482400D01*
G37*
X170078400Y-100482400D02*
X169265600Y-100482400D01*
X169265600Y-99669600D01*
X170078400Y-99669600D01*
X170078400Y-100482400D01*
G36*
X171704000Y-100482400D02*
X170891200Y-100482400D01*
X170891200Y-99669600D01*
X171704000Y-99669600D01*
X171704000Y-100482400D01*
X171704000Y-100482400D01*
G37*
X171704000Y-100482400D02*
X170891200Y-100482400D01*
X170891200Y-99669600D01*
X171704000Y-99669600D01*
X171704000Y-100482400D01*
G36*
X176580800Y-98856800D02*
X175768000Y-98856800D01*
X175768000Y-98044000D01*
X176580800Y-98044000D01*
X176580800Y-98856800D01*
X176580800Y-98856800D01*
G37*
X176580800Y-98856800D02*
X175768000Y-98856800D01*
X175768000Y-98044000D01*
X176580800Y-98044000D01*
X176580800Y-98856800D01*
G36*
X170891200Y-97231200D02*
X166827200Y-97231200D01*
X166827200Y-93980000D01*
X167640000Y-93980000D01*
X167640000Y-96418400D01*
X170078400Y-96418400D01*
X170078400Y-93980000D01*
X167640000Y-93980000D01*
X166827200Y-93980000D01*
X166827200Y-93167200D01*
X170891200Y-93167200D01*
X170891200Y-97231200D01*
X170891200Y-97231200D01*
G37*
X170891200Y-97231200D02*
X166827200Y-97231200D01*
X166827200Y-93980000D01*
X167640000Y-93980000D01*
X167640000Y-96418400D01*
X170078400Y-96418400D01*
X170078400Y-93980000D01*
X167640000Y-93980000D01*
X166827200Y-93980000D01*
X166827200Y-93167200D01*
X170891200Y-93167200D01*
X170891200Y-97231200D01*
G36*
X188772800Y-97231200D02*
X184708800Y-97231200D01*
X184708800Y-93980000D01*
X185521600Y-93980000D01*
X185521600Y-96418400D01*
X187960000Y-96418400D01*
X187960000Y-93980000D01*
X185521600Y-93980000D01*
X184708800Y-93980000D01*
X184708800Y-93167200D01*
X188772800Y-93167200D01*
X188772800Y-97231200D01*
X188772800Y-97231200D01*
G37*
X188772800Y-97231200D02*
X184708800Y-97231200D01*
X184708800Y-93980000D01*
X185521600Y-93980000D01*
X185521600Y-96418400D01*
X187960000Y-96418400D01*
X187960000Y-93980000D01*
X185521600Y-93980000D01*
X184708800Y-93980000D01*
X184708800Y-93167200D01*
X188772800Y-93167200D01*
X188772800Y-97231200D01*
D12*
X155194000Y-105148000D02*
X155994000Y-105148000D01*
X154794000Y-103148000D02*
X155694000Y-103148000D01*
M02*
