G04 #@! TF.FileFunction,Soldermask,Top*
%FSLAX46Y46*%
G04 Gerber Fmt 4.6, Leading zero omitted, Abs format (unit mm)*
G04 Created by KiCad (PCBNEW 4.0.5+dfsg1-4) date Mon Nov 20 15:47:14 2017*
%MOMM*%
%LPD*%
G01*
G04 APERTURE LIST*
%ADD10C,0.100000*%
%ADD11R,1.130000X0.700000*%
%ADD12R,0.700000X1.130000*%
%ADD13R,1.650000X1.650000*%
%ADD14R,1.197560X1.197560*%
%ADD15R,1.200000X1.150000*%
%ADD16R,0.900000X1.300000*%
%ADD17R,0.900000X0.700000*%
%ADD18R,1.460000X1.280000*%
%ADD19R,3.900000X5.400000*%
%ADD20R,3.400000X3.400000*%
%ADD21R,0.900000X0.650000*%
G04 APERTURE END LIST*
D10*
D11*
X150248000Y-95504000D03*
X150248000Y-96004000D03*
X150248000Y-96504000D03*
X150248000Y-97004000D03*
X150248000Y-97504000D03*
D12*
X151213000Y-98469000D03*
X151713000Y-98469000D03*
X152213000Y-98469000D03*
X152713000Y-98469000D03*
X153213000Y-98469000D03*
D11*
X154178000Y-97504000D03*
X154178000Y-97004000D03*
X154178000Y-96504000D03*
X154178000Y-96004000D03*
X154178000Y-95504000D03*
D12*
X153213000Y-94539000D03*
X152713000Y-94539000D03*
X152213000Y-94539000D03*
X151713000Y-94539000D03*
X151213000Y-94539000D03*
D13*
X152838000Y-97129000D03*
X152838000Y-95879000D03*
X151588000Y-97129000D03*
X151588000Y-95879000D03*
D10*
G36*
X154826490Y-99759662D02*
X155639662Y-98946490D01*
X156488190Y-99795018D01*
X155675018Y-100608190D01*
X154826490Y-99759662D01*
X154826490Y-99759662D01*
G37*
G36*
X155887150Y-100820322D02*
X156700322Y-100007150D01*
X157548850Y-100855678D01*
X156735678Y-101668850D01*
X155887150Y-100820322D01*
X155887150Y-100820322D01*
G37*
D14*
X156972000Y-97269300D03*
X156972000Y-95770700D03*
X151650700Y-101092000D03*
X153149300Y-101092000D03*
X147574000Y-95770700D03*
X147574000Y-97269300D03*
X152895300Y-91948000D03*
X151396700Y-91948000D03*
D15*
X154825000Y-110363000D03*
X156325000Y-110363000D03*
X159500000Y-106807000D03*
X158000000Y-106807000D03*
X162548000Y-108839000D03*
X161048000Y-108839000D03*
D16*
X162548000Y-106807000D03*
X161048000Y-106807000D03*
D17*
X154686000Y-106807000D03*
X154686000Y-107307000D03*
X154686000Y-107807000D03*
X154686000Y-108307000D03*
X156486000Y-108307000D03*
X156486000Y-107807000D03*
X156486000Y-107307000D03*
X156486000Y-106807000D03*
D18*
X155586000Y-107997000D03*
X155586000Y-107117000D03*
D19*
X136780000Y-110904000D03*
D20*
X113030000Y-110904000D03*
D21*
X155194000Y-103648000D03*
X155194000Y-104148000D03*
X155194000Y-104648000D03*
X156094000Y-103648000D03*
X156094000Y-104148000D03*
X156094000Y-104648000D03*
M02*
