G04 #@! TF.FileFunction,Legend,Top*
%FSLAX46Y46*%
G04 Gerber Fmt 4.6, Leading zero omitted, Abs format (unit mm)*
G04 Created by KiCad (PCBNEW 4.0.5+dfsg1-4) date Tue Aug  8 22:54:49 2017*
%MOMM*%
%LPD*%
G01*
G04 APERTURE LIST*
%ADD10C,0.100000*%
%ADD11C,0.300000*%
%ADD12C,0.150000*%
%ADD13C,0.010000*%
%ADD14C,0.750000*%
G04 APERTURE END LIST*
D10*
D11*
X115514286Y-77990714D02*
X115442857Y-78062143D01*
X115228571Y-78133571D01*
X115085714Y-78133571D01*
X114871429Y-78062143D01*
X114728571Y-77919286D01*
X114657143Y-77776429D01*
X114585714Y-77490714D01*
X114585714Y-77276429D01*
X114657143Y-76990714D01*
X114728571Y-76847857D01*
X114871429Y-76705000D01*
X115085714Y-76633571D01*
X115228571Y-76633571D01*
X115442857Y-76705000D01*
X115514286Y-76776429D01*
X116800000Y-78133571D02*
X116800000Y-77347857D01*
X116728571Y-77205000D01*
X116585714Y-77133571D01*
X116300000Y-77133571D01*
X116157143Y-77205000D01*
X116800000Y-78062143D02*
X116657143Y-78133571D01*
X116300000Y-78133571D01*
X116157143Y-78062143D01*
X116085714Y-77919286D01*
X116085714Y-77776429D01*
X116157143Y-77633571D01*
X116300000Y-77562143D01*
X116657143Y-77562143D01*
X116800000Y-77490714D01*
X117514286Y-78133571D02*
X117514286Y-77133571D01*
X117514286Y-77276429D02*
X117585714Y-77205000D01*
X117728572Y-77133571D01*
X117942857Y-77133571D01*
X118085714Y-77205000D01*
X118157143Y-77347857D01*
X118157143Y-78133571D01*
X118157143Y-77347857D02*
X118228572Y-77205000D01*
X118371429Y-77133571D01*
X118585714Y-77133571D01*
X118728572Y-77205000D01*
X118800000Y-77347857D01*
X118800000Y-78133571D01*
X120085714Y-78062143D02*
X119942857Y-78133571D01*
X119657143Y-78133571D01*
X119514286Y-78062143D01*
X119442857Y-77919286D01*
X119442857Y-77347857D01*
X119514286Y-77205000D01*
X119657143Y-77133571D01*
X119942857Y-77133571D01*
X120085714Y-77205000D01*
X120157143Y-77347857D01*
X120157143Y-77490714D01*
X119442857Y-77633571D01*
X120800000Y-78133571D02*
X120800000Y-77133571D01*
X120800000Y-77419286D02*
X120871428Y-77276429D01*
X120942857Y-77205000D01*
X121085714Y-77133571D01*
X121228571Y-77133571D01*
X121942857Y-78133571D02*
X121799999Y-78062143D01*
X121728571Y-77990714D01*
X121657142Y-77847857D01*
X121657142Y-77419286D01*
X121728571Y-77276429D01*
X121799999Y-77205000D01*
X121942857Y-77133571D01*
X122157142Y-77133571D01*
X122299999Y-77205000D01*
X122371428Y-77276429D01*
X122442857Y-77419286D01*
X122442857Y-77847857D01*
X122371428Y-77990714D01*
X122299999Y-78062143D01*
X122157142Y-78133571D01*
X121942857Y-78133571D01*
X123085714Y-77133571D02*
X123085714Y-78133571D01*
X123085714Y-77276429D02*
X123157142Y-77205000D01*
X123300000Y-77133571D01*
X123514285Y-77133571D01*
X123657142Y-77205000D01*
X123728571Y-77347857D01*
X123728571Y-78133571D01*
X125585714Y-78133571D02*
X125585714Y-76633571D01*
X126085714Y-77705000D01*
X126585714Y-76633571D01*
X126585714Y-78133571D01*
X127942857Y-78062143D02*
X127800000Y-78133571D01*
X127514286Y-78133571D01*
X127371428Y-78062143D01*
X127300000Y-77990714D01*
X127228571Y-77847857D01*
X127228571Y-77419286D01*
X127300000Y-77276429D01*
X127371428Y-77205000D01*
X127514286Y-77133571D01*
X127800000Y-77133571D01*
X127942857Y-77205000D01*
X129442857Y-77990714D02*
X129371428Y-78062143D01*
X129157142Y-78133571D01*
X129014285Y-78133571D01*
X128800000Y-78062143D01*
X128657142Y-77919286D01*
X128585714Y-77776429D01*
X128514285Y-77490714D01*
X128514285Y-77276429D01*
X128585714Y-76990714D01*
X128657142Y-76847857D01*
X128800000Y-76705000D01*
X129014285Y-76633571D01*
X129157142Y-76633571D01*
X129371428Y-76705000D01*
X129442857Y-76776429D01*
X130728571Y-78133571D02*
X130728571Y-77347857D01*
X130657142Y-77205000D01*
X130514285Y-77133571D01*
X130228571Y-77133571D01*
X130085714Y-77205000D01*
X130728571Y-78062143D02*
X130585714Y-78133571D01*
X130228571Y-78133571D01*
X130085714Y-78062143D01*
X130014285Y-77919286D01*
X130014285Y-77776429D01*
X130085714Y-77633571D01*
X130228571Y-77562143D01*
X130585714Y-77562143D01*
X130728571Y-77490714D01*
X131371428Y-78062143D02*
X131514285Y-78133571D01*
X131800000Y-78133571D01*
X131942857Y-78062143D01*
X132014285Y-77919286D01*
X132014285Y-77847857D01*
X131942857Y-77705000D01*
X131800000Y-77633571D01*
X131585714Y-77633571D01*
X131442857Y-77562143D01*
X131371428Y-77419286D01*
X131371428Y-77347857D01*
X131442857Y-77205000D01*
X131585714Y-77133571D01*
X131800000Y-77133571D01*
X131942857Y-77205000D01*
X132657143Y-78133571D02*
X132657143Y-76633571D01*
X132800000Y-77562143D02*
X133228571Y-78133571D01*
X133228571Y-77133571D02*
X132657143Y-77705000D01*
X134442857Y-78062143D02*
X134300000Y-78133571D01*
X134014286Y-78133571D01*
X133871429Y-78062143D01*
X133800000Y-77919286D01*
X133800000Y-77347857D01*
X133871429Y-77205000D01*
X134014286Y-77133571D01*
X134300000Y-77133571D01*
X134442857Y-77205000D01*
X134514286Y-77347857D01*
X134514286Y-77490714D01*
X133800000Y-77633571D01*
X135014286Y-77133571D02*
X135371429Y-78133571D01*
X135728571Y-77133571D02*
X135371429Y-78133571D01*
X135228571Y-78490714D01*
X135157143Y-78562143D01*
X135014286Y-78633571D01*
X114657143Y-79183571D02*
X114657143Y-80397857D01*
X114728571Y-80540714D01*
X114800000Y-80612143D01*
X114942857Y-80683571D01*
X115228571Y-80683571D01*
X115371429Y-80612143D01*
X115442857Y-80540714D01*
X115514286Y-80397857D01*
X115514286Y-79183571D01*
X116228572Y-79683571D02*
X116228572Y-80683571D01*
X116228572Y-79826429D02*
X116300000Y-79755000D01*
X116442858Y-79683571D01*
X116657143Y-79683571D01*
X116800000Y-79755000D01*
X116871429Y-79897857D01*
X116871429Y-80683571D01*
X117585715Y-80683571D02*
X117585715Y-79683571D01*
X117585715Y-79183571D02*
X117514286Y-79255000D01*
X117585715Y-79326429D01*
X117657143Y-79255000D01*
X117585715Y-79183571D01*
X117585715Y-79326429D01*
X118157144Y-79683571D02*
X118514287Y-80683571D01*
X118871429Y-79683571D01*
X120014286Y-80612143D02*
X119871429Y-80683571D01*
X119585715Y-80683571D01*
X119442858Y-80612143D01*
X119371429Y-80469286D01*
X119371429Y-79897857D01*
X119442858Y-79755000D01*
X119585715Y-79683571D01*
X119871429Y-79683571D01*
X120014286Y-79755000D01*
X120085715Y-79897857D01*
X120085715Y-80040714D01*
X119371429Y-80183571D01*
X120728572Y-80683571D02*
X120728572Y-79683571D01*
X120728572Y-79969286D02*
X120800000Y-79826429D01*
X120871429Y-79755000D01*
X121014286Y-79683571D01*
X121157143Y-79683571D01*
X121585714Y-80612143D02*
X121728571Y-80683571D01*
X122014286Y-80683571D01*
X122157143Y-80612143D01*
X122228571Y-80469286D01*
X122228571Y-80397857D01*
X122157143Y-80255000D01*
X122014286Y-80183571D01*
X121800000Y-80183571D01*
X121657143Y-80112143D01*
X121585714Y-79969286D01*
X121585714Y-79897857D01*
X121657143Y-79755000D01*
X121800000Y-79683571D01*
X122014286Y-79683571D01*
X122157143Y-79755000D01*
X122871429Y-80683571D02*
X122871429Y-79683571D01*
X122871429Y-79183571D02*
X122800000Y-79255000D01*
X122871429Y-79326429D01*
X122942857Y-79255000D01*
X122871429Y-79183571D01*
X122871429Y-79326429D01*
X123371429Y-79683571D02*
X123942858Y-79683571D01*
X123585715Y-79183571D02*
X123585715Y-80469286D01*
X123657143Y-80612143D01*
X123800001Y-80683571D01*
X123942858Y-80683571D01*
X124300001Y-79683571D02*
X124657144Y-80683571D01*
X125014286Y-79683571D02*
X124657144Y-80683571D01*
X124514286Y-81040714D01*
X124442858Y-81112143D01*
X124300001Y-81183571D01*
X126942858Y-80683571D02*
X126800000Y-80612143D01*
X126728572Y-80540714D01*
X126657143Y-80397857D01*
X126657143Y-79969286D01*
X126728572Y-79826429D01*
X126800000Y-79755000D01*
X126942858Y-79683571D01*
X127157143Y-79683571D01*
X127300000Y-79755000D01*
X127371429Y-79826429D01*
X127442858Y-79969286D01*
X127442858Y-80397857D01*
X127371429Y-80540714D01*
X127300000Y-80612143D01*
X127157143Y-80683571D01*
X126942858Y-80683571D01*
X127871429Y-79683571D02*
X128442858Y-79683571D01*
X128085715Y-80683571D02*
X128085715Y-79397857D01*
X128157143Y-79255000D01*
X128300001Y-79183571D01*
X128442858Y-79183571D01*
X129871429Y-79183571D02*
X130728572Y-79183571D01*
X130300001Y-80683571D02*
X130300001Y-79183571D01*
X131442858Y-80683571D02*
X131300000Y-80612143D01*
X131228572Y-80540714D01*
X131157143Y-80397857D01*
X131157143Y-79969286D01*
X131228572Y-79826429D01*
X131300000Y-79755000D01*
X131442858Y-79683571D01*
X131657143Y-79683571D01*
X131800000Y-79755000D01*
X131871429Y-79826429D01*
X131942858Y-79969286D01*
X131942858Y-80397857D01*
X131871429Y-80540714D01*
X131800000Y-80612143D01*
X131657143Y-80683571D01*
X131442858Y-80683571D01*
X132800001Y-80683571D02*
X132657143Y-80612143D01*
X132585715Y-80469286D01*
X132585715Y-79183571D01*
X133942857Y-80612143D02*
X133800000Y-80683571D01*
X133514286Y-80683571D01*
X133371429Y-80612143D01*
X133300000Y-80469286D01*
X133300000Y-79897857D01*
X133371429Y-79755000D01*
X133514286Y-79683571D01*
X133800000Y-79683571D01*
X133942857Y-79755000D01*
X134014286Y-79897857D01*
X134014286Y-80040714D01*
X133300000Y-80183571D01*
X135300000Y-80683571D02*
X135300000Y-79183571D01*
X135300000Y-80612143D02*
X135157143Y-80683571D01*
X134871429Y-80683571D01*
X134728571Y-80612143D01*
X134657143Y-80540714D01*
X134585714Y-80397857D01*
X134585714Y-79969286D01*
X134657143Y-79826429D01*
X134728571Y-79755000D01*
X134871429Y-79683571D01*
X135157143Y-79683571D01*
X135300000Y-79755000D01*
X136228572Y-80683571D02*
X136085714Y-80612143D01*
X136014286Y-80540714D01*
X135942857Y-80397857D01*
X135942857Y-79969286D01*
X136014286Y-79826429D01*
X136085714Y-79755000D01*
X136228572Y-79683571D01*
X136442857Y-79683571D01*
X136585714Y-79755000D01*
X136657143Y-79826429D01*
X136728572Y-79969286D01*
X136728572Y-80397857D01*
X136657143Y-80540714D01*
X136585714Y-80612143D01*
X136442857Y-80683571D01*
X136228572Y-80683571D01*
X115157143Y-82447857D02*
X115371429Y-82519286D01*
X115442857Y-82590714D01*
X115514286Y-82733571D01*
X115514286Y-82947857D01*
X115442857Y-83090714D01*
X115371429Y-83162143D01*
X115228571Y-83233571D01*
X114657143Y-83233571D01*
X114657143Y-81733571D01*
X115157143Y-81733571D01*
X115300000Y-81805000D01*
X115371429Y-81876429D01*
X115442857Y-82019286D01*
X115442857Y-82162143D01*
X115371429Y-82305000D01*
X115300000Y-82376429D01*
X115157143Y-82447857D01*
X114657143Y-82447857D01*
X116085714Y-83162143D02*
X116300000Y-83233571D01*
X116657143Y-83233571D01*
X116800000Y-83162143D01*
X116871429Y-83090714D01*
X116942857Y-82947857D01*
X116942857Y-82805000D01*
X116871429Y-82662143D01*
X116800000Y-82590714D01*
X116657143Y-82519286D01*
X116371429Y-82447857D01*
X116228571Y-82376429D01*
X116157143Y-82305000D01*
X116085714Y-82162143D01*
X116085714Y-82019286D01*
X116157143Y-81876429D01*
X116228571Y-81805000D01*
X116371429Y-81733571D01*
X116728571Y-81733571D01*
X116942857Y-81805000D01*
X118728571Y-82447857D02*
X119228571Y-82447857D01*
X119442857Y-83233571D02*
X118728571Y-83233571D01*
X118728571Y-81733571D01*
X119442857Y-81733571D01*
X120300000Y-83233571D02*
X120157142Y-83162143D01*
X120085714Y-83019286D01*
X120085714Y-81733571D01*
X121442856Y-83162143D02*
X121299999Y-83233571D01*
X121014285Y-83233571D01*
X120871428Y-83162143D01*
X120799999Y-83019286D01*
X120799999Y-82447857D01*
X120871428Y-82305000D01*
X121014285Y-82233571D01*
X121299999Y-82233571D01*
X121442856Y-82305000D01*
X121514285Y-82447857D01*
X121514285Y-82590714D01*
X120799999Y-82733571D01*
X122799999Y-83162143D02*
X122657142Y-83233571D01*
X122371428Y-83233571D01*
X122228570Y-83162143D01*
X122157142Y-83090714D01*
X122085713Y-82947857D01*
X122085713Y-82519286D01*
X122157142Y-82376429D01*
X122228570Y-82305000D01*
X122371428Y-82233571D01*
X122657142Y-82233571D01*
X122799999Y-82305000D01*
X123228570Y-82233571D02*
X123799999Y-82233571D01*
X123442856Y-81733571D02*
X123442856Y-83019286D01*
X123514284Y-83162143D01*
X123657142Y-83233571D01*
X123799999Y-83233571D01*
X124299999Y-83233571D02*
X124299999Y-82233571D01*
X124299999Y-82519286D02*
X124371427Y-82376429D01*
X124442856Y-82305000D01*
X124585713Y-82233571D01*
X124728570Y-82233571D01*
X125228570Y-83233571D02*
X125228570Y-82233571D01*
X125228570Y-81733571D02*
X125157141Y-81805000D01*
X125228570Y-81876429D01*
X125299998Y-81805000D01*
X125228570Y-81733571D01*
X125228570Y-81876429D01*
X126585713Y-83162143D02*
X126442856Y-83233571D01*
X126157142Y-83233571D01*
X126014284Y-83162143D01*
X125942856Y-83090714D01*
X125871427Y-82947857D01*
X125871427Y-82519286D01*
X125942856Y-82376429D01*
X126014284Y-82305000D01*
X126157142Y-82233571D01*
X126442856Y-82233571D01*
X126585713Y-82305000D01*
X127871427Y-83233571D02*
X127871427Y-82447857D01*
X127799998Y-82305000D01*
X127657141Y-82233571D01*
X127371427Y-82233571D01*
X127228570Y-82305000D01*
X127871427Y-83162143D02*
X127728570Y-83233571D01*
X127371427Y-83233571D01*
X127228570Y-83162143D01*
X127157141Y-83019286D01*
X127157141Y-82876429D01*
X127228570Y-82733571D01*
X127371427Y-82662143D01*
X127728570Y-82662143D01*
X127871427Y-82590714D01*
X128799999Y-83233571D02*
X128657141Y-83162143D01*
X128585713Y-83019286D01*
X128585713Y-81733571D01*
X130514284Y-82447857D02*
X131014284Y-82447857D01*
X131228570Y-83233571D02*
X130514284Y-83233571D01*
X130514284Y-81733571D01*
X131228570Y-81733571D01*
X131871427Y-82233571D02*
X131871427Y-83233571D01*
X131871427Y-82376429D02*
X131942855Y-82305000D01*
X132085713Y-82233571D01*
X132299998Y-82233571D01*
X132442855Y-82305000D01*
X132514284Y-82447857D01*
X132514284Y-83233571D01*
X133871427Y-82233571D02*
X133871427Y-83447857D01*
X133799998Y-83590714D01*
X133728570Y-83662143D01*
X133585713Y-83733571D01*
X133371427Y-83733571D01*
X133228570Y-83662143D01*
X133871427Y-83162143D02*
X133728570Y-83233571D01*
X133442856Y-83233571D01*
X133299998Y-83162143D01*
X133228570Y-83090714D01*
X133157141Y-82947857D01*
X133157141Y-82519286D01*
X133228570Y-82376429D01*
X133299998Y-82305000D01*
X133442856Y-82233571D01*
X133728570Y-82233571D01*
X133871427Y-82305000D01*
X134585713Y-83233571D02*
X134585713Y-82233571D01*
X134585713Y-81733571D02*
X134514284Y-81805000D01*
X134585713Y-81876429D01*
X134657141Y-81805000D01*
X134585713Y-81733571D01*
X134585713Y-81876429D01*
X135299999Y-82233571D02*
X135299999Y-83233571D01*
X135299999Y-82376429D02*
X135371427Y-82305000D01*
X135514285Y-82233571D01*
X135728570Y-82233571D01*
X135871427Y-82305000D01*
X135942856Y-82447857D01*
X135942856Y-83233571D01*
X137228570Y-83162143D02*
X137085713Y-83233571D01*
X136799999Y-83233571D01*
X136657142Y-83162143D01*
X136585713Y-83019286D01*
X136585713Y-82447857D01*
X136657142Y-82305000D01*
X136799999Y-82233571D01*
X137085713Y-82233571D01*
X137228570Y-82305000D01*
X137299999Y-82447857D01*
X137299999Y-82590714D01*
X136585713Y-82733571D01*
X138514284Y-83162143D02*
X138371427Y-83233571D01*
X138085713Y-83233571D01*
X137942856Y-83162143D01*
X137871427Y-83019286D01*
X137871427Y-82447857D01*
X137942856Y-82305000D01*
X138085713Y-82233571D01*
X138371427Y-82233571D01*
X138514284Y-82305000D01*
X138585713Y-82447857D01*
X138585713Y-82590714D01*
X137871427Y-82733571D01*
X139799998Y-83162143D02*
X139657141Y-83233571D01*
X139371427Y-83233571D01*
X139228570Y-83162143D01*
X139157141Y-83019286D01*
X139157141Y-82447857D01*
X139228570Y-82305000D01*
X139371427Y-82233571D01*
X139657141Y-82233571D01*
X139799998Y-82305000D01*
X139871427Y-82447857D01*
X139871427Y-82590714D01*
X139157141Y-82733571D01*
X140514284Y-83233571D02*
X140514284Y-82233571D01*
X140514284Y-82519286D02*
X140585712Y-82376429D01*
X140657141Y-82305000D01*
X140799998Y-82233571D01*
X140942855Y-82233571D01*
X141442855Y-83233571D02*
X141442855Y-82233571D01*
X141442855Y-81733571D02*
X141371426Y-81805000D01*
X141442855Y-81876429D01*
X141514283Y-81805000D01*
X141442855Y-81733571D01*
X141442855Y-81876429D01*
X142157141Y-82233571D02*
X142157141Y-83233571D01*
X142157141Y-82376429D02*
X142228569Y-82305000D01*
X142371427Y-82233571D01*
X142585712Y-82233571D01*
X142728569Y-82305000D01*
X142799998Y-82447857D01*
X142799998Y-83233571D01*
X144157141Y-82233571D02*
X144157141Y-83447857D01*
X144085712Y-83590714D01*
X144014284Y-83662143D01*
X143871427Y-83733571D01*
X143657141Y-83733571D01*
X143514284Y-83662143D01*
X144157141Y-83162143D02*
X144014284Y-83233571D01*
X143728570Y-83233571D01*
X143585712Y-83162143D01*
X143514284Y-83090714D01*
X143442855Y-82947857D01*
X143442855Y-82519286D01*
X143514284Y-82376429D01*
X143585712Y-82305000D01*
X143728570Y-82233571D01*
X144014284Y-82233571D01*
X144157141Y-82305000D01*
X144942855Y-83162143D02*
X144942855Y-83233571D01*
X144871427Y-83376429D01*
X144799998Y-83447857D01*
X146657141Y-81876429D02*
X146728570Y-81805000D01*
X146871427Y-81733571D01*
X147228570Y-81733571D01*
X147371427Y-81805000D01*
X147442856Y-81876429D01*
X147514284Y-82019286D01*
X147514284Y-82162143D01*
X147442856Y-82376429D01*
X146585713Y-83233571D01*
X147514284Y-83233571D01*
X148442855Y-81733571D02*
X148585712Y-81733571D01*
X148728569Y-81805000D01*
X148799998Y-81876429D01*
X148871427Y-82019286D01*
X148942855Y-82305000D01*
X148942855Y-82662143D01*
X148871427Y-82947857D01*
X148799998Y-83090714D01*
X148728569Y-83162143D01*
X148585712Y-83233571D01*
X148442855Y-83233571D01*
X148299998Y-83162143D01*
X148228569Y-83090714D01*
X148157141Y-82947857D01*
X148085712Y-82662143D01*
X148085712Y-82305000D01*
X148157141Y-82019286D01*
X148228569Y-81876429D01*
X148299998Y-81805000D01*
X148442855Y-81733571D01*
X149514283Y-81876429D02*
X149585712Y-81805000D01*
X149728569Y-81733571D01*
X150085712Y-81733571D01*
X150228569Y-81805000D01*
X150299998Y-81876429D01*
X150371426Y-82019286D01*
X150371426Y-82162143D01*
X150299998Y-82376429D01*
X149442855Y-83233571D01*
X150371426Y-83233571D01*
X151299997Y-81733571D02*
X151442854Y-81733571D01*
X151585711Y-81805000D01*
X151657140Y-81876429D01*
X151728569Y-82019286D01*
X151799997Y-82305000D01*
X151799997Y-82662143D01*
X151728569Y-82947857D01*
X151657140Y-83090714D01*
X151585711Y-83162143D01*
X151442854Y-83233571D01*
X151299997Y-83233571D01*
X151157140Y-83162143D01*
X151085711Y-83090714D01*
X151014283Y-82947857D01*
X150942854Y-82662143D01*
X150942854Y-82305000D01*
X151014283Y-82019286D01*
X151085711Y-81876429D01*
X151157140Y-81805000D01*
X151299997Y-81733571D01*
X115300000Y-84783571D02*
X115300000Y-85783571D01*
X114942857Y-84212143D02*
X114585714Y-85283571D01*
X115514286Y-85283571D01*
X116871428Y-85783571D02*
X116014285Y-85783571D01*
X116442857Y-85783571D02*
X116442857Y-84283571D01*
X116300000Y-84497857D01*
X116157142Y-84640714D01*
X116014285Y-84712143D01*
X117585713Y-85783571D02*
X117871428Y-85783571D01*
X118014285Y-85712143D01*
X118085713Y-85640714D01*
X118228571Y-85426429D01*
X118299999Y-85140714D01*
X118299999Y-84569286D01*
X118228571Y-84426429D01*
X118157142Y-84355000D01*
X118014285Y-84283571D01*
X117728571Y-84283571D01*
X117585713Y-84355000D01*
X117514285Y-84426429D01*
X117442856Y-84569286D01*
X117442856Y-84926429D01*
X117514285Y-85069286D01*
X117585713Y-85140714D01*
X117728571Y-85212143D01*
X118014285Y-85212143D01*
X118157142Y-85140714D01*
X118228571Y-85069286D01*
X118299999Y-84926429D01*
X118942856Y-85212143D02*
X120085713Y-85212143D01*
X120728570Y-84426429D02*
X120799999Y-84355000D01*
X120942856Y-84283571D01*
X121299999Y-84283571D01*
X121442856Y-84355000D01*
X121514285Y-84426429D01*
X121585713Y-84569286D01*
X121585713Y-84712143D01*
X121514285Y-84926429D01*
X120657142Y-85783571D01*
X121585713Y-85783571D01*
X122442856Y-84926429D02*
X122299998Y-84855000D01*
X122228570Y-84783571D01*
X122157141Y-84640714D01*
X122157141Y-84569286D01*
X122228570Y-84426429D01*
X122299998Y-84355000D01*
X122442856Y-84283571D01*
X122728570Y-84283571D01*
X122871427Y-84355000D01*
X122942856Y-84426429D01*
X123014284Y-84569286D01*
X123014284Y-84640714D01*
X122942856Y-84783571D01*
X122871427Y-84855000D01*
X122728570Y-84926429D01*
X122442856Y-84926429D01*
X122299998Y-84997857D01*
X122228570Y-85069286D01*
X122157141Y-85212143D01*
X122157141Y-85497857D01*
X122228570Y-85640714D01*
X122299998Y-85712143D01*
X122442856Y-85783571D01*
X122728570Y-85783571D01*
X122871427Y-85712143D01*
X122942856Y-85640714D01*
X123014284Y-85497857D01*
X123014284Y-85212143D01*
X122942856Y-85069286D01*
X122871427Y-84997857D01*
X122728570Y-84926429D01*
X123942855Y-84283571D02*
X124085712Y-84283571D01*
X124228569Y-84355000D01*
X124299998Y-84426429D01*
X124371427Y-84569286D01*
X124442855Y-84855000D01*
X124442855Y-85212143D01*
X124371427Y-85497857D01*
X124299998Y-85640714D01*
X124228569Y-85712143D01*
X124085712Y-85783571D01*
X123942855Y-85783571D01*
X123799998Y-85712143D01*
X123728569Y-85640714D01*
X123657141Y-85497857D01*
X123585712Y-85212143D01*
X123585712Y-84855000D01*
X123657141Y-84569286D01*
X123728569Y-84426429D01*
X123799998Y-84355000D01*
X123942855Y-84283571D01*
X125085712Y-85212143D02*
X126228569Y-85212143D01*
X127228569Y-84283571D02*
X127371426Y-84283571D01*
X127514283Y-84355000D01*
X127585712Y-84426429D01*
X127657141Y-84569286D01*
X127728569Y-84855000D01*
X127728569Y-85212143D01*
X127657141Y-85497857D01*
X127585712Y-85640714D01*
X127514283Y-85712143D01*
X127371426Y-85783571D01*
X127228569Y-85783571D01*
X127085712Y-85712143D01*
X127014283Y-85640714D01*
X126942855Y-85497857D01*
X126871426Y-85212143D01*
X126871426Y-84855000D01*
X126942855Y-84569286D01*
X127014283Y-84426429D01*
X127085712Y-84355000D01*
X127228569Y-84283571D01*
X128585712Y-84926429D02*
X128442854Y-84855000D01*
X128371426Y-84783571D01*
X128299997Y-84640714D01*
X128299997Y-84569286D01*
X128371426Y-84426429D01*
X128442854Y-84355000D01*
X128585712Y-84283571D01*
X128871426Y-84283571D01*
X129014283Y-84355000D01*
X129085712Y-84426429D01*
X129157140Y-84569286D01*
X129157140Y-84640714D01*
X129085712Y-84783571D01*
X129014283Y-84855000D01*
X128871426Y-84926429D01*
X128585712Y-84926429D01*
X128442854Y-84997857D01*
X128371426Y-85069286D01*
X128299997Y-85212143D01*
X128299997Y-85497857D01*
X128371426Y-85640714D01*
X128442854Y-85712143D01*
X128585712Y-85783571D01*
X128871426Y-85783571D01*
X129014283Y-85712143D01*
X129085712Y-85640714D01*
X129157140Y-85497857D01*
X129157140Y-85212143D01*
X129085712Y-85069286D01*
X129014283Y-84997857D01*
X128871426Y-84926429D01*
X130442854Y-84283571D02*
X130157140Y-84283571D01*
X130014283Y-84355000D01*
X129942854Y-84426429D01*
X129799997Y-84640714D01*
X129728568Y-84926429D01*
X129728568Y-85497857D01*
X129799997Y-85640714D01*
X129871425Y-85712143D01*
X130014283Y-85783571D01*
X130299997Y-85783571D01*
X130442854Y-85712143D01*
X130514283Y-85640714D01*
X130585711Y-85497857D01*
X130585711Y-85140714D01*
X130514283Y-84997857D01*
X130442854Y-84926429D01*
X130299997Y-84855000D01*
X130014283Y-84855000D01*
X129871425Y-84926429D01*
X129799997Y-84997857D01*
X129728568Y-85140714D01*
X131442854Y-84926429D02*
X131299996Y-84855000D01*
X131228568Y-84783571D01*
X131157139Y-84640714D01*
X131157139Y-84569286D01*
X131228568Y-84426429D01*
X131299996Y-84355000D01*
X131442854Y-84283571D01*
X131728568Y-84283571D01*
X131871425Y-84355000D01*
X131942854Y-84426429D01*
X132014282Y-84569286D01*
X132014282Y-84640714D01*
X131942854Y-84783571D01*
X131871425Y-84855000D01*
X131728568Y-84926429D01*
X131442854Y-84926429D01*
X131299996Y-84997857D01*
X131228568Y-85069286D01*
X131157139Y-85212143D01*
X131157139Y-85497857D01*
X131228568Y-85640714D01*
X131299996Y-85712143D01*
X131442854Y-85783571D01*
X131728568Y-85783571D01*
X131871425Y-85712143D01*
X131942854Y-85640714D01*
X132014282Y-85497857D01*
X132014282Y-85212143D01*
X131942854Y-85069286D01*
X131871425Y-84997857D01*
X131728568Y-84926429D01*
D12*
X153824447Y-104715919D02*
X154319421Y-105210893D01*
X153470893Y-106059421D02*
X152975919Y-105564447D01*
X153120000Y-100500000D02*
X153120000Y-102400000D01*
X154220000Y-100500000D02*
X154220000Y-102400000D01*
X153670000Y-101400000D02*
X153670000Y-101850000D01*
X153920000Y-101350000D02*
X153420000Y-101350000D01*
X153670000Y-101350000D02*
X153920000Y-101600000D01*
X153920000Y-101600000D02*
X153420000Y-101600000D01*
X153420000Y-101600000D02*
X153670000Y-101350000D01*
X150960000Y-104860000D02*
X149060000Y-104860000D01*
X150960000Y-105960000D02*
X149060000Y-105960000D01*
X150060000Y-105410000D02*
X149610000Y-105410000D01*
X150110000Y-105660000D02*
X150110000Y-105160000D01*
X150110000Y-105410000D02*
X149860000Y-105660000D01*
X149860000Y-105660000D02*
X149860000Y-105160000D01*
X149860000Y-105160000D02*
X150110000Y-105410000D01*
X146346000Y-102700000D02*
X146346000Y-100800000D01*
X145246000Y-102700000D02*
X145246000Y-100800000D01*
X145796000Y-101800000D02*
X145796000Y-101350000D01*
X145546000Y-101850000D02*
X146046000Y-101850000D01*
X145796000Y-101850000D02*
X145546000Y-101600000D01*
X145546000Y-101600000D02*
X146046000Y-101600000D01*
X146046000Y-101600000D02*
X145796000Y-101850000D01*
X148506000Y-98340000D02*
X150406000Y-98340000D01*
X148506000Y-97240000D02*
X150406000Y-97240000D01*
X149406000Y-97790000D02*
X149856000Y-97790000D01*
X149356000Y-97540000D02*
X149356000Y-98040000D01*
X149356000Y-97790000D02*
X149606000Y-97540000D01*
X149606000Y-97540000D02*
X149606000Y-98040000D01*
X149606000Y-98040000D02*
X149356000Y-97790000D01*
X151823000Y-99434000D02*
X151823000Y-100209000D01*
X147523000Y-103734000D02*
X147523000Y-102959000D01*
X151823000Y-103734000D02*
X151823000Y-102959000D01*
X147523000Y-99434000D02*
X148298000Y-99434000D01*
X147523000Y-103734000D02*
X148298000Y-103734000D01*
X151823000Y-103734000D02*
X151048000Y-103734000D01*
X151823000Y-99434000D02*
X151048000Y-99434000D01*
X162464000Y-84236000D02*
X163164000Y-84236000D01*
X163164000Y-85436000D02*
X162464000Y-85436000D01*
X166720000Y-81880000D02*
X166020000Y-81880000D01*
X166020000Y-80680000D02*
X166720000Y-80680000D01*
X169768000Y-83912000D02*
X169068000Y-83912000D01*
X169068000Y-82712000D02*
X169768000Y-82712000D01*
X168918000Y-80605000D02*
X169918000Y-80605000D01*
X169918000Y-81955000D02*
X168918000Y-81955000D01*
X161634000Y-83655000D02*
X163734000Y-83655000D01*
X160859000Y-80405000D02*
X163734000Y-80405000D01*
D13*
G36*
X177082004Y-77948460D02*
X177207640Y-77973995D01*
X177311050Y-78014972D01*
X177421518Y-78082527D01*
X177513610Y-78167478D01*
X177587593Y-78270138D01*
X177643734Y-78390818D01*
X177650399Y-78409800D01*
X177656349Y-78428057D01*
X177661406Y-78446250D01*
X177665656Y-78466555D01*
X177669189Y-78491151D01*
X177672091Y-78522215D01*
X177674450Y-78561923D01*
X177676355Y-78612453D01*
X177677894Y-78675982D01*
X177679154Y-78754688D01*
X177680224Y-78850747D01*
X177681191Y-78966338D01*
X177682144Y-79103636D01*
X177682844Y-79213075D01*
X177683778Y-79345739D01*
X177684844Y-79470503D01*
X177686012Y-79585107D01*
X177687249Y-79687297D01*
X177688523Y-79774814D01*
X177689802Y-79845402D01*
X177691054Y-79896803D01*
X177692246Y-79926761D01*
X177693086Y-79933800D01*
X177706273Y-79928041D01*
X177734897Y-79913051D01*
X177767268Y-79895150D01*
X177878281Y-79846666D01*
X177997528Y-79820222D01*
X178120389Y-79815950D01*
X178242247Y-79833980D01*
X178358484Y-79874444D01*
X178366300Y-79878124D01*
X178423992Y-79912897D01*
X178486759Y-79962310D01*
X178548689Y-80020525D01*
X178603870Y-80081700D01*
X178646389Y-80139996D01*
X178663707Y-80171925D01*
X178680555Y-80207846D01*
X178693407Y-80232052D01*
X178698461Y-80238600D01*
X178710690Y-80231645D01*
X178735131Y-80214306D01*
X178743836Y-80207753D01*
X178832216Y-80154638D01*
X178937328Y-80115696D01*
X179053849Y-80092505D01*
X179153419Y-80086350D01*
X179285561Y-80097165D01*
X179405444Y-80130123D01*
X179513652Y-80185454D01*
X179610767Y-80263388D01*
X179615471Y-80268010D01*
X179693772Y-80358395D01*
X179750697Y-80454907D01*
X179789068Y-80563177D01*
X179806479Y-80649516D01*
X179813512Y-80690338D01*
X179820187Y-80719911D01*
X179824121Y-80730254D01*
X179837566Y-80727843D01*
X179866153Y-80715176D01*
X179897921Y-80698206D01*
X180004126Y-80651711D01*
X180120443Y-80625543D01*
X180241799Y-80619672D01*
X180363117Y-80634066D01*
X180479323Y-80668695D01*
X180550018Y-80702209D01*
X180644776Y-80768542D01*
X180728258Y-80853872D01*
X180796896Y-80953085D01*
X180847124Y-81061070D01*
X180874556Y-81167239D01*
X180877255Y-81198745D01*
X180879491Y-81255013D01*
X180881260Y-81335407D01*
X180882556Y-81439293D01*
X180883376Y-81566037D01*
X180883714Y-81715003D01*
X180883566Y-81885557D01*
X180882926Y-82077064D01*
X180882301Y-82202289D01*
X180881202Y-82387245D01*
X180880064Y-82548584D01*
X180878847Y-82688090D01*
X180877508Y-82807547D01*
X180876005Y-82908738D01*
X180874295Y-82993446D01*
X180872338Y-83063456D01*
X180870091Y-83120550D01*
X180867511Y-83166512D01*
X180864557Y-83203126D01*
X180861187Y-83232176D01*
X180857473Y-83254850D01*
X180800259Y-83496458D01*
X180724486Y-83721426D01*
X180629374Y-83931256D01*
X180514143Y-84127447D01*
X180378014Y-84311500D01*
X180220206Y-84484915D01*
X180215985Y-84489119D01*
X180037359Y-84649921D01*
X179847483Y-84788330D01*
X179645631Y-84904711D01*
X179431072Y-84999429D01*
X179203079Y-85072850D01*
X178960922Y-85125341D01*
X178943000Y-85128309D01*
X178886869Y-85134962D01*
X178812006Y-85140356D01*
X178724946Y-85144359D01*
X178632223Y-85146839D01*
X178540372Y-85147665D01*
X178455928Y-85146703D01*
X178385427Y-85143821D01*
X178346100Y-85140379D01*
X178093666Y-85097665D01*
X177853089Y-85032641D01*
X177623809Y-84945030D01*
X177405263Y-84834560D01*
X177196889Y-84700955D01*
X176998127Y-84543940D01*
X176856216Y-84411836D01*
X176732958Y-84280685D01*
X176613191Y-84135318D01*
X176494971Y-83973061D01*
X176376352Y-83791238D01*
X176255389Y-83587172D01*
X176250582Y-83578700D01*
X176168040Y-83434907D01*
X176083081Y-83290916D01*
X175993693Y-83143506D01*
X175897869Y-82989456D01*
X175793597Y-82825548D01*
X175678868Y-82648560D01*
X175551673Y-82455274D01*
X175512122Y-82395644D01*
X175398541Y-82224240D01*
X175298319Y-82071935D01*
X175210398Y-81936916D01*
X175133717Y-81817371D01*
X175067217Y-81711489D01*
X175009839Y-81617456D01*
X174960524Y-81533461D01*
X174918213Y-81457691D01*
X174881845Y-81388334D01*
X174850362Y-81323578D01*
X174822704Y-81261610D01*
X174797813Y-81200620D01*
X174774628Y-81138793D01*
X174770175Y-81126372D01*
X174748572Y-81063342D01*
X174734686Y-81013953D01*
X174726747Y-80968285D01*
X174722984Y-80916416D01*
X174721839Y-80861704D01*
X174987274Y-80861704D01*
X174999781Y-80945779D01*
X175029566Y-81044083D01*
X175076771Y-81157595D01*
X175141535Y-81287290D01*
X175219262Y-81426050D01*
X175239755Y-81460216D01*
X175272390Y-81513440D01*
X175315677Y-81583345D01*
X175368132Y-81667552D01*
X175428267Y-81763686D01*
X175494597Y-81869368D01*
X175565633Y-81982221D01*
X175639891Y-82099867D01*
X175699705Y-82194400D01*
X175793686Y-82342837D01*
X175875760Y-82472670D01*
X175947670Y-82586717D01*
X176011158Y-82687797D01*
X176067965Y-82778726D01*
X176119834Y-82862324D01*
X176168506Y-82941408D01*
X176215724Y-83018796D01*
X176263229Y-83097306D01*
X176312763Y-83179756D01*
X176366068Y-83268964D01*
X176421942Y-83362800D01*
X176564425Y-83593577D01*
X176703681Y-83800683D01*
X176841099Y-83985423D01*
X176978070Y-84149103D01*
X177115981Y-84293029D01*
X177256222Y-84418506D01*
X177400181Y-84526841D01*
X177549249Y-84619338D01*
X177704814Y-84697304D01*
X177868266Y-84762043D01*
X177933656Y-84783739D01*
X178113159Y-84831346D01*
X178300574Y-84864491D01*
X178488978Y-84882472D01*
X178671451Y-84884585D01*
X178816333Y-84873428D01*
X179039284Y-84834232D01*
X179250332Y-84773116D01*
X179451796Y-84689180D01*
X179645997Y-84581521D01*
X179755256Y-84508537D01*
X179834706Y-84447057D01*
X179921796Y-84371103D01*
X180010759Y-84286391D01*
X180095829Y-84198632D01*
X180171239Y-84113542D01*
X180230884Y-84037305D01*
X180307686Y-83921077D01*
X180380161Y-83794913D01*
X180445268Y-83665079D01*
X180499968Y-83537840D01*
X180541219Y-83419465D01*
X180554905Y-83369454D01*
X180566755Y-83320679D01*
X180577047Y-83276176D01*
X180585891Y-83233819D01*
X180593398Y-83191480D01*
X180599677Y-83147034D01*
X180604840Y-83098352D01*
X180608995Y-83043309D01*
X180612253Y-82979776D01*
X180614725Y-82905628D01*
X180616521Y-82818737D01*
X180617750Y-82716977D01*
X180618523Y-82598220D01*
X180618951Y-82460340D01*
X180619142Y-82301210D01*
X180619207Y-82128201D01*
X180619230Y-81954198D01*
X180619187Y-81803723D01*
X180619025Y-81674903D01*
X180618695Y-81565869D01*
X180618145Y-81474746D01*
X180617322Y-81399663D01*
X180616177Y-81338749D01*
X180614658Y-81290130D01*
X180612713Y-81251937D01*
X180610292Y-81222295D01*
X180607343Y-81199334D01*
X180603815Y-81181181D01*
X180599656Y-81165965D01*
X180594815Y-81151813D01*
X180592285Y-81144982D01*
X180548895Y-81061812D01*
X180487499Y-80990438D01*
X180412735Y-80934753D01*
X180329243Y-80898649D01*
X180287682Y-80889456D01*
X180188056Y-80884642D01*
X180097203Y-80902806D01*
X180012155Y-80944837D01*
X179953675Y-80989650D01*
X179896852Y-81051258D01*
X179856924Y-81123000D01*
X179831972Y-81209303D01*
X179821252Y-81295327D01*
X179812950Y-81413350D01*
X179558950Y-81413350D01*
X179552600Y-81032350D01*
X179550676Y-80922976D01*
X179548797Y-80835882D01*
X179546726Y-80767949D01*
X179544226Y-80716057D01*
X179541058Y-80677088D01*
X179536986Y-80647923D01*
X179531771Y-80625444D01*
X179525176Y-80606530D01*
X179519105Y-80592645D01*
X179466955Y-80508923D01*
X179395322Y-80437531D01*
X179318411Y-80387994D01*
X179231281Y-80356478D01*
X179140748Y-80346693D01*
X179052744Y-80358811D01*
X178999007Y-80378851D01*
X178919743Y-80428518D01*
X178849601Y-80493954D01*
X178796366Y-80567776D01*
X178792638Y-80574640D01*
X178781042Y-80597547D01*
X178772379Y-80618935D01*
X178766143Y-80642990D01*
X178761831Y-80673900D01*
X178758938Y-80715851D01*
X178756960Y-80773030D01*
X178755393Y-80849624D01*
X178754721Y-80889475D01*
X178750593Y-81140300D01*
X178485800Y-81140300D01*
X178485800Y-80786962D01*
X178485513Y-80671364D01*
X178484335Y-80577813D01*
X178481791Y-80502955D01*
X178477403Y-80443442D01*
X178470697Y-80395921D01*
X178461196Y-80357041D01*
X178448425Y-80323453D01*
X178431907Y-80291804D01*
X178411166Y-80258743D01*
X178410667Y-80257986D01*
X178367634Y-80206852D01*
X178310801Y-80158225D01*
X178249385Y-80119127D01*
X178202184Y-80099137D01*
X178159830Y-80090542D01*
X178106178Y-80085019D01*
X178068931Y-80083847D01*
X177978851Y-80096634D01*
X177893544Y-80132221D01*
X177816932Y-80188020D01*
X177752942Y-80261444D01*
X177722641Y-80312094D01*
X177715084Y-80327290D01*
X177708856Y-80342194D01*
X177703794Y-80359360D01*
X177699737Y-80381344D01*
X177696521Y-80410699D01*
X177693984Y-80449980D01*
X177691964Y-80501742D01*
X177690297Y-80568539D01*
X177688823Y-80652925D01*
X177687376Y-80757455D01*
X177685797Y-80884684D01*
X177685700Y-80892650D01*
X177679350Y-81413350D01*
X177425350Y-81413350D01*
X177418777Y-79971900D01*
X177417551Y-79723231D01*
X177416246Y-79499352D01*
X177414857Y-79299654D01*
X177413373Y-79123527D01*
X177411786Y-78970361D01*
X177410088Y-78839547D01*
X177408269Y-78730475D01*
X177406323Y-78642535D01*
X177404240Y-78575118D01*
X177402011Y-78527615D01*
X177399628Y-78499414D01*
X177398044Y-78491286D01*
X177352358Y-78401406D01*
X177285848Y-78323372D01*
X177201645Y-78260585D01*
X177170066Y-78243573D01*
X177126356Y-78225598D01*
X177081130Y-78216126D01*
X177023453Y-78213035D01*
X177012600Y-78212991D01*
X176958459Y-78214477D01*
X176917986Y-78220810D01*
X176879523Y-78234883D01*
X176836910Y-78256603D01*
X176750128Y-78317265D01*
X176682195Y-78394899D01*
X176645052Y-78461329D01*
X176641241Y-78470152D01*
X176637827Y-78479823D01*
X176634790Y-78491722D01*
X176632106Y-78507225D01*
X176629753Y-78527711D01*
X176627710Y-78554556D01*
X176625954Y-78589140D01*
X176624462Y-78632839D01*
X176623213Y-78687031D01*
X176622184Y-78753094D01*
X176621354Y-78832406D01*
X176620699Y-78926344D01*
X176620198Y-79036286D01*
X176619828Y-79163610D01*
X176619567Y-79309693D01*
X176619393Y-79475914D01*
X176619284Y-79663649D01*
X176619217Y-79874277D01*
X176619178Y-80065033D01*
X176619033Y-80315392D01*
X176618693Y-80545043D01*
X176618162Y-80753535D01*
X176617444Y-80940421D01*
X176616543Y-81105250D01*
X176615462Y-81247574D01*
X176614204Y-81366943D01*
X176612774Y-81462909D01*
X176611176Y-81535023D01*
X176609412Y-81582835D01*
X176607487Y-81605896D01*
X176606580Y-81608083D01*
X176594257Y-81598262D01*
X176566758Y-81573188D01*
X176526899Y-81535534D01*
X176477499Y-81487974D01*
X176421375Y-81433180D01*
X176400205Y-81412333D01*
X176223760Y-81242922D01*
X176058060Y-81093504D01*
X175903465Y-80964345D01*
X175760337Y-80855710D01*
X175629038Y-80767864D01*
X175509929Y-80701073D01*
X175403371Y-80655602D01*
X175345855Y-80638720D01*
X175264868Y-80623728D01*
X175199379Y-80621778D01*
X175142940Y-80633126D01*
X175107218Y-80648175D01*
X175052018Y-80685095D01*
X175013533Y-80732340D01*
X174991905Y-80790884D01*
X174987274Y-80861704D01*
X174721839Y-80861704D01*
X174721689Y-80854550D01*
X174721570Y-80790905D01*
X174723513Y-80745553D01*
X174728637Y-80711401D01*
X174738067Y-80681359D01*
X174752924Y-80648337D01*
X174754996Y-80644098D01*
X174814396Y-80551122D01*
X174892520Y-80472632D01*
X174985263Y-80411971D01*
X175088043Y-80372610D01*
X175156876Y-80358452D01*
X175222425Y-80354255D01*
X175292700Y-80360291D01*
X175375708Y-80376834D01*
X175402054Y-80383317D01*
X175525248Y-80423947D01*
X175659342Y-80485713D01*
X175802743Y-80567637D01*
X175953863Y-80668738D01*
X176111109Y-80788035D01*
X176255750Y-80909444D01*
X176292383Y-80940478D01*
X176322054Y-80963620D01*
X176339433Y-80974765D01*
X176341121Y-80975200D01*
X176342612Y-80962784D01*
X176344116Y-80926675D01*
X176345614Y-80868580D01*
X176347086Y-80790204D01*
X176348513Y-80693256D01*
X176349875Y-80579441D01*
X176351154Y-80450466D01*
X176352330Y-80308038D01*
X176353384Y-80153864D01*
X176354296Y-79989650D01*
X176355047Y-79817103D01*
X176355398Y-79714725D01*
X176356022Y-79504776D01*
X176356574Y-79318647D01*
X176357142Y-79154757D01*
X176357815Y-79011528D01*
X176358680Y-78887378D01*
X176359827Y-78780729D01*
X176361344Y-78690000D01*
X176363320Y-78613611D01*
X176365842Y-78549982D01*
X176368999Y-78497534D01*
X176372881Y-78454687D01*
X176377574Y-78419860D01*
X176383167Y-78391475D01*
X176389750Y-78367950D01*
X176397410Y-78347706D01*
X176406236Y-78329164D01*
X176416316Y-78310743D01*
X176427739Y-78290863D01*
X176435904Y-78276450D01*
X176477018Y-78216522D01*
X176533235Y-78153072D01*
X176597286Y-78093085D01*
X176661902Y-78043547D01*
X176704463Y-78018386D01*
X176827738Y-77970671D01*
X176954477Y-77947357D01*
X177082004Y-77948460D01*
X177082004Y-77948460D01*
G37*
X177082004Y-77948460D02*
X177207640Y-77973995D01*
X177311050Y-78014972D01*
X177421518Y-78082527D01*
X177513610Y-78167478D01*
X177587593Y-78270138D01*
X177643734Y-78390818D01*
X177650399Y-78409800D01*
X177656349Y-78428057D01*
X177661406Y-78446250D01*
X177665656Y-78466555D01*
X177669189Y-78491151D01*
X177672091Y-78522215D01*
X177674450Y-78561923D01*
X177676355Y-78612453D01*
X177677894Y-78675982D01*
X177679154Y-78754688D01*
X177680224Y-78850747D01*
X177681191Y-78966338D01*
X177682144Y-79103636D01*
X177682844Y-79213075D01*
X177683778Y-79345739D01*
X177684844Y-79470503D01*
X177686012Y-79585107D01*
X177687249Y-79687297D01*
X177688523Y-79774814D01*
X177689802Y-79845402D01*
X177691054Y-79896803D01*
X177692246Y-79926761D01*
X177693086Y-79933800D01*
X177706273Y-79928041D01*
X177734897Y-79913051D01*
X177767268Y-79895150D01*
X177878281Y-79846666D01*
X177997528Y-79820222D01*
X178120389Y-79815950D01*
X178242247Y-79833980D01*
X178358484Y-79874444D01*
X178366300Y-79878124D01*
X178423992Y-79912897D01*
X178486759Y-79962310D01*
X178548689Y-80020525D01*
X178603870Y-80081700D01*
X178646389Y-80139996D01*
X178663707Y-80171925D01*
X178680555Y-80207846D01*
X178693407Y-80232052D01*
X178698461Y-80238600D01*
X178710690Y-80231645D01*
X178735131Y-80214306D01*
X178743836Y-80207753D01*
X178832216Y-80154638D01*
X178937328Y-80115696D01*
X179053849Y-80092505D01*
X179153419Y-80086350D01*
X179285561Y-80097165D01*
X179405444Y-80130123D01*
X179513652Y-80185454D01*
X179610767Y-80263388D01*
X179615471Y-80268010D01*
X179693772Y-80358395D01*
X179750697Y-80454907D01*
X179789068Y-80563177D01*
X179806479Y-80649516D01*
X179813512Y-80690338D01*
X179820187Y-80719911D01*
X179824121Y-80730254D01*
X179837566Y-80727843D01*
X179866153Y-80715176D01*
X179897921Y-80698206D01*
X180004126Y-80651711D01*
X180120443Y-80625543D01*
X180241799Y-80619672D01*
X180363117Y-80634066D01*
X180479323Y-80668695D01*
X180550018Y-80702209D01*
X180644776Y-80768542D01*
X180728258Y-80853872D01*
X180796896Y-80953085D01*
X180847124Y-81061070D01*
X180874556Y-81167239D01*
X180877255Y-81198745D01*
X180879491Y-81255013D01*
X180881260Y-81335407D01*
X180882556Y-81439293D01*
X180883376Y-81566037D01*
X180883714Y-81715003D01*
X180883566Y-81885557D01*
X180882926Y-82077064D01*
X180882301Y-82202289D01*
X180881202Y-82387245D01*
X180880064Y-82548584D01*
X180878847Y-82688090D01*
X180877508Y-82807547D01*
X180876005Y-82908738D01*
X180874295Y-82993446D01*
X180872338Y-83063456D01*
X180870091Y-83120550D01*
X180867511Y-83166512D01*
X180864557Y-83203126D01*
X180861187Y-83232176D01*
X180857473Y-83254850D01*
X180800259Y-83496458D01*
X180724486Y-83721426D01*
X180629374Y-83931256D01*
X180514143Y-84127447D01*
X180378014Y-84311500D01*
X180220206Y-84484915D01*
X180215985Y-84489119D01*
X180037359Y-84649921D01*
X179847483Y-84788330D01*
X179645631Y-84904711D01*
X179431072Y-84999429D01*
X179203079Y-85072850D01*
X178960922Y-85125341D01*
X178943000Y-85128309D01*
X178886869Y-85134962D01*
X178812006Y-85140356D01*
X178724946Y-85144359D01*
X178632223Y-85146839D01*
X178540372Y-85147665D01*
X178455928Y-85146703D01*
X178385427Y-85143821D01*
X178346100Y-85140379D01*
X178093666Y-85097665D01*
X177853089Y-85032641D01*
X177623809Y-84945030D01*
X177405263Y-84834560D01*
X177196889Y-84700955D01*
X176998127Y-84543940D01*
X176856216Y-84411836D01*
X176732958Y-84280685D01*
X176613191Y-84135318D01*
X176494971Y-83973061D01*
X176376352Y-83791238D01*
X176255389Y-83587172D01*
X176250582Y-83578700D01*
X176168040Y-83434907D01*
X176083081Y-83290916D01*
X175993693Y-83143506D01*
X175897869Y-82989456D01*
X175793597Y-82825548D01*
X175678868Y-82648560D01*
X175551673Y-82455274D01*
X175512122Y-82395644D01*
X175398541Y-82224240D01*
X175298319Y-82071935D01*
X175210398Y-81936916D01*
X175133717Y-81817371D01*
X175067217Y-81711489D01*
X175009839Y-81617456D01*
X174960524Y-81533461D01*
X174918213Y-81457691D01*
X174881845Y-81388334D01*
X174850362Y-81323578D01*
X174822704Y-81261610D01*
X174797813Y-81200620D01*
X174774628Y-81138793D01*
X174770175Y-81126372D01*
X174748572Y-81063342D01*
X174734686Y-81013953D01*
X174726747Y-80968285D01*
X174722984Y-80916416D01*
X174721839Y-80861704D01*
X174987274Y-80861704D01*
X174999781Y-80945779D01*
X175029566Y-81044083D01*
X175076771Y-81157595D01*
X175141535Y-81287290D01*
X175219262Y-81426050D01*
X175239755Y-81460216D01*
X175272390Y-81513440D01*
X175315677Y-81583345D01*
X175368132Y-81667552D01*
X175428267Y-81763686D01*
X175494597Y-81869368D01*
X175565633Y-81982221D01*
X175639891Y-82099867D01*
X175699705Y-82194400D01*
X175793686Y-82342837D01*
X175875760Y-82472670D01*
X175947670Y-82586717D01*
X176011158Y-82687797D01*
X176067965Y-82778726D01*
X176119834Y-82862324D01*
X176168506Y-82941408D01*
X176215724Y-83018796D01*
X176263229Y-83097306D01*
X176312763Y-83179756D01*
X176366068Y-83268964D01*
X176421942Y-83362800D01*
X176564425Y-83593577D01*
X176703681Y-83800683D01*
X176841099Y-83985423D01*
X176978070Y-84149103D01*
X177115981Y-84293029D01*
X177256222Y-84418506D01*
X177400181Y-84526841D01*
X177549249Y-84619338D01*
X177704814Y-84697304D01*
X177868266Y-84762043D01*
X177933656Y-84783739D01*
X178113159Y-84831346D01*
X178300574Y-84864491D01*
X178488978Y-84882472D01*
X178671451Y-84884585D01*
X178816333Y-84873428D01*
X179039284Y-84834232D01*
X179250332Y-84773116D01*
X179451796Y-84689180D01*
X179645997Y-84581521D01*
X179755256Y-84508537D01*
X179834706Y-84447057D01*
X179921796Y-84371103D01*
X180010759Y-84286391D01*
X180095829Y-84198632D01*
X180171239Y-84113542D01*
X180230884Y-84037305D01*
X180307686Y-83921077D01*
X180380161Y-83794913D01*
X180445268Y-83665079D01*
X180499968Y-83537840D01*
X180541219Y-83419465D01*
X180554905Y-83369454D01*
X180566755Y-83320679D01*
X180577047Y-83276176D01*
X180585891Y-83233819D01*
X180593398Y-83191480D01*
X180599677Y-83147034D01*
X180604840Y-83098352D01*
X180608995Y-83043309D01*
X180612253Y-82979776D01*
X180614725Y-82905628D01*
X180616521Y-82818737D01*
X180617750Y-82716977D01*
X180618523Y-82598220D01*
X180618951Y-82460340D01*
X180619142Y-82301210D01*
X180619207Y-82128201D01*
X180619230Y-81954198D01*
X180619187Y-81803723D01*
X180619025Y-81674903D01*
X180618695Y-81565869D01*
X180618145Y-81474746D01*
X180617322Y-81399663D01*
X180616177Y-81338749D01*
X180614658Y-81290130D01*
X180612713Y-81251937D01*
X180610292Y-81222295D01*
X180607343Y-81199334D01*
X180603815Y-81181181D01*
X180599656Y-81165965D01*
X180594815Y-81151813D01*
X180592285Y-81144982D01*
X180548895Y-81061812D01*
X180487499Y-80990438D01*
X180412735Y-80934753D01*
X180329243Y-80898649D01*
X180287682Y-80889456D01*
X180188056Y-80884642D01*
X180097203Y-80902806D01*
X180012155Y-80944837D01*
X179953675Y-80989650D01*
X179896852Y-81051258D01*
X179856924Y-81123000D01*
X179831972Y-81209303D01*
X179821252Y-81295327D01*
X179812950Y-81413350D01*
X179558950Y-81413350D01*
X179552600Y-81032350D01*
X179550676Y-80922976D01*
X179548797Y-80835882D01*
X179546726Y-80767949D01*
X179544226Y-80716057D01*
X179541058Y-80677088D01*
X179536986Y-80647923D01*
X179531771Y-80625444D01*
X179525176Y-80606530D01*
X179519105Y-80592645D01*
X179466955Y-80508923D01*
X179395322Y-80437531D01*
X179318411Y-80387994D01*
X179231281Y-80356478D01*
X179140748Y-80346693D01*
X179052744Y-80358811D01*
X178999007Y-80378851D01*
X178919743Y-80428518D01*
X178849601Y-80493954D01*
X178796366Y-80567776D01*
X178792638Y-80574640D01*
X178781042Y-80597547D01*
X178772379Y-80618935D01*
X178766143Y-80642990D01*
X178761831Y-80673900D01*
X178758938Y-80715851D01*
X178756960Y-80773030D01*
X178755393Y-80849624D01*
X178754721Y-80889475D01*
X178750593Y-81140300D01*
X178485800Y-81140300D01*
X178485800Y-80786962D01*
X178485513Y-80671364D01*
X178484335Y-80577813D01*
X178481791Y-80502955D01*
X178477403Y-80443442D01*
X178470697Y-80395921D01*
X178461196Y-80357041D01*
X178448425Y-80323453D01*
X178431907Y-80291804D01*
X178411166Y-80258743D01*
X178410667Y-80257986D01*
X178367634Y-80206852D01*
X178310801Y-80158225D01*
X178249385Y-80119127D01*
X178202184Y-80099137D01*
X178159830Y-80090542D01*
X178106178Y-80085019D01*
X178068931Y-80083847D01*
X177978851Y-80096634D01*
X177893544Y-80132221D01*
X177816932Y-80188020D01*
X177752942Y-80261444D01*
X177722641Y-80312094D01*
X177715084Y-80327290D01*
X177708856Y-80342194D01*
X177703794Y-80359360D01*
X177699737Y-80381344D01*
X177696521Y-80410699D01*
X177693984Y-80449980D01*
X177691964Y-80501742D01*
X177690297Y-80568539D01*
X177688823Y-80652925D01*
X177687376Y-80757455D01*
X177685797Y-80884684D01*
X177685700Y-80892650D01*
X177679350Y-81413350D01*
X177425350Y-81413350D01*
X177418777Y-79971900D01*
X177417551Y-79723231D01*
X177416246Y-79499352D01*
X177414857Y-79299654D01*
X177413373Y-79123527D01*
X177411786Y-78970361D01*
X177410088Y-78839547D01*
X177408269Y-78730475D01*
X177406323Y-78642535D01*
X177404240Y-78575118D01*
X177402011Y-78527615D01*
X177399628Y-78499414D01*
X177398044Y-78491286D01*
X177352358Y-78401406D01*
X177285848Y-78323372D01*
X177201645Y-78260585D01*
X177170066Y-78243573D01*
X177126356Y-78225598D01*
X177081130Y-78216126D01*
X177023453Y-78213035D01*
X177012600Y-78212991D01*
X176958459Y-78214477D01*
X176917986Y-78220810D01*
X176879523Y-78234883D01*
X176836910Y-78256603D01*
X176750128Y-78317265D01*
X176682195Y-78394899D01*
X176645052Y-78461329D01*
X176641241Y-78470152D01*
X176637827Y-78479823D01*
X176634790Y-78491722D01*
X176632106Y-78507225D01*
X176629753Y-78527711D01*
X176627710Y-78554556D01*
X176625954Y-78589140D01*
X176624462Y-78632839D01*
X176623213Y-78687031D01*
X176622184Y-78753094D01*
X176621354Y-78832406D01*
X176620699Y-78926344D01*
X176620198Y-79036286D01*
X176619828Y-79163610D01*
X176619567Y-79309693D01*
X176619393Y-79475914D01*
X176619284Y-79663649D01*
X176619217Y-79874277D01*
X176619178Y-80065033D01*
X176619033Y-80315392D01*
X176618693Y-80545043D01*
X176618162Y-80753535D01*
X176617444Y-80940421D01*
X176616543Y-81105250D01*
X176615462Y-81247574D01*
X176614204Y-81366943D01*
X176612774Y-81462909D01*
X176611176Y-81535023D01*
X176609412Y-81582835D01*
X176607487Y-81605896D01*
X176606580Y-81608083D01*
X176594257Y-81598262D01*
X176566758Y-81573188D01*
X176526899Y-81535534D01*
X176477499Y-81487974D01*
X176421375Y-81433180D01*
X176400205Y-81412333D01*
X176223760Y-81242922D01*
X176058060Y-81093504D01*
X175903465Y-80964345D01*
X175760337Y-80855710D01*
X175629038Y-80767864D01*
X175509929Y-80701073D01*
X175403371Y-80655602D01*
X175345855Y-80638720D01*
X175264868Y-80623728D01*
X175199379Y-80621778D01*
X175142940Y-80633126D01*
X175107218Y-80648175D01*
X175052018Y-80685095D01*
X175013533Y-80732340D01*
X174991905Y-80790884D01*
X174987274Y-80861704D01*
X174721839Y-80861704D01*
X174721689Y-80854550D01*
X174721570Y-80790905D01*
X174723513Y-80745553D01*
X174728637Y-80711401D01*
X174738067Y-80681359D01*
X174752924Y-80648337D01*
X174754996Y-80644098D01*
X174814396Y-80551122D01*
X174892520Y-80472632D01*
X174985263Y-80411971D01*
X175088043Y-80372610D01*
X175156876Y-80358452D01*
X175222425Y-80354255D01*
X175292700Y-80360291D01*
X175375708Y-80376834D01*
X175402054Y-80383317D01*
X175525248Y-80423947D01*
X175659342Y-80485713D01*
X175802743Y-80567637D01*
X175953863Y-80668738D01*
X176111109Y-80788035D01*
X176255750Y-80909444D01*
X176292383Y-80940478D01*
X176322054Y-80963620D01*
X176339433Y-80974765D01*
X176341121Y-80975200D01*
X176342612Y-80962784D01*
X176344116Y-80926675D01*
X176345614Y-80868580D01*
X176347086Y-80790204D01*
X176348513Y-80693256D01*
X176349875Y-80579441D01*
X176351154Y-80450466D01*
X176352330Y-80308038D01*
X176353384Y-80153864D01*
X176354296Y-79989650D01*
X176355047Y-79817103D01*
X176355398Y-79714725D01*
X176356022Y-79504776D01*
X176356574Y-79318647D01*
X176357142Y-79154757D01*
X176357815Y-79011528D01*
X176358680Y-78887378D01*
X176359827Y-78780729D01*
X176361344Y-78690000D01*
X176363320Y-78613611D01*
X176365842Y-78549982D01*
X176368999Y-78497534D01*
X176372881Y-78454687D01*
X176377574Y-78419860D01*
X176383167Y-78391475D01*
X176389750Y-78367950D01*
X176397410Y-78347706D01*
X176406236Y-78329164D01*
X176416316Y-78310743D01*
X176427739Y-78290863D01*
X176435904Y-78276450D01*
X176477018Y-78216522D01*
X176533235Y-78153072D01*
X176597286Y-78093085D01*
X176661902Y-78043547D01*
X176704463Y-78018386D01*
X176827738Y-77970671D01*
X176954477Y-77947357D01*
X177082004Y-77948460D01*
G36*
X177245690Y-77429569D02*
X177311050Y-77444440D01*
X177462436Y-77495592D01*
X177607826Y-77567718D01*
X177743498Y-77658011D01*
X177865731Y-77763666D01*
X177970804Y-77881876D01*
X178050722Y-78002151D01*
X178119679Y-78140407D01*
X178167683Y-78275292D01*
X178196671Y-78414205D01*
X178208585Y-78564547D01*
X178209125Y-78606650D01*
X178199738Y-78765310D01*
X178170350Y-78914149D01*
X178119518Y-79058106D01*
X178045804Y-79202118D01*
X178025683Y-79235410D01*
X177958750Y-79343250D01*
X177951313Y-78898750D01*
X177949167Y-78775557D01*
X177947000Y-78674495D01*
X177944424Y-78592295D01*
X177941052Y-78525690D01*
X177936496Y-78471412D01*
X177930368Y-78426194D01*
X177922280Y-78386769D01*
X177911846Y-78349868D01*
X177898677Y-78312225D01*
X177882385Y-78270572D01*
X177874457Y-78250943D01*
X177809785Y-78124253D01*
X177724617Y-78009034D01*
X177622055Y-77907368D01*
X177505203Y-77821334D01*
X177377164Y-77753013D01*
X177241042Y-77704484D01*
X177099940Y-77677829D01*
X177012600Y-77673200D01*
X176865666Y-77685652D01*
X176723943Y-77722688D01*
X176588536Y-77783824D01*
X176460550Y-77868577D01*
X176358005Y-77959241D01*
X176304490Y-78014268D01*
X176264768Y-78060082D01*
X176233392Y-78104054D01*
X176204917Y-78153556D01*
X176184404Y-78194191D01*
X176158532Y-78248329D01*
X176137335Y-78296704D01*
X176120297Y-78342681D01*
X176106901Y-78389626D01*
X176096629Y-78440903D01*
X176088963Y-78499878D01*
X176083387Y-78569915D01*
X176079383Y-78654380D01*
X176076433Y-78756638D01*
X176074021Y-78880054D01*
X176073417Y-78916097D01*
X176066450Y-79339845D01*
X176027336Y-79284397D01*
X175962733Y-79182414D01*
X175910132Y-79074608D01*
X175868257Y-78962250D01*
X175853269Y-78916123D01*
X175842351Y-78878337D01*
X175834858Y-78843434D01*
X175830146Y-78805961D01*
X175827570Y-78760462D01*
X175826487Y-78701483D01*
X175826252Y-78623567D01*
X175826249Y-78606650D01*
X175826399Y-78524632D01*
X175827278Y-78462558D01*
X175829529Y-78414973D01*
X175833798Y-78376421D01*
X175840729Y-78341448D01*
X175850966Y-78304596D01*
X175865153Y-78260410D01*
X175868244Y-78251050D01*
X175926624Y-78101032D01*
X175997835Y-77968664D01*
X176085554Y-77847902D01*
X176169029Y-77756644D01*
X176295779Y-77647265D01*
X176436620Y-77557384D01*
X176588509Y-77487833D01*
X176748403Y-77439445D01*
X176913260Y-77413050D01*
X177080037Y-77409481D01*
X177245690Y-77429569D01*
X177245690Y-77429569D01*
G37*
X177245690Y-77429569D02*
X177311050Y-77444440D01*
X177462436Y-77495592D01*
X177607826Y-77567718D01*
X177743498Y-77658011D01*
X177865731Y-77763666D01*
X177970804Y-77881876D01*
X178050722Y-78002151D01*
X178119679Y-78140407D01*
X178167683Y-78275292D01*
X178196671Y-78414205D01*
X178208585Y-78564547D01*
X178209125Y-78606650D01*
X178199738Y-78765310D01*
X178170350Y-78914149D01*
X178119518Y-79058106D01*
X178045804Y-79202118D01*
X178025683Y-79235410D01*
X177958750Y-79343250D01*
X177951313Y-78898750D01*
X177949167Y-78775557D01*
X177947000Y-78674495D01*
X177944424Y-78592295D01*
X177941052Y-78525690D01*
X177936496Y-78471412D01*
X177930368Y-78426194D01*
X177922280Y-78386769D01*
X177911846Y-78349868D01*
X177898677Y-78312225D01*
X177882385Y-78270572D01*
X177874457Y-78250943D01*
X177809785Y-78124253D01*
X177724617Y-78009034D01*
X177622055Y-77907368D01*
X177505203Y-77821334D01*
X177377164Y-77753013D01*
X177241042Y-77704484D01*
X177099940Y-77677829D01*
X177012600Y-77673200D01*
X176865666Y-77685652D01*
X176723943Y-77722688D01*
X176588536Y-77783824D01*
X176460550Y-77868577D01*
X176358005Y-77959241D01*
X176304490Y-78014268D01*
X176264768Y-78060082D01*
X176233392Y-78104054D01*
X176204917Y-78153556D01*
X176184404Y-78194191D01*
X176158532Y-78248329D01*
X176137335Y-78296704D01*
X176120297Y-78342681D01*
X176106901Y-78389626D01*
X176096629Y-78440903D01*
X176088963Y-78499878D01*
X176083387Y-78569915D01*
X176079383Y-78654380D01*
X176076433Y-78756638D01*
X176074021Y-78880054D01*
X176073417Y-78916097D01*
X176066450Y-79339845D01*
X176027336Y-79284397D01*
X175962733Y-79182414D01*
X175910132Y-79074608D01*
X175868257Y-78962250D01*
X175853269Y-78916123D01*
X175842351Y-78878337D01*
X175834858Y-78843434D01*
X175830146Y-78805961D01*
X175827570Y-78760462D01*
X175826487Y-78701483D01*
X175826252Y-78623567D01*
X175826249Y-78606650D01*
X175826399Y-78524632D01*
X175827278Y-78462558D01*
X175829529Y-78414973D01*
X175833798Y-78376421D01*
X175840729Y-78341448D01*
X175850966Y-78304596D01*
X175865153Y-78260410D01*
X175868244Y-78251050D01*
X175926624Y-78101032D01*
X175997835Y-77968664D01*
X176085554Y-77847902D01*
X176169029Y-77756644D01*
X176295779Y-77647265D01*
X176436620Y-77557384D01*
X176588509Y-77487833D01*
X176748403Y-77439445D01*
X176913260Y-77413050D01*
X177080037Y-77409481D01*
X177245690Y-77429569D01*
D14*
X184150000Y-81280000D02*
G75*
G03X184150000Y-81280000I-6350000J0D01*
G01*
D13*
G36*
X190500000Y-116586000D02*
X165100000Y-116586000D01*
X165100000Y-109982000D01*
X166014400Y-109982000D01*
X166014400Y-115671600D01*
X171704000Y-115671600D01*
X171704000Y-114046000D01*
X172516800Y-114046000D01*
X172516800Y-115671600D01*
X173329600Y-115671600D01*
X173329600Y-114046000D01*
X172516800Y-114046000D01*
X171704000Y-114046000D01*
X171704000Y-109982000D01*
X166014400Y-109982000D01*
X165100000Y-109982000D01*
X165100000Y-108356400D01*
X166014400Y-108356400D01*
X166014400Y-109169200D01*
X169265600Y-109169200D01*
X169265600Y-108356400D01*
X170891200Y-108356400D01*
X170891200Y-109169200D01*
X171704000Y-109169200D01*
X171704000Y-108356400D01*
X172516800Y-108356400D01*
X172516800Y-105105200D01*
X170891200Y-105105200D01*
X170891200Y-104292400D01*
X171704000Y-104292400D01*
X172516800Y-104292400D01*
X172516800Y-105105200D01*
X173329600Y-105105200D01*
X173329600Y-105918000D01*
X174142400Y-105918000D01*
X174142400Y-105105200D01*
X173329600Y-105105200D01*
X173329600Y-104292400D01*
X172516800Y-104292400D01*
X171704000Y-104292400D01*
X171704000Y-103479600D01*
X170891200Y-103479600D01*
X170891200Y-102666800D01*
X169265600Y-102666800D01*
X169265600Y-101854000D01*
X170891200Y-101854000D01*
X170891200Y-102666800D01*
X172516800Y-102666800D01*
X172516800Y-103479600D01*
X173329600Y-103479600D01*
X173329600Y-101854000D01*
X170891200Y-101854000D01*
X169265600Y-101854000D01*
X168452800Y-101854000D01*
X168452800Y-103479600D01*
X167640000Y-103479600D01*
X167640000Y-102666800D01*
X166827200Y-102666800D01*
X166827200Y-103479600D01*
X166014400Y-103479600D01*
X166014400Y-104292400D01*
X166827200Y-104292400D01*
X166827200Y-105105200D01*
X168452800Y-105105200D01*
X168452800Y-105918000D01*
X167640000Y-105918000D01*
X167640000Y-106730800D01*
X168452800Y-106730800D01*
X168452800Y-108356400D01*
X166014400Y-108356400D01*
X165100000Y-108356400D01*
X165100000Y-105105200D01*
X166014400Y-105105200D01*
X166014400Y-106730800D01*
X166827200Y-106730800D01*
X166827200Y-105105200D01*
X166014400Y-105105200D01*
X165100000Y-105105200D01*
X165100000Y-101041200D01*
X166014400Y-101041200D01*
X166014400Y-101854000D01*
X167640000Y-101854000D01*
X167640000Y-101041200D01*
X173329600Y-101041200D01*
X173329600Y-101854000D01*
X174142400Y-101854000D01*
X174142400Y-101041200D01*
X174955200Y-101041200D01*
X174955200Y-100228400D01*
X173329600Y-100228400D01*
X173329600Y-99415600D01*
X171704000Y-99415600D01*
X171704000Y-98602800D01*
X169265600Y-98602800D01*
X169265600Y-99415600D01*
X168452800Y-99415600D01*
X168452800Y-100228400D01*
X166827200Y-100228400D01*
X166827200Y-101041200D01*
X166014400Y-101041200D01*
X165100000Y-101041200D01*
X165100000Y-98602800D01*
X166014400Y-98602800D01*
X166014400Y-99415600D01*
X167640000Y-99415600D01*
X167640000Y-98602800D01*
X166014400Y-98602800D01*
X165100000Y-98602800D01*
X165100000Y-92100400D01*
X166014400Y-92100400D01*
X166014400Y-97790000D01*
X171704000Y-97790000D01*
X171704000Y-92100400D01*
X172516800Y-92100400D01*
X172516800Y-95351600D01*
X173329600Y-95351600D01*
X173329600Y-96164400D01*
X172516800Y-96164400D01*
X172516800Y-97790000D01*
X173329600Y-97790000D01*
X173329600Y-96977200D01*
X174142400Y-96977200D01*
X174142400Y-99415600D01*
X174955200Y-99415600D01*
X174955200Y-98602800D01*
X175768000Y-98602800D01*
X175768000Y-99415600D01*
X176580800Y-99415600D01*
X176580800Y-100228400D01*
X178206400Y-100228400D01*
X178206400Y-101041200D01*
X177393600Y-101041200D01*
X177393600Y-101854000D01*
X176580800Y-101854000D01*
X176580800Y-101041200D01*
X175768000Y-101041200D01*
X175768000Y-101854000D01*
X174955200Y-101854000D01*
X174955200Y-102666800D01*
X174142400Y-102666800D01*
X174142400Y-103479600D01*
X174955200Y-103479600D01*
X174955200Y-104292400D01*
X174142400Y-104292400D01*
X174142400Y-105105200D01*
X175768000Y-105105200D01*
X175768000Y-105918000D01*
X176580800Y-105918000D01*
X176580800Y-106730800D01*
X178206400Y-106730800D01*
X178206400Y-107543600D01*
X177393600Y-107543600D01*
X177393600Y-108356400D01*
X176580800Y-108356400D01*
X176580800Y-107543600D01*
X175768000Y-107543600D01*
X175768000Y-108356400D01*
X174955200Y-108356400D01*
X174955200Y-107543600D01*
X173329600Y-107543600D01*
X173329600Y-109169200D01*
X172516800Y-109169200D01*
X172516800Y-109982000D01*
X173329600Y-109982000D01*
X173329600Y-110794800D01*
X172516800Y-110794800D01*
X172516800Y-112420400D01*
X173329600Y-112420400D01*
X173329600Y-114046000D01*
X174142400Y-114046000D01*
X174142400Y-114858800D01*
X174955200Y-114858800D01*
X174955200Y-115671600D01*
X175768000Y-115671600D01*
X175768000Y-114858800D01*
X176580800Y-114858800D01*
X176580800Y-115671600D01*
X179019200Y-115671600D01*
X179019200Y-113233200D01*
X179832000Y-113233200D01*
X179832000Y-112420400D01*
X180644800Y-112420400D01*
X180644800Y-113233200D01*
X181457600Y-113233200D01*
X181457600Y-114046000D01*
X179832000Y-114046000D01*
X179832000Y-115671600D01*
X180644800Y-115671600D01*
X180644800Y-114858800D01*
X182270400Y-114858800D01*
X182270400Y-115671600D01*
X183896000Y-115671600D01*
X183896000Y-114858800D01*
X183083200Y-114858800D01*
X183083200Y-114046000D01*
X183896000Y-114046000D01*
X183896000Y-114858800D01*
X184708800Y-114858800D01*
X184708800Y-115671600D01*
X186334400Y-115671600D01*
X186334400Y-114858800D01*
X187147200Y-114858800D01*
X187147200Y-114046000D01*
X187960000Y-114046000D01*
X187960000Y-115671600D01*
X188772800Y-115671600D01*
X188772800Y-114858800D01*
X189585600Y-114858800D01*
X189585600Y-112420400D01*
X188772800Y-112420400D01*
X188772800Y-111607600D01*
X187960000Y-111607600D01*
X187960000Y-112420400D01*
X187147200Y-112420400D01*
X187147200Y-113233200D01*
X186334400Y-113233200D01*
X186334400Y-114046000D01*
X185521600Y-114046000D01*
X185521600Y-114858800D01*
X184708800Y-114858800D01*
X184708800Y-114046000D01*
X183896000Y-114046000D01*
X183083200Y-114046000D01*
X182270400Y-114046000D01*
X182270400Y-113233200D01*
X183896000Y-113233200D01*
X183896000Y-112420400D01*
X184708800Y-112420400D01*
X184708800Y-113233200D01*
X185521600Y-113233200D01*
X185521600Y-112420400D01*
X186334400Y-112420400D01*
X186334400Y-111607600D01*
X187147200Y-111607600D01*
X187147200Y-110794800D01*
X187960000Y-110794800D01*
X187960000Y-109982000D01*
X186334400Y-109982000D01*
X186334400Y-109169200D01*
X187147200Y-109169200D01*
X187147200Y-108356400D01*
X183896000Y-108356400D01*
X183896000Y-107543600D01*
X183083200Y-107543600D01*
X183083200Y-106730800D01*
X182270400Y-106730800D01*
X182270400Y-107543600D01*
X181457600Y-107543600D01*
X181457600Y-104292400D01*
X182270400Y-104292400D01*
X182270400Y-105918000D01*
X183083200Y-105918000D01*
X183896000Y-105918000D01*
X183896000Y-106730800D01*
X184708800Y-106730800D01*
X184708800Y-105918000D01*
X183896000Y-105918000D01*
X183083200Y-105918000D01*
X183083200Y-104292400D01*
X182270400Y-104292400D01*
X181457600Y-104292400D01*
X181457600Y-103479600D01*
X179832000Y-103479600D01*
X179832000Y-102666800D01*
X180644800Y-102666800D01*
X180644800Y-101854000D01*
X181457600Y-101854000D01*
X181457600Y-102666800D01*
X183896000Y-102666800D01*
X183896000Y-101041200D01*
X183083200Y-101041200D01*
X183083200Y-100228400D01*
X182270400Y-100228400D01*
X182270400Y-101854000D01*
X181457600Y-101854000D01*
X180644800Y-101854000D01*
X180644800Y-101041200D01*
X181457600Y-101041200D01*
X181457600Y-99415600D01*
X183083200Y-99415600D01*
X183896000Y-99415600D01*
X183896000Y-100228400D01*
X188772800Y-100228400D01*
X188772800Y-101041200D01*
X187960000Y-101041200D01*
X187960000Y-103479600D01*
X187147200Y-103479600D01*
X187147200Y-102666800D01*
X183896000Y-102666800D01*
X183896000Y-104292400D01*
X185521600Y-104292400D01*
X185521600Y-105105200D01*
X186334400Y-105105200D01*
X186334400Y-105918000D01*
X185521600Y-105918000D01*
X185521600Y-107543600D01*
X187960000Y-107543600D01*
X187960000Y-108356400D01*
X188772800Y-108356400D01*
X188772800Y-111607600D01*
X189585600Y-111607600D01*
X189585600Y-105918000D01*
X188772800Y-105918000D01*
X188772800Y-105105200D01*
X189585600Y-105105200D01*
X189585600Y-102666800D01*
X188772800Y-102666800D01*
X188772800Y-101854000D01*
X189585600Y-101854000D01*
X189585600Y-98602800D01*
X186334400Y-98602800D01*
X186334400Y-99415600D01*
X185521600Y-99415600D01*
X185521600Y-98602800D01*
X184708800Y-98602800D01*
X184708800Y-99415600D01*
X183896000Y-99415600D01*
X183083200Y-99415600D01*
X183083200Y-96164400D01*
X181457600Y-96164400D01*
X181457600Y-95351600D01*
X182270400Y-95351600D01*
X182270400Y-94538800D01*
X183083200Y-94538800D01*
X183083200Y-93726000D01*
X182270400Y-93726000D01*
X182270400Y-92913200D01*
X181457600Y-92913200D01*
X181457600Y-92100400D01*
X182270400Y-92100400D01*
X182270400Y-92913200D01*
X183083200Y-92913200D01*
X183083200Y-92100400D01*
X183896000Y-92100400D01*
X183896000Y-97790000D01*
X189585600Y-97790000D01*
X189585600Y-92100400D01*
X183896000Y-92100400D01*
X183083200Y-92100400D01*
X182270400Y-92100400D01*
X181457600Y-92100400D01*
X179832000Y-92100400D01*
X179832000Y-92913200D01*
X179019200Y-92913200D01*
X179019200Y-93726000D01*
X177393600Y-93726000D01*
X177393600Y-94538800D01*
X178206400Y-94538800D01*
X178206400Y-95351600D01*
X177393600Y-95351600D01*
X177393600Y-96164400D01*
X179019200Y-96164400D01*
X179019200Y-98602800D01*
X178206400Y-98602800D01*
X178206400Y-99415600D01*
X177393600Y-99415600D01*
X177393600Y-97790000D01*
X176580800Y-97790000D01*
X176580800Y-96977200D01*
X177393600Y-96977200D01*
X177393600Y-97790000D01*
X178206400Y-97790000D01*
X178206400Y-96977200D01*
X177393600Y-96977200D01*
X176580800Y-96977200D01*
X175768000Y-96977200D01*
X175768000Y-97790000D01*
X174955200Y-97790000D01*
X174955200Y-94538800D01*
X174142400Y-94538800D01*
X174142400Y-93726000D01*
X173329600Y-93726000D01*
X173329600Y-92913200D01*
X174955200Y-92913200D01*
X174955200Y-93726000D01*
X175768000Y-93726000D01*
X175768000Y-96164400D01*
X176580800Y-96164400D01*
X176580800Y-92913200D01*
X174955200Y-92913200D01*
X173329600Y-92913200D01*
X173329600Y-92100400D01*
X177393600Y-92100400D01*
X177393600Y-92913200D01*
X179019200Y-92913200D01*
X179019200Y-92100400D01*
X177393600Y-92100400D01*
X173329600Y-92100400D01*
X172516800Y-92100400D01*
X171704000Y-92100400D01*
X166014400Y-92100400D01*
X165100000Y-92100400D01*
X165100000Y-91186000D01*
X190500000Y-91186000D01*
X190500000Y-116586000D01*
X190500000Y-116586000D01*
G37*
X190500000Y-116586000D02*
X165100000Y-116586000D01*
X165100000Y-109982000D01*
X166014400Y-109982000D01*
X166014400Y-115671600D01*
X171704000Y-115671600D01*
X171704000Y-114046000D01*
X172516800Y-114046000D01*
X172516800Y-115671600D01*
X173329600Y-115671600D01*
X173329600Y-114046000D01*
X172516800Y-114046000D01*
X171704000Y-114046000D01*
X171704000Y-109982000D01*
X166014400Y-109982000D01*
X165100000Y-109982000D01*
X165100000Y-108356400D01*
X166014400Y-108356400D01*
X166014400Y-109169200D01*
X169265600Y-109169200D01*
X169265600Y-108356400D01*
X170891200Y-108356400D01*
X170891200Y-109169200D01*
X171704000Y-109169200D01*
X171704000Y-108356400D01*
X172516800Y-108356400D01*
X172516800Y-105105200D01*
X170891200Y-105105200D01*
X170891200Y-104292400D01*
X171704000Y-104292400D01*
X172516800Y-104292400D01*
X172516800Y-105105200D01*
X173329600Y-105105200D01*
X173329600Y-105918000D01*
X174142400Y-105918000D01*
X174142400Y-105105200D01*
X173329600Y-105105200D01*
X173329600Y-104292400D01*
X172516800Y-104292400D01*
X171704000Y-104292400D01*
X171704000Y-103479600D01*
X170891200Y-103479600D01*
X170891200Y-102666800D01*
X169265600Y-102666800D01*
X169265600Y-101854000D01*
X170891200Y-101854000D01*
X170891200Y-102666800D01*
X172516800Y-102666800D01*
X172516800Y-103479600D01*
X173329600Y-103479600D01*
X173329600Y-101854000D01*
X170891200Y-101854000D01*
X169265600Y-101854000D01*
X168452800Y-101854000D01*
X168452800Y-103479600D01*
X167640000Y-103479600D01*
X167640000Y-102666800D01*
X166827200Y-102666800D01*
X166827200Y-103479600D01*
X166014400Y-103479600D01*
X166014400Y-104292400D01*
X166827200Y-104292400D01*
X166827200Y-105105200D01*
X168452800Y-105105200D01*
X168452800Y-105918000D01*
X167640000Y-105918000D01*
X167640000Y-106730800D01*
X168452800Y-106730800D01*
X168452800Y-108356400D01*
X166014400Y-108356400D01*
X165100000Y-108356400D01*
X165100000Y-105105200D01*
X166014400Y-105105200D01*
X166014400Y-106730800D01*
X166827200Y-106730800D01*
X166827200Y-105105200D01*
X166014400Y-105105200D01*
X165100000Y-105105200D01*
X165100000Y-101041200D01*
X166014400Y-101041200D01*
X166014400Y-101854000D01*
X167640000Y-101854000D01*
X167640000Y-101041200D01*
X173329600Y-101041200D01*
X173329600Y-101854000D01*
X174142400Y-101854000D01*
X174142400Y-101041200D01*
X174955200Y-101041200D01*
X174955200Y-100228400D01*
X173329600Y-100228400D01*
X173329600Y-99415600D01*
X171704000Y-99415600D01*
X171704000Y-98602800D01*
X169265600Y-98602800D01*
X169265600Y-99415600D01*
X168452800Y-99415600D01*
X168452800Y-100228400D01*
X166827200Y-100228400D01*
X166827200Y-101041200D01*
X166014400Y-101041200D01*
X165100000Y-101041200D01*
X165100000Y-98602800D01*
X166014400Y-98602800D01*
X166014400Y-99415600D01*
X167640000Y-99415600D01*
X167640000Y-98602800D01*
X166014400Y-98602800D01*
X165100000Y-98602800D01*
X165100000Y-92100400D01*
X166014400Y-92100400D01*
X166014400Y-97790000D01*
X171704000Y-97790000D01*
X171704000Y-92100400D01*
X172516800Y-92100400D01*
X172516800Y-95351600D01*
X173329600Y-95351600D01*
X173329600Y-96164400D01*
X172516800Y-96164400D01*
X172516800Y-97790000D01*
X173329600Y-97790000D01*
X173329600Y-96977200D01*
X174142400Y-96977200D01*
X174142400Y-99415600D01*
X174955200Y-99415600D01*
X174955200Y-98602800D01*
X175768000Y-98602800D01*
X175768000Y-99415600D01*
X176580800Y-99415600D01*
X176580800Y-100228400D01*
X178206400Y-100228400D01*
X178206400Y-101041200D01*
X177393600Y-101041200D01*
X177393600Y-101854000D01*
X176580800Y-101854000D01*
X176580800Y-101041200D01*
X175768000Y-101041200D01*
X175768000Y-101854000D01*
X174955200Y-101854000D01*
X174955200Y-102666800D01*
X174142400Y-102666800D01*
X174142400Y-103479600D01*
X174955200Y-103479600D01*
X174955200Y-104292400D01*
X174142400Y-104292400D01*
X174142400Y-105105200D01*
X175768000Y-105105200D01*
X175768000Y-105918000D01*
X176580800Y-105918000D01*
X176580800Y-106730800D01*
X178206400Y-106730800D01*
X178206400Y-107543600D01*
X177393600Y-107543600D01*
X177393600Y-108356400D01*
X176580800Y-108356400D01*
X176580800Y-107543600D01*
X175768000Y-107543600D01*
X175768000Y-108356400D01*
X174955200Y-108356400D01*
X174955200Y-107543600D01*
X173329600Y-107543600D01*
X173329600Y-109169200D01*
X172516800Y-109169200D01*
X172516800Y-109982000D01*
X173329600Y-109982000D01*
X173329600Y-110794800D01*
X172516800Y-110794800D01*
X172516800Y-112420400D01*
X173329600Y-112420400D01*
X173329600Y-114046000D01*
X174142400Y-114046000D01*
X174142400Y-114858800D01*
X174955200Y-114858800D01*
X174955200Y-115671600D01*
X175768000Y-115671600D01*
X175768000Y-114858800D01*
X176580800Y-114858800D01*
X176580800Y-115671600D01*
X179019200Y-115671600D01*
X179019200Y-113233200D01*
X179832000Y-113233200D01*
X179832000Y-112420400D01*
X180644800Y-112420400D01*
X180644800Y-113233200D01*
X181457600Y-113233200D01*
X181457600Y-114046000D01*
X179832000Y-114046000D01*
X179832000Y-115671600D01*
X180644800Y-115671600D01*
X180644800Y-114858800D01*
X182270400Y-114858800D01*
X182270400Y-115671600D01*
X183896000Y-115671600D01*
X183896000Y-114858800D01*
X183083200Y-114858800D01*
X183083200Y-114046000D01*
X183896000Y-114046000D01*
X183896000Y-114858800D01*
X184708800Y-114858800D01*
X184708800Y-115671600D01*
X186334400Y-115671600D01*
X186334400Y-114858800D01*
X187147200Y-114858800D01*
X187147200Y-114046000D01*
X187960000Y-114046000D01*
X187960000Y-115671600D01*
X188772800Y-115671600D01*
X188772800Y-114858800D01*
X189585600Y-114858800D01*
X189585600Y-112420400D01*
X188772800Y-112420400D01*
X188772800Y-111607600D01*
X187960000Y-111607600D01*
X187960000Y-112420400D01*
X187147200Y-112420400D01*
X187147200Y-113233200D01*
X186334400Y-113233200D01*
X186334400Y-114046000D01*
X185521600Y-114046000D01*
X185521600Y-114858800D01*
X184708800Y-114858800D01*
X184708800Y-114046000D01*
X183896000Y-114046000D01*
X183083200Y-114046000D01*
X182270400Y-114046000D01*
X182270400Y-113233200D01*
X183896000Y-113233200D01*
X183896000Y-112420400D01*
X184708800Y-112420400D01*
X184708800Y-113233200D01*
X185521600Y-113233200D01*
X185521600Y-112420400D01*
X186334400Y-112420400D01*
X186334400Y-111607600D01*
X187147200Y-111607600D01*
X187147200Y-110794800D01*
X187960000Y-110794800D01*
X187960000Y-109982000D01*
X186334400Y-109982000D01*
X186334400Y-109169200D01*
X187147200Y-109169200D01*
X187147200Y-108356400D01*
X183896000Y-108356400D01*
X183896000Y-107543600D01*
X183083200Y-107543600D01*
X183083200Y-106730800D01*
X182270400Y-106730800D01*
X182270400Y-107543600D01*
X181457600Y-107543600D01*
X181457600Y-104292400D01*
X182270400Y-104292400D01*
X182270400Y-105918000D01*
X183083200Y-105918000D01*
X183896000Y-105918000D01*
X183896000Y-106730800D01*
X184708800Y-106730800D01*
X184708800Y-105918000D01*
X183896000Y-105918000D01*
X183083200Y-105918000D01*
X183083200Y-104292400D01*
X182270400Y-104292400D01*
X181457600Y-104292400D01*
X181457600Y-103479600D01*
X179832000Y-103479600D01*
X179832000Y-102666800D01*
X180644800Y-102666800D01*
X180644800Y-101854000D01*
X181457600Y-101854000D01*
X181457600Y-102666800D01*
X183896000Y-102666800D01*
X183896000Y-101041200D01*
X183083200Y-101041200D01*
X183083200Y-100228400D01*
X182270400Y-100228400D01*
X182270400Y-101854000D01*
X181457600Y-101854000D01*
X180644800Y-101854000D01*
X180644800Y-101041200D01*
X181457600Y-101041200D01*
X181457600Y-99415600D01*
X183083200Y-99415600D01*
X183896000Y-99415600D01*
X183896000Y-100228400D01*
X188772800Y-100228400D01*
X188772800Y-101041200D01*
X187960000Y-101041200D01*
X187960000Y-103479600D01*
X187147200Y-103479600D01*
X187147200Y-102666800D01*
X183896000Y-102666800D01*
X183896000Y-104292400D01*
X185521600Y-104292400D01*
X185521600Y-105105200D01*
X186334400Y-105105200D01*
X186334400Y-105918000D01*
X185521600Y-105918000D01*
X185521600Y-107543600D01*
X187960000Y-107543600D01*
X187960000Y-108356400D01*
X188772800Y-108356400D01*
X188772800Y-111607600D01*
X189585600Y-111607600D01*
X189585600Y-105918000D01*
X188772800Y-105918000D01*
X188772800Y-105105200D01*
X189585600Y-105105200D01*
X189585600Y-102666800D01*
X188772800Y-102666800D01*
X188772800Y-101854000D01*
X189585600Y-101854000D01*
X189585600Y-98602800D01*
X186334400Y-98602800D01*
X186334400Y-99415600D01*
X185521600Y-99415600D01*
X185521600Y-98602800D01*
X184708800Y-98602800D01*
X184708800Y-99415600D01*
X183896000Y-99415600D01*
X183083200Y-99415600D01*
X183083200Y-96164400D01*
X181457600Y-96164400D01*
X181457600Y-95351600D01*
X182270400Y-95351600D01*
X182270400Y-94538800D01*
X183083200Y-94538800D01*
X183083200Y-93726000D01*
X182270400Y-93726000D01*
X182270400Y-92913200D01*
X181457600Y-92913200D01*
X181457600Y-92100400D01*
X182270400Y-92100400D01*
X182270400Y-92913200D01*
X183083200Y-92913200D01*
X183083200Y-92100400D01*
X183896000Y-92100400D01*
X183896000Y-97790000D01*
X189585600Y-97790000D01*
X189585600Y-92100400D01*
X183896000Y-92100400D01*
X183083200Y-92100400D01*
X182270400Y-92100400D01*
X181457600Y-92100400D01*
X179832000Y-92100400D01*
X179832000Y-92913200D01*
X179019200Y-92913200D01*
X179019200Y-93726000D01*
X177393600Y-93726000D01*
X177393600Y-94538800D01*
X178206400Y-94538800D01*
X178206400Y-95351600D01*
X177393600Y-95351600D01*
X177393600Y-96164400D01*
X179019200Y-96164400D01*
X179019200Y-98602800D01*
X178206400Y-98602800D01*
X178206400Y-99415600D01*
X177393600Y-99415600D01*
X177393600Y-97790000D01*
X176580800Y-97790000D01*
X176580800Y-96977200D01*
X177393600Y-96977200D01*
X177393600Y-97790000D01*
X178206400Y-97790000D01*
X178206400Y-96977200D01*
X177393600Y-96977200D01*
X176580800Y-96977200D01*
X175768000Y-96977200D01*
X175768000Y-97790000D01*
X174955200Y-97790000D01*
X174955200Y-94538800D01*
X174142400Y-94538800D01*
X174142400Y-93726000D01*
X173329600Y-93726000D01*
X173329600Y-92913200D01*
X174955200Y-92913200D01*
X174955200Y-93726000D01*
X175768000Y-93726000D01*
X175768000Y-96164400D01*
X176580800Y-96164400D01*
X176580800Y-92913200D01*
X174955200Y-92913200D01*
X173329600Y-92913200D01*
X173329600Y-92100400D01*
X177393600Y-92100400D01*
X177393600Y-92913200D01*
X179019200Y-92913200D01*
X179019200Y-92100400D01*
X177393600Y-92100400D01*
X173329600Y-92100400D01*
X172516800Y-92100400D01*
X171704000Y-92100400D01*
X166014400Y-92100400D01*
X165100000Y-92100400D01*
X165100000Y-91186000D01*
X190500000Y-91186000D01*
X190500000Y-116586000D01*
G36*
X170891200Y-114858800D02*
X166827200Y-114858800D01*
X166827200Y-111607600D01*
X167640000Y-111607600D01*
X167640000Y-114046000D01*
X170078400Y-114046000D01*
X170078400Y-111607600D01*
X167640000Y-111607600D01*
X166827200Y-111607600D01*
X166827200Y-110794800D01*
X170891200Y-110794800D01*
X170891200Y-114858800D01*
X170891200Y-114858800D01*
G37*
X170891200Y-114858800D02*
X166827200Y-114858800D01*
X166827200Y-111607600D01*
X167640000Y-111607600D01*
X167640000Y-114046000D01*
X170078400Y-114046000D01*
X170078400Y-111607600D01*
X167640000Y-111607600D01*
X166827200Y-111607600D01*
X166827200Y-110794800D01*
X170891200Y-110794800D01*
X170891200Y-114858800D01*
G36*
X174955200Y-111607600D02*
X175768000Y-111607600D01*
X175768000Y-112420400D01*
X176580800Y-112420400D01*
X176580800Y-113233200D01*
X178206400Y-113233200D01*
X178206400Y-114046000D01*
X177393600Y-114046000D01*
X177393600Y-114858800D01*
X176580800Y-114858800D01*
X176580800Y-114046000D01*
X175768000Y-114046000D01*
X175768000Y-114858800D01*
X174955200Y-114858800D01*
X174955200Y-113233200D01*
X174142400Y-113233200D01*
X174142400Y-112420400D01*
X173329600Y-112420400D01*
X173329600Y-110794800D01*
X174955200Y-110794800D01*
X174955200Y-111607600D01*
X174955200Y-111607600D01*
G37*
X174955200Y-111607600D02*
X175768000Y-111607600D01*
X175768000Y-112420400D01*
X176580800Y-112420400D01*
X176580800Y-113233200D01*
X178206400Y-113233200D01*
X178206400Y-114046000D01*
X177393600Y-114046000D01*
X177393600Y-114858800D01*
X176580800Y-114858800D01*
X176580800Y-114046000D01*
X175768000Y-114046000D01*
X175768000Y-114858800D01*
X174955200Y-114858800D01*
X174955200Y-113233200D01*
X174142400Y-113233200D01*
X174142400Y-112420400D01*
X173329600Y-112420400D01*
X173329600Y-110794800D01*
X174955200Y-110794800D01*
X174955200Y-111607600D01*
G36*
X176580800Y-111607600D02*
X175768000Y-111607600D01*
X175768000Y-110794800D01*
X176580800Y-110794800D01*
X176580800Y-111607600D01*
X176580800Y-111607600D01*
G37*
X176580800Y-111607600D02*
X175768000Y-111607600D01*
X175768000Y-110794800D01*
X176580800Y-110794800D01*
X176580800Y-111607600D01*
G36*
X188772800Y-113233200D02*
X187960000Y-113233200D01*
X187960000Y-112420400D01*
X188772800Y-112420400D01*
X188772800Y-113233200D01*
X188772800Y-113233200D01*
G37*
X188772800Y-113233200D02*
X187960000Y-113233200D01*
X187960000Y-112420400D01*
X188772800Y-112420400D01*
X188772800Y-113233200D01*
G36*
X181457600Y-112420400D02*
X180644800Y-112420400D01*
X180644800Y-110794800D01*
X181457600Y-110794800D01*
X181457600Y-112420400D01*
X181457600Y-112420400D01*
G37*
X181457600Y-112420400D02*
X180644800Y-112420400D01*
X180644800Y-110794800D01*
X181457600Y-110794800D01*
X181457600Y-112420400D01*
G36*
X179019200Y-111607600D02*
X179832000Y-111607600D01*
X179832000Y-112420400D01*
X177393600Y-112420400D01*
X177393600Y-110794800D01*
X179019200Y-110794800D01*
X179019200Y-111607600D01*
X179019200Y-111607600D01*
G37*
X179019200Y-111607600D02*
X179832000Y-111607600D01*
X179832000Y-112420400D01*
X177393600Y-112420400D01*
X177393600Y-110794800D01*
X179019200Y-110794800D01*
X179019200Y-111607600D01*
G36*
X180644800Y-110794800D02*
X179019200Y-110794800D01*
X179019200Y-109982000D01*
X180644800Y-109982000D01*
X180644800Y-110794800D01*
X180644800Y-110794800D01*
G37*
X180644800Y-110794800D02*
X179019200Y-110794800D01*
X179019200Y-109982000D01*
X180644800Y-109982000D01*
X180644800Y-110794800D01*
G36*
X182270400Y-109169200D02*
X181457600Y-109169200D01*
X181457600Y-109982000D01*
X180644800Y-109982000D01*
X180644800Y-108356400D01*
X182270400Y-108356400D01*
X182270400Y-109169200D01*
X182270400Y-109169200D01*
G37*
X182270400Y-109169200D02*
X181457600Y-109169200D01*
X181457600Y-109982000D01*
X180644800Y-109982000D01*
X180644800Y-108356400D01*
X182270400Y-108356400D01*
X182270400Y-109169200D01*
G36*
X185521600Y-111607600D02*
X183083200Y-111607600D01*
X183083200Y-109982000D01*
X183896000Y-109982000D01*
X183896000Y-110794800D01*
X184708800Y-110794800D01*
X184708800Y-109982000D01*
X183896000Y-109982000D01*
X183083200Y-109982000D01*
X183083200Y-109169200D01*
X185521600Y-109169200D01*
X185521600Y-111607600D01*
X185521600Y-111607600D01*
G37*
X185521600Y-111607600D02*
X183083200Y-111607600D01*
X183083200Y-109982000D01*
X183896000Y-109982000D01*
X183896000Y-110794800D01*
X184708800Y-110794800D01*
X184708800Y-109982000D01*
X183896000Y-109982000D01*
X183083200Y-109982000D01*
X183083200Y-109169200D01*
X185521600Y-109169200D01*
X185521600Y-111607600D01*
G36*
X178206400Y-109982000D02*
X176580800Y-109982000D01*
X176580800Y-109169200D01*
X178206400Y-109169200D01*
X178206400Y-109982000D01*
X178206400Y-109982000D01*
G37*
X178206400Y-109982000D02*
X176580800Y-109982000D01*
X176580800Y-109169200D01*
X178206400Y-109169200D01*
X178206400Y-109982000D01*
G36*
X175768000Y-109982000D02*
X174955200Y-109982000D01*
X174955200Y-109169200D01*
X175768000Y-109169200D01*
X175768000Y-109982000D01*
X175768000Y-109982000D01*
G37*
X175768000Y-109982000D02*
X174955200Y-109982000D01*
X174955200Y-109169200D01*
X175768000Y-109169200D01*
X175768000Y-109982000D01*
G36*
X174955200Y-109169200D02*
X174142400Y-109169200D01*
X174142400Y-108356400D01*
X174955200Y-108356400D01*
X174955200Y-109169200D01*
X174955200Y-109169200D01*
G37*
X174955200Y-109169200D02*
X174142400Y-109169200D01*
X174142400Y-108356400D01*
X174955200Y-108356400D01*
X174955200Y-109169200D01*
G36*
X179019200Y-108356400D02*
X179832000Y-108356400D01*
X179832000Y-109169200D01*
X178206400Y-109169200D01*
X178206400Y-107543600D01*
X179019200Y-107543600D01*
X179019200Y-108356400D01*
X179019200Y-108356400D01*
G37*
X179019200Y-108356400D02*
X179832000Y-108356400D01*
X179832000Y-109169200D01*
X178206400Y-109169200D01*
X178206400Y-107543600D01*
X179019200Y-107543600D01*
X179019200Y-108356400D01*
G36*
X176580800Y-109169200D02*
X175768000Y-109169200D01*
X175768000Y-108356400D01*
X176580800Y-108356400D01*
X176580800Y-109169200D01*
X176580800Y-109169200D01*
G37*
X176580800Y-109169200D02*
X175768000Y-109169200D01*
X175768000Y-108356400D01*
X176580800Y-108356400D01*
X176580800Y-109169200D01*
G36*
X180644800Y-107543600D02*
X179019200Y-107543600D01*
X179019200Y-106730800D01*
X180644800Y-106730800D01*
X180644800Y-107543600D01*
X180644800Y-107543600D01*
G37*
X180644800Y-107543600D02*
X179019200Y-107543600D01*
X179019200Y-106730800D01*
X180644800Y-106730800D01*
X180644800Y-107543600D01*
G36*
X171704000Y-108356400D02*
X170891200Y-108356400D01*
X170891200Y-107543600D01*
X171704000Y-107543600D01*
X171704000Y-108356400D01*
X171704000Y-108356400D01*
G37*
X171704000Y-108356400D02*
X170891200Y-108356400D01*
X170891200Y-107543600D01*
X171704000Y-107543600D01*
X171704000Y-108356400D01*
G36*
X188772800Y-107543600D02*
X187960000Y-107543600D01*
X187960000Y-106730800D01*
X188772800Y-106730800D01*
X188772800Y-107543600D01*
X188772800Y-107543600D01*
G37*
X188772800Y-107543600D02*
X187960000Y-107543600D01*
X187960000Y-106730800D01*
X188772800Y-106730800D01*
X188772800Y-107543600D01*
G36*
X187147200Y-104292400D02*
X187960000Y-104292400D01*
X187960000Y-106730800D01*
X186334400Y-106730800D01*
X186334400Y-105918000D01*
X187147200Y-105918000D01*
X187147200Y-105105200D01*
X186334400Y-105105200D01*
X186334400Y-103479600D01*
X187147200Y-103479600D01*
X187147200Y-104292400D01*
X187147200Y-104292400D01*
G37*
X187147200Y-104292400D02*
X187960000Y-104292400D01*
X187960000Y-106730800D01*
X186334400Y-106730800D01*
X186334400Y-105918000D01*
X187147200Y-105918000D01*
X187147200Y-105105200D01*
X186334400Y-105105200D01*
X186334400Y-103479600D01*
X187147200Y-103479600D01*
X187147200Y-104292400D01*
G36*
X188772800Y-104292400D02*
X187960000Y-104292400D01*
X187960000Y-103479600D01*
X188772800Y-103479600D01*
X188772800Y-104292400D01*
X188772800Y-104292400D01*
G37*
X188772800Y-104292400D02*
X187960000Y-104292400D01*
X187960000Y-103479600D01*
X188772800Y-103479600D01*
X188772800Y-104292400D01*
G36*
X169265600Y-104292400D02*
X170078400Y-104292400D01*
X170078400Y-105918000D01*
X171704000Y-105918000D01*
X171704000Y-106730800D01*
X169265600Y-106730800D01*
X169265600Y-105105200D01*
X168452800Y-105105200D01*
X168452800Y-103479600D01*
X169265600Y-103479600D01*
X169265600Y-104292400D01*
X169265600Y-104292400D01*
G37*
X169265600Y-104292400D02*
X170078400Y-104292400D01*
X170078400Y-105918000D01*
X171704000Y-105918000D01*
X171704000Y-106730800D01*
X169265600Y-106730800D01*
X169265600Y-105105200D01*
X168452800Y-105105200D01*
X168452800Y-103479600D01*
X169265600Y-103479600D01*
X169265600Y-104292400D01*
G36*
X170891200Y-104292400D02*
X170078400Y-104292400D01*
X170078400Y-103479600D01*
X170891200Y-103479600D01*
X170891200Y-104292400D01*
X170891200Y-104292400D01*
G37*
X170891200Y-104292400D02*
X170078400Y-104292400D01*
X170078400Y-103479600D01*
X170891200Y-103479600D01*
X170891200Y-104292400D01*
G36*
X178206400Y-105105200D02*
X179832000Y-105105200D01*
X179832000Y-105918000D01*
X177393600Y-105918000D01*
X177393600Y-104292400D01*
X178206400Y-104292400D01*
X178206400Y-105105200D01*
X178206400Y-105105200D01*
G37*
X178206400Y-105105200D02*
X179832000Y-105105200D01*
X179832000Y-105918000D01*
X177393600Y-105918000D01*
X177393600Y-104292400D01*
X178206400Y-104292400D01*
X178206400Y-105105200D01*
G36*
X176580800Y-105105200D02*
X175768000Y-105105200D01*
X175768000Y-104292400D01*
X176580800Y-104292400D01*
X176580800Y-105105200D01*
X176580800Y-105105200D01*
G37*
X176580800Y-105105200D02*
X175768000Y-105105200D01*
X175768000Y-104292400D01*
X176580800Y-104292400D01*
X176580800Y-105105200D01*
G36*
X179832000Y-104292400D02*
X179019200Y-104292400D01*
X179019200Y-103479600D01*
X179832000Y-103479600D01*
X179832000Y-104292400D01*
X179832000Y-104292400D01*
G37*
X179832000Y-104292400D02*
X179019200Y-104292400D01*
X179019200Y-103479600D01*
X179832000Y-103479600D01*
X179832000Y-104292400D01*
G36*
X175768000Y-103479600D02*
X174955200Y-103479600D01*
X174955200Y-102666800D01*
X175768000Y-102666800D01*
X175768000Y-103479600D01*
X175768000Y-103479600D01*
G37*
X175768000Y-103479600D02*
X174955200Y-103479600D01*
X174955200Y-102666800D01*
X175768000Y-102666800D01*
X175768000Y-103479600D01*
G36*
X178206400Y-103479600D02*
X176580800Y-103479600D01*
X176580800Y-102666800D01*
X178206400Y-102666800D01*
X178206400Y-103479600D01*
X178206400Y-103479600D01*
G37*
X178206400Y-103479600D02*
X176580800Y-103479600D01*
X176580800Y-102666800D01*
X178206400Y-102666800D01*
X178206400Y-103479600D01*
G36*
X179019200Y-102666800D02*
X178206400Y-102666800D01*
X178206400Y-101041200D01*
X179019200Y-101041200D01*
X179019200Y-102666800D01*
X179019200Y-102666800D01*
G37*
X179019200Y-102666800D02*
X178206400Y-102666800D01*
X178206400Y-101041200D01*
X179019200Y-101041200D01*
X179019200Y-102666800D01*
G36*
X176580800Y-102666800D02*
X175768000Y-102666800D01*
X175768000Y-101854000D01*
X176580800Y-101854000D01*
X176580800Y-102666800D01*
X176580800Y-102666800D01*
G37*
X176580800Y-102666800D02*
X175768000Y-102666800D01*
X175768000Y-101854000D01*
X176580800Y-101854000D01*
X176580800Y-102666800D01*
G36*
X179832000Y-101041200D02*
X179019200Y-101041200D01*
X179019200Y-100228400D01*
X179832000Y-100228400D01*
X179832000Y-101041200D01*
X179832000Y-101041200D01*
G37*
X179832000Y-101041200D02*
X179019200Y-101041200D01*
X179019200Y-100228400D01*
X179832000Y-100228400D01*
X179832000Y-101041200D01*
G36*
X180644800Y-100228400D02*
X179832000Y-100228400D01*
X179832000Y-99415600D01*
X180644800Y-99415600D01*
X180644800Y-100228400D01*
X180644800Y-100228400D01*
G37*
X180644800Y-100228400D02*
X179832000Y-100228400D01*
X179832000Y-99415600D01*
X180644800Y-99415600D01*
X180644800Y-100228400D01*
G36*
X179832000Y-99415600D02*
X179019200Y-99415600D01*
X179019200Y-98602800D01*
X179832000Y-98602800D01*
X179832000Y-99415600D01*
X179832000Y-99415600D01*
G37*
X179832000Y-99415600D02*
X179019200Y-99415600D01*
X179019200Y-98602800D01*
X179832000Y-98602800D01*
X179832000Y-99415600D01*
G36*
X181457600Y-99415600D02*
X180644800Y-99415600D01*
X180644800Y-98602800D01*
X181457600Y-98602800D01*
X181457600Y-99415600D01*
X181457600Y-99415600D01*
G37*
X181457600Y-99415600D02*
X180644800Y-99415600D01*
X180644800Y-98602800D01*
X181457600Y-98602800D01*
X181457600Y-99415600D01*
G36*
X182270400Y-98602800D02*
X181457600Y-98602800D01*
X181457600Y-96977200D01*
X182270400Y-96977200D01*
X182270400Y-98602800D01*
X182270400Y-98602800D01*
G37*
X182270400Y-98602800D02*
X181457600Y-98602800D01*
X181457600Y-96977200D01*
X182270400Y-96977200D01*
X182270400Y-98602800D01*
G36*
X180644800Y-96164400D02*
X181457600Y-96164400D01*
X181457600Y-96977200D01*
X180644800Y-96977200D01*
X180644800Y-97790000D01*
X179832000Y-97790000D01*
X179832000Y-94538800D01*
X180644800Y-94538800D01*
X180644800Y-96164400D01*
X180644800Y-96164400D01*
G37*
X180644800Y-96164400D02*
X181457600Y-96164400D01*
X181457600Y-96977200D01*
X180644800Y-96977200D01*
X180644800Y-97790000D01*
X179832000Y-97790000D01*
X179832000Y-94538800D01*
X180644800Y-94538800D01*
X180644800Y-96164400D01*
G36*
X179832000Y-94538800D02*
X179019200Y-94538800D01*
X179019200Y-93726000D01*
X179832000Y-93726000D01*
X179832000Y-94538800D01*
X179832000Y-94538800D01*
G37*
X179832000Y-94538800D02*
X179019200Y-94538800D01*
X179019200Y-93726000D01*
X179832000Y-93726000D01*
X179832000Y-94538800D01*
G36*
X181457600Y-94538800D02*
X180644800Y-94538800D01*
X180644800Y-92913200D01*
X181457600Y-92913200D01*
X181457600Y-94538800D01*
X181457600Y-94538800D01*
G37*
X181457600Y-94538800D02*
X180644800Y-94538800D01*
X180644800Y-92913200D01*
X181457600Y-92913200D01*
X181457600Y-94538800D01*
G36*
X170078400Y-100228400D02*
X169265600Y-100228400D01*
X169265600Y-99415600D01*
X170078400Y-99415600D01*
X170078400Y-100228400D01*
X170078400Y-100228400D01*
G37*
X170078400Y-100228400D02*
X169265600Y-100228400D01*
X169265600Y-99415600D01*
X170078400Y-99415600D01*
X170078400Y-100228400D01*
G36*
X171704000Y-100228400D02*
X170891200Y-100228400D01*
X170891200Y-99415600D01*
X171704000Y-99415600D01*
X171704000Y-100228400D01*
X171704000Y-100228400D01*
G37*
X171704000Y-100228400D02*
X170891200Y-100228400D01*
X170891200Y-99415600D01*
X171704000Y-99415600D01*
X171704000Y-100228400D01*
G36*
X176580800Y-98602800D02*
X175768000Y-98602800D01*
X175768000Y-97790000D01*
X176580800Y-97790000D01*
X176580800Y-98602800D01*
X176580800Y-98602800D01*
G37*
X176580800Y-98602800D02*
X175768000Y-98602800D01*
X175768000Y-97790000D01*
X176580800Y-97790000D01*
X176580800Y-98602800D01*
G36*
X170891200Y-96977200D02*
X166827200Y-96977200D01*
X166827200Y-93726000D01*
X167640000Y-93726000D01*
X167640000Y-96164400D01*
X170078400Y-96164400D01*
X170078400Y-93726000D01*
X167640000Y-93726000D01*
X166827200Y-93726000D01*
X166827200Y-92913200D01*
X170891200Y-92913200D01*
X170891200Y-96977200D01*
X170891200Y-96977200D01*
G37*
X170891200Y-96977200D02*
X166827200Y-96977200D01*
X166827200Y-93726000D01*
X167640000Y-93726000D01*
X167640000Y-96164400D01*
X170078400Y-96164400D01*
X170078400Y-93726000D01*
X167640000Y-93726000D01*
X166827200Y-93726000D01*
X166827200Y-92913200D01*
X170891200Y-92913200D01*
X170891200Y-96977200D01*
G36*
X188772800Y-96977200D02*
X184708800Y-96977200D01*
X184708800Y-93726000D01*
X185521600Y-93726000D01*
X185521600Y-96164400D01*
X187960000Y-96164400D01*
X187960000Y-93726000D01*
X185521600Y-93726000D01*
X184708800Y-93726000D01*
X184708800Y-92913200D01*
X188772800Y-92913200D01*
X188772800Y-96977200D01*
X188772800Y-96977200D01*
G37*
X188772800Y-96977200D02*
X184708800Y-96977200D01*
X184708800Y-93726000D01*
X185521600Y-93726000D01*
X185521600Y-96164400D01*
X187960000Y-96164400D01*
X187960000Y-93726000D01*
X185521600Y-93726000D01*
X184708800Y-93726000D01*
X184708800Y-92913200D01*
X188772800Y-92913200D01*
X188772800Y-96977200D01*
M02*
